<svg width="1436" height="1021" viewBox="0 0 1436 1021" fill="none" xmlns="http://www.w3.org/2000/svg">
<rect width="1436" height="1021" rx="20" fill="#F5F5F5"/>
<rect x="24" y="24" width="1389" height="973" rx="15" fill="#E9EFF1" fill-opacity="0.5"/>
<path d="M1119 453L1119 464.913C1119 505.113 1091.01 525 1057.67 525C1024.13 525 998 505.113 998 464.913L998 453L1034.6 453L1034.6 465.087C1034.6 482.284 1041.59 492.273 1058.26 492.273C1074.93 492.273 1082.49 482.674 1082.49 465.477L1082.49 453L1119 453Z" fill="#F5F5F5"/>
<path d="M242 467L242 455.583C242 417.059 268.372 398 299.779 398C331.383 398 356 417.059 356 455.583L356 467L321.52 467L321.52 455.416C321.52 438.936 314.932 429.364 299.225 429.364C283.518 429.364 276.395 438.562 276.395 455.042L276.395 467L242 467Z" fill="#FDC504"/>
<path d="M242 468L242 456.749C242 418.782 268.372 400 299.779 400C331.383 400 356 418.782 356 456.749L356 468L321.52 468L321.52 456.584C321.52 440.343 314.932 430.909 299.225 430.909C283.518 430.909 276.395 439.974 276.395 456.216L276.395 468L242 468Z" fill="#FDC504"/>
<path d="M173 536L173 547.251C173 585.218 146.628 604 115.221 604C83.6173 604 59 585.218 59 547.251L59 536L93.4799 536L93.4799 547.416C93.4799 563.657 100.068 573.091 115.775 573.091C131.482 573.091 138.605 564.026 138.605 547.784L138.605 536L173 536Z" fill="#FDC504"/>
<path d="M391 468H357V503H391V468Z" fill="#3BB25E"/>
<path d="M173 468H139V503H173V468Z" fill="#FDC504"/>
<path d="M425 503H391V536H425V503Z" fill="#FDC504"/>
<path d="M207 503H173V536H207V503Z" fill="#FDC504"/>
<path d="M242 468H207V503H242V468Z" fill="#3BB25E"/>
<path d="M242 536H207V571H242V536Z" fill="#3BB25E"/>
<path d="M59 503H24V536H59V503Z" fill="#EE4C3E"/>
<path d="M139 433H103V468H139V433Z" fill="#FDC504"/>
<path d="M276 503H242V536H276V503Z" fill="#3BB25E"/>
<rect x="555.5" y="512.047" width="326" height="61" rx="30.5" fill="#F5F5F5"/>
<path d="M605 532.547L603 534.547M595.39 542.157L599.5 538.047M599.5 538.047L602.5 541.047L606 537.547L603 534.547M599.5 538.047L603 534.547M595.39 542.157C595.907 542.666 596.317 543.273 596.598 543.941C596.879 544.61 597.025 545.328 597.027 546.053C597.03 546.779 596.889 547.497 596.612 548.168C596.336 548.839 595.929 549.448 595.416 549.961C594.904 550.474 594.294 550.88 593.624 551.157C592.953 551.433 592.234 551.574 591.509 551.572C590.784 551.569 590.066 551.423 589.397 551.142C588.728 550.861 588.122 550.451 587.612 549.935C586.61 548.897 586.056 547.508 586.069 546.066C586.081 544.624 586.66 543.244 587.679 542.225C588.699 541.205 590.078 540.626 591.521 540.614C592.963 540.601 594.352 541.156 595.389 542.158L595.39 542.157Z" stroke="#161616" stroke-width="2" stroke-linecap="round" stroke-linejoin="round"/>
<path d="M623.602 542.661C623.602 545.587 625.744 547.631 628.474 547.631C630.588 547.631 632.268 546.581 632.996 544.705H631.47C630.938 545.867 629.902 546.525 628.474 546.525C626.43 546.525 624.904 545.041 624.904 542.661C624.904 540.267 626.43 538.783 628.474 538.783C629.902 538.783 630.938 539.441 631.47 540.617H632.996C632.268 538.727 630.588 537.663 628.474 537.663C625.744 537.663 623.602 539.735 623.602 542.661ZM642.172 543.697C642.172 541.275 640.478 539.749 638.294 539.749C636.124 539.749 634.416 541.275 634.416 543.697C634.416 546.133 636.068 547.673 638.238 547.673C640.422 547.673 642.172 546.133 642.172 543.697ZM635.718 543.697C635.718 541.765 636.936 540.855 638.28 540.855C639.596 540.855 640.87 541.765 640.87 543.697C640.87 545.643 639.568 546.553 638.238 546.553C636.908 546.553 635.718 545.643 635.718 543.697ZM649.462 547.547H650.722V543.025C650.722 540.827 649.364 539.735 647.586 539.735C646.55 539.735 645.626 540.169 645.122 540.967V539.875H643.848V547.547H645.122V543.305C645.122 541.653 646.018 540.841 647.32 540.841C648.608 540.841 649.462 541.639 649.462 543.207V547.547ZM653.083 545.447C653.083 546.987 653.853 547.547 655.211 547.547H656.359V546.469H655.421C654.637 546.469 654.357 546.203 654.357 545.447V540.925H656.359V539.875H654.357V537.943H653.083V539.875H652.089V540.925H653.083V545.447ZM659.176 543.375C659.176 541.597 660.1 541.051 661.318 541.051H661.654V539.735C660.436 539.735 659.61 540.267 659.176 541.121V539.875H657.902V547.547H659.176V543.375ZM662.649 543.683C662.649 546.063 664.231 547.673 666.275 547.673C667.689 547.673 668.683 546.945 669.145 546.119V547.547H670.433V539.875H669.145V541.275C668.697 540.477 667.717 539.749 666.289 539.749C664.231 539.749 662.649 541.289 662.649 543.683ZM669.145 543.697C669.145 545.503 667.941 546.553 666.541 546.553C665.141 546.553 663.951 545.489 663.951 543.683C663.951 541.877 665.141 540.855 666.541 540.855C667.941 540.855 669.145 541.919 669.145 543.697ZM678.102 545.461C678.046 542.717 673.594 543.711 673.594 541.891C673.594 541.275 674.154 540.827 675.092 540.827C676.114 540.827 676.702 541.387 676.758 542.157H678.032C677.948 540.659 676.828 539.749 675.134 539.749C673.426 539.749 672.32 540.715 672.32 541.891C672.32 544.747 676.856 543.753 676.856 545.461C676.856 546.091 676.296 546.595 675.288 546.595C674.21 546.595 673.552 546.035 673.482 545.293H672.166C672.25 546.693 673.51 547.673 675.302 547.673C676.996 547.673 678.102 546.721 678.102 545.461ZM683.162 540.827C684.478 540.827 685.598 541.653 685.584 543.151H680.74C680.88 541.653 681.916 540.827 683.162 540.827ZM686.746 545.181H685.374C685.094 546.007 684.366 546.595 683.218 546.595C681.916 546.595 680.824 545.741 680.726 544.187H686.858C686.886 543.921 686.9 543.697 686.9 543.417C686.9 541.317 685.444 539.749 683.218 539.749C680.978 539.749 679.424 541.275 679.424 543.697C679.424 546.133 681.034 547.673 683.218 547.673C685.122 547.673 686.354 546.581 686.746 545.181ZM689.856 543.305C689.856 541.653 690.752 540.841 692.054 540.841C693.342 540.841 694.196 541.639 694.196 543.207V547.547H695.456V543.025C695.456 540.827 694.098 539.735 692.32 539.735C691.284 539.735 690.36 540.169 689.856 540.967V539.875H688.582V547.547H689.856V543.305ZM689.954 539.049H690.696C690.752 538.629 690.99 538.433 691.298 538.433C691.858 538.433 692.138 539.077 692.894 539.077C693.622 539.077 694.182 538.573 694.294 537.621H693.566C693.51 538.027 693.258 538.223 692.95 538.223C692.376 538.223 692.096 537.579 691.354 537.579C690.626 537.579 690.094 538.083 689.954 539.049ZM697.061 543.683C697.061 546.063 698.643 547.673 700.687 547.673C702.101 547.673 703.095 546.945 703.557 546.119V547.547H704.845V539.875H703.557V541.275C703.109 540.477 702.129 539.749 700.701 539.749C698.643 539.749 697.061 541.289 697.061 543.683ZM703.557 543.697C703.557 545.503 702.353 546.553 700.953 546.553C699.553 546.553 698.363 545.489 698.363 543.683C698.363 541.877 699.553 540.855 700.953 540.855C702.353 540.855 703.557 541.919 703.557 543.697Z" fill="#393939"/>
<rect x="555.5" y="512.047" width="326" height="61" rx="30.5" stroke="#393939"/>
<path d="M643.888 600.963C643.888 597.619 641.44 595.267 638.288 595.267C635.152 595.267 632.688 597.619 632.688 600.963C632.688 604.307 635.152 606.659 638.288 606.659C641.44 606.659 643.888 604.307 643.888 600.963ZM634.176 600.963C634.176 598.227 635.936 596.531 638.288 596.531C640.64 596.531 642.4 598.227 642.4 600.963C642.4 603.683 640.64 605.395 638.288 605.395C635.936 605.395 634.176 603.683 634.176 600.963ZM645.81 606.547H647.266V594.707H645.81V606.547ZM648.708 597.779L652.148 606.547H653.844L657.284 597.779H655.732L653.012 605.203L650.276 597.779H648.708ZM658.716 606.547H660.172V597.779H658.716V606.547ZM659.468 596.355C659.996 596.355 660.428 595.923 660.428 595.363C660.428 594.803 659.996 594.371 659.468 594.371C658.908 594.371 658.476 594.803 658.476 595.363C658.476 595.923 658.908 596.355 659.468 596.355ZM662.11 602.131C662.11 604.851 663.918 606.691 666.27 606.691C667.87 606.691 669.006 605.875 669.534 604.899V606.547H671.006V594.707H669.534V599.347C668.926 598.339 667.662 597.635 666.286 597.635C663.918 597.635 662.11 599.395 662.11 602.131ZM669.534 602.147C669.534 604.211 668.158 605.411 666.558 605.411C664.958 605.411 663.598 604.195 663.598 602.131C663.598 600.067 664.958 598.899 666.558 598.899C668.158 598.899 669.534 600.115 669.534 602.147ZM677.194 598.867C678.698 598.867 679.978 599.811 679.962 601.523H674.426C674.586 599.811 675.77 598.867 677.194 598.867ZM681.29 603.843H679.722C679.402 604.787 678.57 605.459 677.258 605.459C675.77 605.459 674.522 604.483 674.41 602.707H681.418C681.45 602.403 681.466 602.147 681.466 601.827C681.466 599.427 679.802 597.635 677.258 597.635C674.698 597.635 672.922 599.379 672.922 602.147C672.922 604.931 674.762 606.691 677.258 606.691C679.434 606.691 680.842 605.443 681.29 603.843ZM675.354 596.035V597.123L678.762 595.299V594.035L675.354 596.035ZM700.31 606.547H701.75V601.379C701.75 598.867 700.198 597.619 698.198 597.619C696.854 597.619 695.606 598.307 695.094 599.571C694.518 598.259 693.318 597.619 691.878 597.619C690.726 597.619 689.686 598.115 689.11 599.043V597.779H687.654V606.547H689.11V601.715C689.11 599.827 690.118 598.883 691.59 598.883C693.03 598.883 693.99 599.795 693.99 601.587V606.547H695.43V601.715C695.43 599.827 696.438 598.883 697.91 598.883C699.35 598.883 700.31 599.795 700.31 601.587V606.547ZM704.138 606.547H705.594V597.779H704.138V606.547ZM704.89 596.355C705.418 596.355 705.85 595.923 705.85 595.363C705.85 594.803 705.418 594.371 704.89 594.371C704.33 594.371 703.898 594.803 703.898 595.363C703.898 595.923 704.33 596.355 704.89 596.355ZM711.797 602.147C711.797 604.931 713.573 606.691 716.069 606.691C718.245 606.691 719.669 605.475 720.117 603.731H718.549C718.229 604.835 717.365 605.459 716.069 605.459C714.469 605.459 713.285 604.323 713.285 602.147C713.285 600.003 714.469 598.867 716.069 598.867C717.365 598.867 718.245 599.539 718.549 600.595H720.117C719.669 598.755 718.245 597.635 716.069 597.635C713.573 597.635 711.797 599.395 711.797 602.147ZM730.38 602.147C730.38 599.379 728.444 597.635 725.948 597.635C723.468 597.635 721.516 599.379 721.516 602.147C721.516 604.931 723.404 606.691 725.884 606.691C728.38 606.691 730.38 604.931 730.38 602.147ZM723.004 602.147C723.004 599.939 724.396 598.899 725.932 598.899C727.436 598.899 728.892 599.939 728.892 602.147C728.892 604.371 727.404 605.411 725.884 605.411C724.364 605.411 723.004 604.371 723.004 602.147ZM738.711 606.547H740.151V601.379C740.151 598.867 738.599 597.619 736.567 597.619C735.383 597.619 734.327 598.115 733.751 599.027V597.779H732.295V606.547H733.751V601.699C733.751 599.811 734.775 598.883 736.263 598.883C737.735 598.883 738.711 599.795 738.711 601.587V606.547ZM742.849 604.147C742.849 605.907 743.729 606.547 745.281 606.547H746.593V605.315H745.521C744.625 605.315 744.305 605.011 744.305 604.147V598.979H746.593V597.779H744.305V595.571H742.849V597.779H741.713V598.979H742.849V604.147ZM749.813 601.779C749.813 599.747 750.869 599.123 752.261 599.123H752.645V597.619C751.253 597.619 750.309 598.227 749.813 599.203V597.779H748.357V606.547H749.813V601.779ZM753.782 602.131C753.782 604.851 755.59 606.691 757.926 606.691C759.542 606.691 760.678 605.859 761.206 604.915V606.547H762.678V597.779H761.206V599.379C760.694 598.467 759.574 597.635 757.942 597.635C755.59 597.635 753.782 599.395 753.782 602.131ZM761.206 602.147C761.206 604.211 759.83 605.411 758.23 605.411C756.63 605.411 755.27 604.195 755.27 602.131C755.27 600.067 756.63 598.899 758.23 598.899C759.83 598.899 761.206 600.115 761.206 602.147ZM771.442 604.163C771.378 601.027 766.29 602.163 766.29 600.083C766.29 599.379 766.93 598.867 768.002 598.867C769.17 598.867 769.842 599.507 769.906 600.387H771.362C771.266 598.675 769.986 597.635 768.05 597.635C766.098 597.635 764.834 598.739 764.834 600.083C764.834 603.347 770.018 602.211 770.018 604.163C770.018 604.883 769.378 605.459 768.226 605.459C766.994 605.459 766.242 604.819 766.162 603.971H764.658C764.754 605.571 766.194 606.691 768.242 606.691C770.178 606.691 771.442 605.603 771.442 604.163ZM777.226 598.867C778.73 598.867 780.01 599.811 779.994 601.523H774.458C774.618 599.811 775.802 598.867 777.226 598.867ZM781.322 603.843H779.754C779.434 604.787 778.602 605.459 777.29 605.459C775.802 605.459 774.554 604.483 774.442 602.707H781.45C781.482 602.403 781.498 602.147 781.498 601.827C781.498 599.427 779.834 597.635 777.29 597.635C774.73 597.635 772.954 599.379 772.954 602.147C772.954 604.931 774.794 606.691 777.29 606.691C779.466 606.691 780.874 605.443 781.322 603.843ZM784.876 601.699C784.876 599.811 785.9 598.883 787.388 598.883C788.86 598.883 789.836 599.795 789.836 601.587V606.547H791.276V601.379C791.276 598.867 789.724 597.619 787.692 597.619C786.508 597.619 785.452 598.115 784.876 599.027V597.779H783.42V606.547H784.876V601.699ZM784.988 596.835H785.836C785.9 596.355 786.172 596.131 786.524 596.131C787.164 596.131 787.484 596.867 788.348 596.867C789.18 596.867 789.82 596.291 789.948 595.203H789.116C789.052 595.667 788.764 595.891 788.412 595.891C787.756 595.891 787.436 595.155 786.588 595.155C785.756 595.155 785.148 595.731 784.988 596.835ZM793.11 602.131C793.11 604.851 794.918 606.691 797.254 606.691C798.87 606.691 800.006 605.859 800.534 604.915V606.547H802.006V597.779H800.534V599.379C800.022 598.467 798.902 597.635 797.27 597.635C794.918 597.635 793.11 599.395 793.11 602.131ZM800.534 602.147C800.534 604.211 799.158 605.411 797.558 605.411C795.958 605.411 794.598 604.195 794.598 602.131C794.598 600.067 795.958 598.899 797.558 598.899C799.158 598.899 800.534 600.115 800.534 602.147Z" fill="#161616"/>
<path d="M632 608.147H803.238V608.947H632V608.147Z" fill="#161616"/>
<rect x="555.5" y="433.047" width="326" height="61" rx="30.5" fill="#F5F5F5"/>
<path d="M598 472.547V470.547C598 469.486 597.579 468.468 596.828 467.718C596.078 466.968 595.061 466.547 594 466.547H588C586.939 466.547 585.922 466.968 585.172 467.718C584.421 468.468 584 469.486 584 470.547V472.547" stroke="#161616" stroke-width="2" stroke-linecap="round" stroke-linejoin="round"/>
<path d="M591 462.547C593.209 462.547 595 460.756 595 458.547C595 456.337 593.209 454.547 591 454.547C588.791 454.547 587 456.337 587 458.547C587 460.756 588.791 462.547 591 462.547Z" stroke="#161616" stroke-width="2" stroke-linecap="round" stroke-linejoin="round"/>
<path d="M619.602 465.661C619.602 468.587 621.744 470.631 624.474 470.631C626.588 470.631 628.268 469.581 628.996 467.705H627.47C626.938 468.867 625.902 469.525 624.474 469.525C622.43 469.525 620.904 468.041 620.904 465.661C620.904 463.267 622.43 461.783 624.474 461.783C625.902 461.783 626.938 462.441 627.47 463.617H628.996C628.268 461.727 626.588 460.663 624.474 460.663C621.744 460.663 619.602 462.735 619.602 465.661ZM638.172 466.697C638.172 464.275 636.478 462.749 634.294 462.749C632.124 462.749 630.416 464.275 630.416 466.697C630.416 469.133 632.068 470.673 634.238 470.673C636.422 470.673 638.172 469.133 638.172 466.697ZM631.718 466.697C631.718 464.765 632.936 463.855 634.28 463.855C635.596 463.855 636.87 464.765 636.87 466.697C636.87 468.643 635.568 469.553 634.238 469.553C632.908 469.553 631.718 468.643 631.718 466.697ZM641.122 466.375C641.122 464.597 642.046 464.051 643.264 464.051H643.6V462.735C642.382 462.735 641.556 463.267 641.122 464.121V462.875H639.848V470.547H641.122V466.375ZM646.344 466.375C646.344 464.597 647.268 464.051 648.486 464.051H648.822V462.735C647.604 462.735 646.778 463.267 646.344 464.121V462.875H645.07V470.547H646.344V466.375ZM653.555 463.827C654.871 463.827 655.991 464.653 655.977 466.151H651.133C651.273 464.653 652.309 463.827 653.555 463.827ZM657.139 468.181H655.767C655.487 469.007 654.759 469.595 653.611 469.595C652.309 469.595 651.217 468.741 651.119 467.187H657.251C657.279 466.921 657.293 466.697 657.293 466.417C657.293 464.317 655.837 462.749 653.611 462.749C651.371 462.749 649.817 464.275 649.817 466.697C649.817 469.133 651.427 470.673 653.611 470.673C655.515 470.673 656.747 469.581 657.139 468.181ZM666.254 466.697C666.254 464.275 664.56 462.749 662.376 462.749C660.206 462.749 658.498 464.275 658.498 466.697C658.498 469.133 660.15 470.673 662.32 470.673C664.504 470.673 666.254 469.133 666.254 466.697ZM659.8 466.697C659.8 464.765 661.018 463.855 662.362 463.855C663.678 463.855 664.952 464.765 664.952 466.697C664.952 468.643 663.65 469.553 662.32 469.553C660.99 469.553 659.8 468.643 659.8 466.697ZM674.924 463.827C676.24 463.827 677.36 464.653 677.346 466.151H672.502C672.642 464.653 673.678 463.827 674.924 463.827ZM678.508 468.181H677.136C676.856 469.007 676.128 469.595 674.98 469.595C673.678 469.595 672.586 468.741 672.488 467.187H678.62C678.648 466.921 678.662 466.697 678.662 466.417C678.662 464.317 677.206 462.749 674.98 462.749C672.74 462.749 671.186 464.275 671.186 466.697C671.186 469.133 672.796 470.673 674.98 470.673C676.884 470.673 678.116 469.581 678.508 468.181ZM680.344 470.547H681.618V460.187H680.344V470.547ZM687.051 463.827C688.367 463.827 689.487 464.653 689.473 466.151H684.629C684.769 464.653 685.805 463.827 687.051 463.827ZM690.635 468.181H689.263C688.983 469.007 688.255 469.595 687.107 469.595C685.805 469.595 684.713 468.741 684.615 467.187H690.747C690.775 466.921 690.789 466.697 690.789 466.417C690.789 464.317 689.333 462.749 687.107 462.749C684.867 462.749 683.313 464.275 683.313 466.697C683.313 469.133 684.923 470.673 687.107 470.673C689.011 470.673 690.243 469.581 690.635 468.181ZM691.995 466.697C691.995 469.133 693.549 470.673 695.733 470.673C697.637 470.673 698.883 469.609 699.275 468.083H697.903C697.623 469.049 696.867 469.595 695.733 469.595C694.333 469.595 693.297 468.601 693.297 466.697C693.297 464.821 694.333 463.827 695.733 463.827C696.867 463.827 697.637 464.415 697.903 465.339H699.275C698.883 463.729 697.637 462.749 695.733 462.749C693.549 462.749 691.995 464.289 691.995 466.697ZM701.254 468.447C701.254 469.987 702.024 470.547 703.382 470.547H704.53V469.469H703.592C702.808 469.469 702.528 469.203 702.528 468.447V463.925H704.53V462.875H702.528V460.943H701.254V462.875H700.26V463.925H701.254V468.447ZM707.348 466.375C707.348 464.597 708.272 464.051 709.49 464.051H709.826V462.735C708.608 462.735 707.782 463.267 707.348 464.121V462.875H706.074V470.547H707.348V466.375ZM718.577 466.697C718.577 464.275 716.883 462.749 714.699 462.749C712.529 462.749 710.821 464.275 710.821 466.697C710.821 469.133 712.473 470.673 714.643 470.673C716.827 470.673 718.577 469.133 718.577 466.697ZM712.123 466.697C712.123 464.765 713.341 463.855 714.685 463.855C716.001 463.855 717.275 464.765 717.275 466.697C717.275 468.643 715.973 469.553 714.643 469.553C713.313 469.553 712.123 468.643 712.123 466.697ZM713.089 461.251V462.203L716.071 460.607V459.501L713.089 461.251ZM725.866 470.547H727.126V466.025C727.126 463.827 725.768 462.735 723.99 462.735C722.954 462.735 722.03 463.169 721.526 463.967V462.875H720.252V470.547H721.526V466.305C721.526 464.653 722.422 463.841 723.724 463.841C725.012 463.841 725.866 464.639 725.866 466.207V470.547ZM729.207 470.547H730.481V462.875H729.207V470.547ZM729.865 461.629C730.327 461.629 730.705 461.251 730.705 460.761C730.705 460.271 730.327 459.893 729.865 459.893C729.375 459.893 728.997 460.271 728.997 460.761C728.997 461.251 729.375 461.629 729.865 461.629ZM732.176 466.697C732.176 469.133 733.73 470.673 735.914 470.673C737.818 470.673 739.064 469.609 739.456 468.083H738.084C737.804 469.049 737.048 469.595 735.914 469.595C734.514 469.595 733.478 468.601 733.478 466.697C733.478 464.821 734.514 463.827 735.914 463.827C737.048 463.827 737.818 464.415 738.084 465.339H739.456C739.064 463.729 737.818 462.749 735.914 462.749C733.73 462.749 732.176 464.289 732.176 466.697ZM748.436 466.697C748.436 464.275 746.742 462.749 744.558 462.749C742.388 462.749 740.68 464.275 740.68 466.697C740.68 469.133 742.332 470.673 744.502 470.673C746.686 470.673 748.436 469.133 748.436 466.697ZM741.982 466.697C741.982 464.765 743.2 463.855 744.544 463.855C745.86 463.855 747.134 464.765 747.134 466.697C747.134 468.643 745.832 469.553 744.502 469.553C743.172 469.553 741.982 468.643 741.982 466.697Z" fill="#393939"/>
<rect x="555.5" y="433.047" width="326" height="61" rx="30.5" stroke="#393939"/>
<rect x="555" y="665.547" width="327" height="62" rx="31" fill="#161616"/>
<path d="M667.212 691.315V702.547H664.476V691.315H667.212ZM674.635 693.523C675.68 693.523 676.512 693.864 677.131 694.547C677.76 695.219 678.075 696.147 678.075 697.331V702.547H675.355V697.699C675.355 697.101 675.2 696.637 674.891 696.307C674.582 695.976 674.166 695.811 673.643 695.811C673.12 695.811 672.704 695.976 672.395 696.307C672.086 696.637 671.931 697.101 671.931 697.699V702.547H669.195V693.619H671.931V694.803C672.208 694.408 672.582 694.099 673.051 693.875C673.52 693.64 674.048 693.523 674.635 693.523ZM681.352 692.691C680.872 692.691 680.478 692.552 680.168 692.275C679.87 691.987 679.72 691.635 679.72 691.219C679.72 690.792 679.87 690.44 680.168 690.163C680.478 689.875 680.872 689.731 681.352 689.731C681.822 689.731 682.206 689.875 682.504 690.163C682.814 690.44 682.968 690.792 682.968 691.219C682.968 691.635 682.814 691.987 682.504 692.275C682.206 692.552 681.822 692.691 681.352 692.691ZM682.712 693.619V702.547H679.976V693.619H682.712ZM684.151 698.083C684.151 697.155 684.338 696.344 684.711 695.651C685.095 694.957 685.623 694.424 686.295 694.051C686.978 693.677 687.756 693.491 688.631 693.491C689.751 693.491 690.684 693.784 691.431 694.371C692.188 694.957 692.684 695.784 692.919 696.851H690.007C689.762 696.168 689.287 695.827 688.583 695.827C688.082 695.827 687.682 696.024 687.383 696.419C687.084 696.803 686.935 697.357 686.935 698.083C686.935 698.808 687.084 699.368 687.383 699.763C687.682 700.147 688.082 700.339 688.583 700.339C689.287 700.339 689.762 699.997 690.007 699.315H692.919C692.684 700.36 692.188 701.181 691.431 701.779C690.674 702.376 689.74 702.675 688.631 702.675C687.756 702.675 686.978 702.488 686.295 702.115C685.623 701.741 685.095 701.208 684.711 700.515C684.338 699.821 684.151 699.011 684.151 698.083ZM695.759 692.691C695.279 692.691 694.884 692.552 694.575 692.275C694.276 691.987 694.127 691.635 694.127 691.219C694.127 690.792 694.276 690.44 694.575 690.163C694.884 689.875 695.279 689.731 695.759 689.731C696.228 689.731 696.612 689.875 696.911 690.163C697.22 690.44 697.375 690.792 697.375 691.219C697.375 691.635 697.22 691.987 696.911 692.275C696.612 692.552 696.228 692.691 695.759 692.691ZM697.119 693.619V702.547H694.383V693.619H697.119ZM698.557 698.067C698.557 697.149 698.728 696.344 699.069 695.651C699.421 694.957 699.896 694.424 700.493 694.051C701.091 693.677 701.757 693.491 702.493 693.491C703.123 693.491 703.672 693.619 704.141 693.875C704.621 694.131 704.989 694.467 705.245 694.883V693.619H707.981V702.547H705.245V701.283C704.979 701.699 704.605 702.035 704.125 702.291C703.656 702.547 703.107 702.675 702.477 702.675C701.752 702.675 701.091 702.488 700.493 702.115C699.896 701.731 699.421 701.192 699.069 700.499C698.728 699.795 698.557 698.984 698.557 698.067ZM705.245 698.083C705.245 697.4 705.053 696.861 704.669 696.467C704.296 696.072 703.837 695.875 703.293 695.875C702.749 695.875 702.285 696.072 701.901 696.467C701.528 696.851 701.341 697.384 701.341 698.067C701.341 698.749 701.528 699.293 701.901 699.699C702.285 700.093 702.749 700.291 703.293 700.291C703.837 700.291 704.296 700.093 704.669 699.699C705.053 699.304 705.245 698.765 705.245 698.083ZM712.697 695.107C713.017 694.616 713.417 694.232 713.897 693.955C714.377 693.667 714.91 693.523 715.497 693.523V696.419H714.745C714.062 696.419 713.55 696.568 713.209 696.867C712.867 697.155 712.697 697.667 712.697 698.403V702.547H709.961V693.619H712.697V695.107ZM724.259 702.659C723.438 702.659 722.702 702.525 722.051 702.259C721.4 701.992 720.878 701.597 720.483 701.075C720.099 700.552 719.896 699.923 719.875 699.187H722.787C722.83 699.603 722.974 699.923 723.219 700.147C723.464 700.36 723.784 700.467 724.179 700.467C724.584 700.467 724.904 700.376 725.139 700.195C725.374 700.003 725.491 699.741 725.491 699.411C725.491 699.133 725.395 698.904 725.203 698.723C725.022 698.541 724.792 698.392 724.515 698.275C724.248 698.157 723.864 698.024 723.363 697.875C722.638 697.651 722.046 697.427 721.587 697.203C721.128 696.979 720.734 696.648 720.403 696.211C720.072 695.773 719.907 695.203 719.907 694.499C719.907 693.453 720.286 692.637 721.043 692.051C721.8 691.453 722.787 691.155 724.003 691.155C725.24 691.155 726.238 691.453 726.995 692.051C727.752 692.637 728.158 693.459 728.211 694.515H725.251C725.23 694.152 725.096 693.869 724.851 693.667C724.606 693.453 724.291 693.347 723.907 693.347C723.576 693.347 723.31 693.437 723.107 693.619C722.904 693.789 722.803 694.04 722.803 694.371C722.803 694.733 722.974 695.016 723.315 695.219C723.656 695.421 724.19 695.64 724.915 695.875C725.64 696.12 726.227 696.355 726.675 696.579C727.134 696.803 727.528 697.128 727.859 697.555C728.19 697.981 728.355 698.531 728.355 699.203C728.355 699.843 728.19 700.424 727.859 700.947C727.539 701.469 727.07 701.885 726.451 702.195C725.832 702.504 725.102 702.659 724.259 702.659ZM738.455 697.939C738.455 698.195 738.439 698.461 738.407 698.739H732.215C732.258 699.293 732.434 699.72 732.743 700.019C733.063 700.307 733.452 700.451 733.911 700.451C734.594 700.451 735.068 700.163 735.335 699.587H738.247C738.098 700.173 737.826 700.701 737.431 701.171C737.047 701.64 736.562 702.008 735.975 702.275C735.388 702.541 734.732 702.675 734.007 702.675C733.132 702.675 732.354 702.488 731.671 702.115C730.988 701.741 730.455 701.208 730.071 700.515C729.687 699.821 729.495 699.011 729.495 698.083C729.495 697.155 729.682 696.344 730.055 695.651C730.439 694.957 730.972 694.424 731.655 694.051C732.338 693.677 733.122 693.491 734.007 693.491C734.871 693.491 735.639 693.672 736.311 694.035C736.983 694.397 737.506 694.915 737.879 695.587C738.263 696.259 738.455 697.043 738.455 697.939ZM735.655 697.219C735.655 696.749 735.495 696.376 735.175 696.099C734.855 695.821 734.455 695.683 733.975 695.683C733.516 695.683 733.127 695.816 732.807 696.083C732.498 696.349 732.306 696.728 732.231 697.219H735.655ZM743.53 702.675C742.752 702.675 742.058 702.541 741.45 702.275C740.842 702.008 740.362 701.645 740.01 701.187C739.658 700.717 739.461 700.195 739.418 699.619H742.122C742.154 699.928 742.298 700.179 742.554 700.371C742.81 700.563 743.125 700.659 743.498 700.659C743.84 700.659 744.101 700.595 744.282 700.467C744.474 700.328 744.57 700.152 744.57 699.939C744.57 699.683 744.437 699.496 744.17 699.379C743.904 699.251 743.472 699.112 742.874 698.963C742.234 698.813 741.701 698.659 741.274 698.499C740.848 698.328 740.48 698.067 740.17 697.715C739.861 697.352 739.706 696.867 739.706 696.259C739.706 695.747 739.845 695.283 740.122 694.867C740.41 694.44 740.826 694.104 741.37 693.859C741.925 693.613 742.581 693.491 743.338 693.491C744.458 693.491 745.338 693.768 745.978 694.323C746.629 694.877 747.002 695.613 747.098 696.531H744.57C744.528 696.221 744.389 695.976 744.154 695.795C743.93 695.613 743.632 695.523 743.258 695.523C742.938 695.523 742.693 695.587 742.522 695.715C742.352 695.832 742.266 695.997 742.266 696.211C742.266 696.467 742.4 696.659 742.666 696.787C742.944 696.915 743.37 697.043 743.946 697.171C744.608 697.341 745.146 697.512 745.562 697.683C745.978 697.843 746.341 698.109 746.65 698.483C746.97 698.845 747.136 699.336 747.146 699.955C747.146 700.477 746.997 700.947 746.698 701.363C746.41 701.768 745.989 702.088 745.434 702.323C744.89 702.557 744.256 702.675 743.53 702.675ZM750.196 692.691C749.716 692.691 749.321 692.552 749.012 692.275C748.713 691.987 748.564 691.635 748.564 691.219C748.564 690.792 748.713 690.44 749.012 690.163C749.321 689.875 749.716 689.731 750.196 689.731C750.665 689.731 751.049 689.875 751.348 690.163C751.657 690.44 751.812 690.792 751.812 691.219C751.812 691.635 751.657 691.987 751.348 692.275C751.049 692.552 750.665 692.691 750.196 692.691ZM751.556 693.619V702.547H748.82V693.619H751.556ZM757.603 702.675C756.728 702.675 755.939 702.488 755.235 702.115C754.542 701.741 753.992 701.208 753.587 700.515C753.192 699.821 752.995 699.011 752.995 698.083C752.995 697.165 753.198 696.36 753.603 695.667C754.008 694.963 754.563 694.424 755.267 694.051C755.971 693.677 756.76 693.491 757.635 693.491C758.51 693.491 759.299 693.677 760.003 694.051C760.707 694.424 761.262 694.963 761.667 695.667C762.072 696.36 762.275 697.165 762.275 698.083C762.275 699 762.067 699.811 761.651 700.515C761.246 701.208 760.686 701.741 759.971 702.115C759.267 702.488 758.478 702.675 757.603 702.675ZM757.603 700.307C758.126 700.307 758.568 700.115 758.931 699.731C759.304 699.347 759.491 698.797 759.491 698.083C759.491 697.368 759.31 696.819 758.947 696.435C758.595 696.051 758.158 695.859 757.635 695.859C757.102 695.859 756.659 696.051 756.307 696.435C755.955 696.808 755.779 697.357 755.779 698.083C755.779 698.797 755.95 699.347 756.291 699.731C756.643 700.115 757.08 700.307 757.603 700.307ZM759.715 691.331L755.859 692.947V691.059L759.715 689.203V691.331ZM769.166 693.523C770.212 693.523 771.044 693.864 771.662 694.547C772.292 695.219 772.606 696.147 772.606 697.331V702.547H769.886V697.699C769.886 697.101 769.732 696.637 769.422 696.307C769.113 695.976 768.697 695.811 768.174 695.811C767.652 695.811 767.236 695.976 766.926 696.307C766.617 696.637 766.462 697.101 766.462 697.699V702.547H763.726V693.619H766.462V694.803C766.74 694.408 767.113 694.099 767.582 693.875C768.052 693.64 768.58 693.523 769.166 693.523Z" fill="#F5F5F5"/>
<path d="M559 294.994H580.164L589.941 344.376L601.575 294.994H623.98L635.737 344.13L645.391 294.994H665.318L646.631 364.053H623.236L612.346 319.252L601.082 364.053H577.814L559 294.994Z" fill="#161616"/>
<path d="M704.057 365.043C683.759 365.043 669.155 351.429 669.155 329.522C669.155 307.614 683.513 294 704.057 294C724.231 294 738.465 307.367 738.465 328.408C738.461 330.477 738.337 332.544 738.095 334.599H690.196C690.94 343.632 696.506 347.839 703.317 347.839C709.261 347.839 712.601 344.869 714.335 341.159H736.859C733.515 354.65 721.261 365.043 704.057 365.043ZM690.32 322.838H716.804C716.804 315.284 710.864 310.958 703.81 310.958C696.868 310.958 691.556 315.164 690.32 322.838Z" fill="#161616"/>
<path d="M748.369 311.824H796.876V329.398H748.369V311.824Z" fill="#161616"/>
<path d="M876.881 323.975V330.77C876.881 353.7 860.806 365.043 841.662 365.043C822.398 365.043 807.393 353.7 807.393 330.77V323.975H828.41V330.869C828.41 340.678 832.425 346.376 842 346.376C851.574 346.376 855.916 340.901 855.916 331.092V323.975H876.881Z" fill="#161616"/>
<path d="M828.326 294.004H807.393V314.938H828.326V294.004Z" fill="#4C91F6"/>
<path d="M876.881 294H855.947V314.934H876.881V294Z" fill="#4C91F6"/>
<path d="M1302 493H1266V531H1302V493Z" fill="#EE4C3E"/>
<path d="M1302 568H1266V604H1302V568Z" fill="#EE4C3E"/>
<path d="M1340 531H1302V568H1340V531Z" fill="#4C91F6"/>
<path d="M1376 568H1340V604H1376V568Z" fill="#4C91F6"/>
<path d="M1266 456H1228V493H1266V456Z" fill="#EE4C3E"/>
<path d="M1340 456H1302V493H1340V456Z" fill="#EE4C3E"/>
<path d="M1413 531H1376V568H1413V531Z" fill="#FDC504"/>
<path d="M1191 382H1155V418H1191V382Z" fill="#FDC504"/>
<path d="M1155 418H1119V454H1155V418Z" fill="#FDC504"/>
<path d="M1229 345H1191V382H1229V345Z" fill="#4C91F6"/>
<path d="M1229 418H1191V456H1229V418Z" fill="#4C91F6"/>
<path d="M1266 382H1229V418H1266V382Z" fill="#4C91F6"/>
</svg>
