<svg width="414" height="805" viewBox="0 0 414 805" fill="none" xmlns="http://www.w3.org/2000/svg">
<g clip-path="url(#clip0_65_511)">
<rect width="414" height="805" rx="20" fill="#FCFCFC"/>
<path fill-rule="evenodd" clip-rule="evenodd" d="M333.68 18.0747H332.487C331.828 18.0747 331.294 18.5778 331.294 19.1984V28.937C331.294 29.5576 331.828 30.0607 332.487 30.0607H333.68C334.339 30.0607 334.874 29.5576 334.874 28.937V19.1984C334.874 18.5778 334.339 18.0747 333.68 18.0747ZM327.918 20.6967H329.111C329.77 20.6967 330.305 21.1998 330.305 21.8204V28.9371C330.305 29.5577 329.77 30.0608 329.111 30.0608H327.918C327.259 30.0608 326.725 29.5577 326.725 28.9371V21.8204C326.725 21.1998 327.259 20.6967 327.918 20.6967ZM323.542 23.3185H322.349C321.69 23.3185 321.156 23.8216 321.156 24.4422V28.937C321.156 29.5575 321.69 30.0606 322.349 30.0606H323.542C324.201 30.0606 324.736 29.5575 324.736 28.937V24.4422C324.736 23.8216 324.201 23.3185 323.542 23.3185ZM317.974 25.5659H316.78C316.121 25.5659 315.587 26.069 315.587 26.6896V28.9369C315.587 29.5575 316.121 30.0606 316.78 30.0606H317.974C318.633 30.0606 319.167 29.5575 319.167 28.9369V26.6896C319.167 26.069 318.633 25.5659 317.974 25.5659Z" fill="#181818"/>
<path opacity="0.4" d="M392.551 21.8203V26.3151C393.512 25.9344 394.136 25.0488 394.136 24.0677C394.136 23.0866 393.512 22.201 392.551 21.8203Z" fill="#181818"/>
<rect opacity="0.35" x="365.604" y="18.2002" width="25.2535" height="11.7352" rx="2.16667" stroke="#181818"/>
<rect x="367.491" y="19.9475" width="21.4801" height="8.24039" rx="1.33333" fill="#181818"/>
<path d="M140.659 83.602V79.356H148.095V77.002H140.659V72.998H149.041V70.6H137.799V86H149.349V83.602H140.659ZM158.94 74.12C157.224 74.12 155.794 74.692 154.892 75.77V74.252H152.274V86H155.024V80.06C155.024 77.706 156.344 76.518 158.302 76.518C160.062 76.518 161.096 77.53 161.096 79.62V86H163.846V79.268C163.846 75.726 161.756 74.12 158.94 74.12ZM172.832 86.154C175.12 86.154 176.946 85.164 177.848 83.404L175.736 82.172C175.032 83.294 173.976 83.8 172.81 83.8C170.786 83.8 169.246 82.414 169.246 80.126C169.246 77.86 170.786 76.452 172.81 76.452C173.976 76.452 175.032 76.958 175.736 78.08L177.848 76.848C176.946 75.066 175.12 74.12 172.832 74.12C169.114 74.12 166.474 76.606 166.474 80.126C166.474 83.646 169.114 86.154 172.832 86.154ZM185.333 86.154C188.985 86.154 191.603 83.646 191.603 80.126C191.603 76.606 188.985 74.12 185.333 74.12C181.725 74.12 179.085 76.606 179.085 80.126C179.085 83.646 181.725 86.154 185.333 86.154ZM185.333 83.8C183.353 83.8 181.857 82.37 181.857 80.126C181.857 77.882 183.353 76.452 185.333 76.452C187.335 76.452 188.831 77.882 188.831 80.126C188.831 82.37 187.335 83.8 185.333 83.8ZM209.061 74.12C207.191 74.12 205.607 74.868 204.661 76.078C203.847 74.758 202.417 74.12 200.701 74.12C199.095 74.12 197.731 74.692 196.851 75.748V74.252H194.233V86H196.983V80.038C196.983 77.706 198.215 76.518 200.041 76.518C201.713 76.518 202.681 77.53 202.681 79.62V86H205.431V80.038C205.431 77.706 206.685 76.518 208.489 76.518C210.161 76.518 211.129 77.53 211.129 79.62V86H213.879V79.268C213.879 75.726 211.899 74.12 209.061 74.12ZM218.779 72.316C219.813 72.316 220.539 71.568 220.539 70.6C220.539 69.698 219.791 69.016 218.779 69.016C217.767 69.016 217.019 69.742 217.019 70.666C217.019 71.59 217.767 72.316 218.779 72.316ZM217.393 86H220.143V74.252H217.393V86ZM234.796 80.192C234.796 76.518 232.288 74.12 228.856 74.12C225.358 74.12 222.784 76.628 222.784 80.126C222.784 83.624 225.336 86.154 229.274 86.154C231.298 86.154 232.948 85.494 234.004 84.24L232.53 82.546C231.694 83.404 230.66 83.822 229.34 83.822C227.294 83.822 225.864 82.722 225.534 81.006H234.752C234.774 80.742 234.796 80.412 234.796 80.192ZM228.856 76.32C230.66 76.32 231.958 77.486 232.178 79.18H225.512C225.776 77.464 227.074 76.32 228.856 76.32ZM244.104 74.12C242.388 74.12 240.958 74.692 240.056 75.77V74.252H237.438V86H240.188V80.06C240.188 77.706 241.508 76.518 243.466 76.518C245.226 76.518 246.26 77.53 246.26 79.62V86H249.01V79.268C249.01 75.726 246.92 74.12 244.104 74.12ZM261.362 69.676V75.704C260.438 74.626 259.096 74.12 257.578 74.12C254.168 74.12 251.638 76.474 251.638 80.126C251.638 83.778 254.168 86.154 257.578 86.154C259.184 86.154 260.548 85.604 261.472 84.482V86H264.112V69.676H261.362ZM257.908 83.8C255.928 83.8 254.41 82.37 254.41 80.126C254.41 77.882 255.928 76.452 257.908 76.452C259.888 76.452 261.406 77.882 261.406 80.126C261.406 82.37 259.888 83.8 257.908 83.8ZM272.197 74.12C270.305 74.12 268.479 74.604 267.225 75.572L268.303 77.574C269.183 76.848 270.547 76.408 271.867 76.408C273.825 76.408 274.793 77.354 274.793 78.96V79.136H271.757C268.193 79.136 266.873 80.676 266.873 82.634C266.873 84.68 268.567 86.154 271.251 86.154C273.011 86.154 274.287 85.582 274.947 84.57V86H277.543V79.114C277.543 75.726 275.585 74.12 272.197 74.12ZM271.823 84.152C270.415 84.152 269.579 83.514 269.579 82.524C269.579 81.666 270.085 80.962 271.955 80.962H274.793V82.326C274.331 83.536 273.165 84.152 271.823 84.152Z" fill="#2B2E83"/>
<circle cx="49" cy="78" r="24" fill="#FCFCFC"/>
<path d="M61.8332 79H36.1665" stroke="#2B2E83" stroke-width="4" stroke-linecap="round" stroke-linejoin="round"/>
<path d="M44.3332 85.4166L36.1665 78.9999L44.3332 72.5833" stroke="#2B2E83" stroke-width="4" stroke-linecap="round" stroke-linejoin="round"/>
<path d="M134.688 308.192C133.547 308.192 132.512 307.947 131.584 307.456C130.667 306.955 129.941 306.267 129.408 305.392C128.885 304.507 128.624 303.509 128.624 302.4C128.624 301.291 128.885 300.299 129.408 299.424C129.941 298.539 130.667 297.851 131.584 297.36C132.512 296.859 133.552 296.608 134.704 296.608C135.675 296.608 136.549 296.779 137.328 297.12C138.117 297.461 138.779 297.952 139.312 298.592L137.648 300.128C136.891 299.253 135.952 298.816 134.832 298.816C134.139 298.816 133.52 298.971 132.976 299.28C132.432 299.579 132.005 300 131.696 300.544C131.397 301.088 131.248 301.707 131.248 302.4C131.248 303.093 131.397 303.712 131.696 304.256C132.005 304.8 132.432 305.227 132.976 305.536C133.52 305.835 134.139 305.984 134.832 305.984C135.952 305.984 136.891 305.541 137.648 304.656L139.312 306.192C138.779 306.843 138.117 307.339 137.328 307.68C136.539 308.021 135.659 308.192 134.688 308.192ZM144.296 299.264C145.629 299.264 146.653 299.584 147.368 300.224C148.083 300.853 148.44 301.808 148.44 303.088V308H146.104V306.928C145.635 307.728 144.76 308.128 143.48 308.128C142.819 308.128 142.243 308.016 141.752 307.792C141.272 307.568 140.904 307.259 140.648 306.864C140.392 306.469 140.264 306.021 140.264 305.52C140.264 304.72 140.563 304.091 141.16 303.632C141.768 303.173 142.701 302.944 143.96 302.944H145.944C145.944 302.4 145.779 301.984 145.448 301.696C145.117 301.397 144.621 301.248 143.96 301.248C143.501 301.248 143.048 301.323 142.6 301.472C142.163 301.611 141.789 301.803 141.48 302.048L140.584 300.304C141.053 299.973 141.613 299.717 142.264 299.536C142.925 299.355 143.603 299.264 144.296 299.264ZM144.104 306.448C144.531 306.448 144.909 306.352 145.24 306.16C145.571 305.957 145.805 305.664 145.944 305.28V304.4H144.232C143.208 304.4 142.696 304.736 142.696 305.408C142.696 305.728 142.819 305.984 143.064 306.176C143.32 306.357 143.667 306.448 144.104 306.448ZM150.699 296.128H153.195V308H150.699V296.128ZM155.511 299.392H158.007V308H155.511V299.392ZM156.759 298.192C156.301 298.192 155.927 298.059 155.639 297.792C155.351 297.525 155.207 297.195 155.207 296.8C155.207 296.405 155.351 296.075 155.639 295.808C155.927 295.541 156.301 295.408 156.759 295.408C157.218 295.408 157.591 295.536 157.879 295.792C158.167 296.048 158.311 296.368 158.311 296.752C158.311 297.168 158.167 297.515 157.879 297.792C157.591 298.059 157.218 298.192 156.759 298.192ZM163.06 299.584H165.268V301.504H163.124V308H160.628V301.504H159.3V299.584H160.628V299.2C160.628 298.219 160.916 297.44 161.492 296.864C162.079 296.288 162.9 296 163.956 296C164.329 296 164.681 296.043 165.012 296.128C165.353 296.203 165.636 296.315 165.86 296.464L165.204 298.272C164.916 298.069 164.58 297.968 164.196 297.968C163.439 297.968 163.06 298.384 163.06 299.216V299.584ZM167.796 299.392H170.292V308H167.796V299.392ZM169.044 298.192C168.585 298.192 168.212 298.059 167.924 297.792C167.636 297.525 167.492 297.195 167.492 296.8C167.492 296.405 167.636 296.075 167.924 295.808C168.212 295.541 168.585 295.408 169.044 295.408C169.503 295.408 169.876 295.536 170.164 295.792C170.452 296.048 170.596 296.368 170.596 296.752C170.596 297.168 170.452 297.515 170.164 297.792C169.876 298.059 169.503 298.192 169.044 298.192ZM176.765 308.128C175.848 308.128 175.021 307.941 174.285 307.568C173.56 307.184 172.989 306.656 172.573 305.984C172.168 305.312 171.965 304.549 171.965 303.696C171.965 302.843 172.168 302.08 172.573 301.408C172.989 300.736 173.56 300.213 174.285 299.84C175.021 299.456 175.848 299.264 176.765 299.264C177.672 299.264 178.461 299.456 179.133 299.84C179.816 300.213 180.312 300.752 180.621 301.456L178.685 302.496C178.237 301.707 177.592 301.312 176.749 301.312C176.098 301.312 175.56 301.525 175.133 301.952C174.706 302.379 174.493 302.96 174.493 303.696C174.493 304.432 174.706 305.013 175.133 305.44C175.56 305.867 176.098 306.08 176.749 306.08C177.602 306.08 178.248 305.685 178.685 304.896L180.621 305.952C180.312 306.635 179.816 307.168 179.133 307.552C178.461 307.936 177.672 308.128 176.765 308.128ZM185.53 299.264C186.864 299.264 187.888 299.584 188.602 300.224C189.317 300.853 189.674 301.808 189.674 303.088V308H187.338V306.928C186.869 307.728 185.994 308.128 184.714 308.128C184.053 308.128 183.477 308.016 182.986 307.792C182.506 307.568 182.138 307.259 181.882 306.864C181.626 306.469 181.498 306.021 181.498 305.52C181.498 304.72 181.797 304.091 182.394 303.632C183.002 303.173 183.936 302.944 185.194 302.944H187.178C187.178 302.4 187.013 301.984 186.682 301.696C186.352 301.397 185.856 301.248 185.194 301.248C184.736 301.248 184.282 301.323 183.834 301.472C183.397 301.611 183.024 301.803 182.714 302.048L181.818 300.304C182.288 299.973 182.848 299.717 183.498 299.536C184.16 299.355 184.837 299.264 185.53 299.264ZM185.338 306.448C185.765 306.448 186.144 306.352 186.474 306.16C186.805 305.957 187.04 305.664 187.178 305.28V304.4H185.466C184.442 304.4 183.93 304.736 183.93 305.408C183.93 305.728 184.053 305.984 184.298 306.176C184.554 306.357 184.901 306.448 185.338 306.448ZM204.897 303.728C204.897 303.76 204.881 303.984 204.849 304.4H198.337C198.454 304.933 198.731 305.355 199.169 305.664C199.606 305.973 200.15 306.128 200.801 306.128C201.249 306.128 201.643 306.064 201.985 305.936C202.337 305.797 202.662 305.584 202.961 305.296L204.289 306.736C203.478 307.664 202.294 308.128 200.737 308.128C199.766 308.128 198.907 307.941 198.161 307.568C197.414 307.184 196.838 306.656 196.433 305.984C196.027 305.312 195.825 304.549 195.825 303.696C195.825 302.853 196.022 302.096 196.417 301.424C196.822 300.741 197.371 300.213 198.065 299.84C198.769 299.456 199.553 299.264 200.417 299.264C201.259 299.264 202.022 299.445 202.705 299.808C203.387 300.171 203.921 300.693 204.305 301.376C204.699 302.048 204.897 302.832 204.897 303.728ZM200.433 301.152C199.867 301.152 199.393 301.312 199.009 301.632C198.625 301.952 198.39 302.389 198.305 302.944H202.545C202.459 302.4 202.225 301.968 201.841 301.648C201.457 301.317 200.987 301.152 200.433 301.152ZM206.558 296.128H209.054V308H206.558V296.128ZM218.798 308.128C218.083 308.128 217.385 308.043 216.702 307.872C216.019 307.691 215.475 307.467 215.07 307.2L215.902 305.408C216.286 305.653 216.75 305.856 217.294 306.016C217.838 306.165 218.371 306.24 218.894 306.24C219.95 306.24 220.478 305.979 220.478 305.456C220.478 305.211 220.334 305.035 220.046 304.928C219.758 304.821 219.315 304.731 218.718 304.656C218.014 304.549 217.433 304.427 216.974 304.288C216.515 304.149 216.115 303.904 215.774 303.552C215.443 303.2 215.278 302.699 215.278 302.048C215.278 301.504 215.433 301.024 215.742 300.608C216.062 300.181 216.521 299.851 217.118 299.616C217.726 299.381 218.441 299.264 219.262 299.264C219.87 299.264 220.473 299.333 221.07 299.472C221.678 299.6 222.179 299.781 222.574 300.016L221.742 301.792C220.985 301.365 220.158 301.152 219.262 301.152C218.729 301.152 218.329 301.227 218.062 301.376C217.795 301.525 217.662 301.717 217.662 301.952C217.662 302.219 217.806 302.405 218.094 302.512C218.382 302.619 218.841 302.72 219.47 302.816C220.174 302.933 220.75 303.061 221.198 303.2C221.646 303.328 222.035 303.568 222.366 303.92C222.697 304.272 222.862 304.763 222.862 305.392C222.862 305.925 222.702 306.4 222.382 306.816C222.062 307.232 221.593 307.557 220.974 307.792C220.366 308.016 219.641 308.128 218.798 308.128ZM232.834 303.728C232.834 303.76 232.818 303.984 232.786 304.4H226.274C226.391 304.933 226.669 305.355 227.106 305.664C227.543 305.973 228.087 306.128 228.738 306.128C229.186 306.128 229.581 306.064 229.922 305.936C230.274 305.797 230.599 305.584 230.898 305.296L232.226 306.736C231.415 307.664 230.231 308.128 228.674 308.128C227.703 308.128 226.845 307.941 226.098 307.568C225.351 307.184 224.775 306.656 224.37 305.984C223.965 305.312 223.762 304.549 223.762 303.696C223.762 302.853 223.959 302.096 224.354 301.424C224.759 300.741 225.309 300.213 226.002 299.84C226.706 299.456 227.49 299.264 228.354 299.264C229.197 299.264 229.959 299.445 230.642 299.808C231.325 300.171 231.858 300.693 232.242 301.376C232.637 302.048 232.834 302.832 232.834 303.728ZM228.37 301.152C227.805 301.152 227.33 301.312 226.946 301.632C226.562 301.952 226.327 302.389 226.242 302.944H230.482C230.397 302.4 230.162 301.968 229.778 301.648C229.394 301.317 228.925 301.152 228.37 301.152ZM236.88 300.528C237.178 300.112 237.578 299.797 238.08 299.584C238.592 299.371 239.178 299.264 239.84 299.264V301.568C239.562 301.547 239.376 301.536 239.28 301.536C238.565 301.536 238.005 301.739 237.6 302.144C237.194 302.539 236.992 303.136 236.992 303.936V308H234.496V299.392H236.88V300.528ZM250.165 299.392L246.533 308H243.957L240.341 299.392H242.917L245.301 305.248L247.765 299.392H250.165ZM251.183 299.392H253.679V308H251.183V299.392ZM252.431 298.192C251.973 298.192 251.599 298.059 251.311 297.792C251.023 297.525 250.879 297.195 250.879 296.8C250.879 296.405 251.023 296.075 251.311 295.808C251.599 295.541 251.973 295.408 252.431 295.408C252.89 295.408 253.263 295.536 253.551 295.792C253.839 296.048 253.983 296.368 253.983 296.752C253.983 297.168 253.839 297.515 253.551 297.792C253.263 298.059 252.89 298.192 252.431 298.192ZM260.156 308.128C259.238 308.128 258.412 307.941 257.676 307.568C256.95 307.184 256.38 306.656 255.964 305.984C255.558 305.312 255.356 304.549 255.356 303.696C255.356 302.843 255.558 302.08 255.964 301.408C256.38 300.736 256.95 300.213 257.676 299.84C258.412 299.456 259.238 299.264 260.156 299.264C261.062 299.264 261.852 299.456 262.524 299.84C263.206 300.213 263.702 300.752 264.012 301.456L262.076 302.496C261.628 301.707 260.982 301.312 260.14 301.312C259.489 301.312 258.95 301.525 258.524 301.952C258.097 302.379 257.884 302.96 257.884 303.696C257.884 304.432 258.097 305.013 258.524 305.44C258.95 305.867 259.489 306.08 260.14 306.08C260.993 306.08 261.638 305.685 262.076 304.896L264.012 305.952C263.702 306.635 263.206 307.168 262.524 307.552C261.852 307.936 261.062 308.128 260.156 308.128ZM265.449 299.392H267.945V308H265.449V299.392ZM266.697 298.192C266.238 298.192 265.865 298.059 265.577 297.792C265.289 297.525 265.145 297.195 265.145 296.8C265.145 296.405 265.289 296.075 265.577 295.808C265.865 295.541 266.238 295.408 266.697 295.408C267.156 295.408 267.529 295.536 267.817 295.792C268.105 296.048 268.249 296.368 268.249 296.752C268.249 297.168 268.105 297.515 267.817 297.792C267.529 298.059 267.156 298.192 266.697 298.192ZM274.357 308.128C273.451 308.128 272.635 307.941 271.909 307.568C271.195 307.184 270.635 306.656 270.229 305.984C269.824 305.312 269.621 304.549 269.621 303.696C269.621 302.843 269.824 302.08 270.229 301.408C270.635 300.736 271.195 300.213 271.909 299.84C272.635 299.456 273.451 299.264 274.357 299.264C275.264 299.264 276.075 299.456 276.789 299.84C277.504 300.213 278.064 300.736 278.469 301.408C278.875 302.08 279.077 302.843 279.077 303.696C279.077 304.549 278.875 305.312 278.469 305.984C278.064 306.656 277.504 307.184 276.789 307.568C276.075 307.941 275.264 308.128 274.357 308.128ZM274.357 306.08C274.997 306.08 275.52 305.867 275.925 305.44C276.341 305.003 276.549 304.421 276.549 303.696C276.549 302.971 276.341 302.395 275.925 301.968C275.52 301.531 274.997 301.312 274.357 301.312C273.717 301.312 273.189 301.531 272.773 301.968C272.357 302.395 272.149 302.971 272.149 303.696C272.149 304.421 272.357 305.003 272.773 305.44C273.189 305.867 273.717 306.08 274.357 306.08Z" fill="#161616"/>
<path d="M139.134 748.128C142.542 748.128 145.07 745.696 145.07 742.4C145.07 739.104 142.542 736.672 139.134 736.672C135.694 736.672 133.166 739.12 133.166 742.4C133.166 745.68 135.694 748.128 139.134 748.128ZM139.134 746.704C136.622 746.704 134.766 744.88 134.766 742.4C134.766 739.92 136.622 738.096 139.134 738.096C141.614 738.096 143.47 739.92 143.47 742.4C143.47 744.88 141.614 746.704 139.134 746.704ZM157.9 739.44C156.46 739.44 155.276 740.048 154.636 741.008C154.076 739.952 152.988 739.44 151.692 739.44C150.412 739.44 149.372 739.92 148.764 740.784V739.52H147.292V748H148.828V743.632C148.828 741.792 149.836 740.816 151.372 740.816C152.764 740.816 153.564 741.632 153.564 743.296V748H155.1V743.632C155.1 741.792 156.108 740.816 157.644 740.816C159.036 740.816 159.836 741.632 159.836 743.296V748H161.372V743.12C161.372 740.624 159.964 739.44 157.9 739.44ZM164.966 737.888C165.574 737.888 166.006 737.44 166.006 736.864C166.006 736.32 165.558 735.888 164.966 735.888C164.374 735.888 163.926 736.336 163.926 736.896C163.926 737.456 164.374 737.888 164.966 737.888ZM164.198 748H165.734V739.52H164.198V748ZM172.955 746.4C172.635 746.656 172.203 746.8 171.755 746.8C170.907 746.8 170.427 746.288 170.427 745.376V740.784H172.859V739.52H170.427V737.664H168.891V739.52H167.451V740.784H168.891V745.44C168.891 747.152 169.867 748.096 171.579 748.096C172.267 748.096 172.971 747.904 173.435 747.504L172.955 746.4ZM176.06 737.888C176.668 737.888 177.1 737.44 177.1 736.864C177.1 736.32 176.652 735.888 176.06 735.888C175.468 735.888 175.02 736.336 175.02 736.896C175.02 737.456 175.468 737.888 176.06 737.888ZM175.292 748H176.828V739.52H175.292V748ZM181.233 740.944V739.52H179.761V748H181.297V743.776C181.297 741.92 182.321 740.912 183.969 740.912C184.081 740.912 184.193 740.912 184.321 740.928V739.44C182.833 739.44 181.777 739.952 181.233 740.944ZM194.316 748.096C195.836 748.096 197.1 747.456 197.772 746.272L196.604 745.536C196.06 746.368 195.228 746.752 194.3 746.752C192.636 746.752 191.388 745.6 191.388 743.76C191.388 741.952 192.636 740.784 194.3 740.784C195.228 740.784 196.06 741.168 196.604 742L197.772 741.248C197.1 740.064 195.836 739.44 194.316 739.44C191.708 739.44 189.836 741.232 189.836 743.76C189.836 746.288 191.708 748.096 194.316 748.096ZM202.849 739.44C201.489 739.44 200.225 739.824 199.345 740.528L199.985 741.68C200.641 741.12 201.665 740.768 202.673 740.768C204.193 740.768 204.945 741.52 204.945 742.816V743.12H202.513C199.985 743.12 199.105 744.24 199.105 745.6C199.105 747.072 200.321 748.096 202.241 748.096C203.569 748.096 204.513 747.648 205.025 746.88V748H206.481V742.88C206.481 740.56 205.169 739.44 202.849 739.44ZM202.497 746.912C201.329 746.912 200.625 746.384 200.625 745.536C200.625 744.816 201.057 744.224 202.577 744.224H204.945V745.408C204.561 746.384 203.649 746.912 202.497 746.912ZM209.323 748H210.859V736.128H209.323V748ZM214.56 737.888C215.168 737.888 215.6 737.44 215.6 736.864C215.6 736.32 215.152 735.888 214.56 735.888C213.968 735.888 213.52 736.336 213.52 736.896C213.52 737.456 213.968 737.888 214.56 737.888ZM213.792 748H215.328V739.52H213.792V748ZM225.957 737.888C226.565 737.888 226.997 737.44 226.997 736.864C226.997 736.32 226.549 735.888 225.957 735.888C225.365 735.888 224.917 736.336 224.917 736.896C224.917 737.456 225.365 737.888 225.957 737.888ZM218.485 738.768V739.52H217.045V740.784H218.485V748H220.021V740.784H222.453V739.52H219.989V738.784C219.989 737.808 220.453 737.296 221.365 737.296C221.813 737.296 222.229 737.456 222.549 737.696L223.013 736.528C222.581 736.192 221.941 736.032 221.285 736.032C219.477 736.032 218.485 737.12 218.485 738.768ZM225.189 748H226.725V739.52H225.189V748ZM233.347 748.096C234.867 748.096 236.131 747.456 236.803 746.272L235.635 745.536C235.091 746.368 234.259 746.752 233.331 746.752C231.667 746.752 230.419 745.6 230.419 743.76C230.419 741.952 231.667 740.784 233.331 740.784C234.259 740.784 235.091 741.168 235.635 742L236.803 741.248C236.131 740.064 234.867 739.44 233.347 739.44C230.739 739.44 228.867 741.232 228.867 743.76C228.867 746.288 230.739 748.096 233.347 748.096ZM241.88 739.44C240.52 739.44 239.256 739.824 238.376 740.528L239.016 741.68C239.672 741.12 240.696 740.768 241.704 740.768C243.224 740.768 243.976 741.52 243.976 742.816V743.12H241.544C239.016 743.12 238.136 744.24 238.136 745.6C238.136 747.072 239.352 748.096 241.272 748.096C242.6 748.096 243.544 747.648 244.056 746.88V748H245.512V742.88C245.512 740.56 244.2 739.44 241.88 739.44ZM241.528 746.912C240.36 746.912 239.656 746.384 239.656 745.536C239.656 744.816 240.088 744.224 241.608 744.224H243.976V745.408C243.592 746.384 242.68 746.912 241.528 746.912ZM252.097 748.096C253.617 748.096 254.881 747.456 255.553 746.272L254.385 745.536C253.841 746.368 253.009 746.752 252.081 746.752C250.417 746.752 249.169 745.6 249.169 743.76C249.169 741.952 250.417 740.784 252.081 740.784C253.009 740.784 253.841 741.168 254.385 742L255.553 741.248C254.881 740.064 253.617 739.44 252.097 739.44C249.489 739.44 247.617 741.232 247.617 743.76C247.617 746.288 249.489 748.096 252.097 748.096ZM258.31 737.888C258.918 737.888 259.35 737.44 259.35 736.864C259.35 736.32 258.902 735.888 258.31 735.888C257.718 735.888 257.27 736.336 257.27 736.896C257.27 737.456 257.718 737.888 258.31 737.888ZM257.542 748H259.078V739.52H257.542V748ZM264.427 738.288H265.867L268.555 736.208H266.603L264.427 738.288ZM265.643 748.096C268.187 748.096 270.043 746.288 270.043 743.76C270.043 741.232 268.187 739.44 265.643 739.44C263.099 739.44 261.227 741.232 261.227 743.76C261.227 746.288 263.099 748.096 265.643 748.096ZM265.643 746.752C264.011 746.752 262.779 745.568 262.779 743.76C262.779 741.952 264.011 740.784 265.643 740.784C267.275 740.784 268.491 741.952 268.491 743.76C268.491 745.568 267.275 746.752 265.643 746.752ZM276.695 739.44C275.351 739.44 274.263 739.936 273.639 740.8V739.52H272.167V748H273.703V743.632C273.703 741.792 274.759 740.816 276.391 740.816C277.847 740.816 278.679 741.632 278.679 743.296V748H280.215V743.12C280.215 740.624 278.759 739.44 276.695 739.44Z" fill="#161616"/>
<path d="M132.398 749.6H281.607V750.4H132.398V749.6Z" fill="#161616"/>
<rect x="32.5" y="399.5" width="349" height="132" rx="9.5" fill="#EFEFEF"/>
<path d="M58.295 420.195H52.445L51.185 423H50.03L54.83 412.5H55.925L60.725 423H59.555L58.295 420.195ZM57.89 419.295L55.37 413.655L52.85 419.295H57.89ZM68.4714 415.11L64.5264 423.945C64.2064 424.685 63.8364 425.21 63.4164 425.52C62.9964 425.83 62.4914 425.985 61.9014 425.985C61.5214 425.985 61.1664 425.925 60.8364 425.805C60.5064 425.685 60.2214 425.505 59.9814 425.265L60.4764 424.47C60.8764 424.87 61.3564 425.07 61.9164 425.07C62.2764 425.07 62.5814 424.97 62.8314 424.77C63.0914 424.57 63.3314 424.23 63.5514 423.75L63.8964 422.985L60.3714 415.11H61.4814L64.4514 421.815L67.4214 415.11H68.4714ZM77.0813 415.11V423H76.0613V421.56C75.7813 422.04 75.3963 422.415 74.9063 422.685C74.4163 422.945 73.8563 423.075 73.2263 423.075C72.1963 423.075 71.3813 422.79 70.7813 422.22C70.1913 421.64 69.8963 420.795 69.8963 419.685V415.11H70.9613V419.58C70.9613 420.41 71.1663 421.04 71.5763 421.47C71.9863 421.9 72.5713 422.115 73.3313 422.115C74.1613 422.115 74.8163 421.865 75.2963 421.365C75.7763 420.855 76.0163 420.15 76.0163 419.25V415.11H77.0813ZM74.5763 412.02H76.0013L73.5713 413.88H72.5213L74.5763 412.02ZM87.2641 411.87V423H86.2441V421.44C85.9241 421.97 85.4991 422.375 84.9691 422.655C84.4491 422.935 83.8591 423.075 83.1991 423.075C82.4591 423.075 81.7891 422.905 81.1891 422.565C80.5891 422.225 80.1191 421.75 79.7791 421.14C79.4391 420.53 79.2691 419.835 79.2691 419.055C79.2691 418.275 79.4391 417.58 79.7791 416.97C80.1191 416.36 80.5891 415.89 81.1891 415.56C81.7891 415.22 82.4591 415.05 83.1991 415.05C83.8391 415.05 84.4141 415.185 84.9241 415.455C85.4441 415.715 85.8691 416.1 86.1991 416.61V411.87H87.2641ZM83.2891 422.13C83.8391 422.13 84.3341 422.005 84.7741 421.755C85.2241 421.495 85.5741 421.13 85.8241 420.66C86.0841 420.19 86.2141 419.655 86.2141 419.055C86.2141 418.455 86.0841 417.92 85.8241 417.45C85.5741 416.98 85.2241 416.62 84.7741 416.37C84.3341 416.11 83.8391 415.98 83.2891 415.98C82.7291 415.98 82.2241 416.11 81.7741 416.37C81.3341 416.62 80.9841 416.98 80.7241 417.45C80.4741 417.92 80.3491 418.455 80.3491 419.055C80.3491 419.655 80.4741 420.19 80.7241 420.66C80.9841 421.13 81.3341 421.495 81.7741 421.755C82.2241 422.005 82.7291 422.13 83.2891 422.13ZM92.9901 415.05C94.0201 415.05 94.8101 415.31 95.3601 415.83C95.9101 416.34 96.1851 417.1 96.1851 418.11V423H95.1651V421.77C94.9251 422.18 94.5701 422.5 94.1001 422.73C93.6401 422.96 93.0901 423.075 92.4501 423.075C91.5701 423.075 90.8701 422.865 90.3501 422.445C89.8301 422.025 89.5701 421.47 89.5701 420.78C89.5701 420.11 89.8101 419.57 90.2901 419.16C90.7801 418.75 91.5551 418.545 92.6151 418.545H95.1201V418.065C95.1201 417.385 94.9301 416.87 94.5501 416.52C94.1701 416.16 93.6151 415.98 92.8851 415.98C92.3851 415.98 91.9051 416.065 91.4451 416.235C90.9851 416.395 90.5901 416.62 90.2601 416.91L89.7801 416.115C90.1801 415.775 90.6601 415.515 91.2201 415.335C91.7801 415.145 92.3701 415.05 92.9901 415.05ZM92.6151 422.235C93.2151 422.235 93.7301 422.1 94.1601 421.83C94.5901 421.55 94.9101 421.15 95.1201 420.63V419.34H92.6451C91.2951 419.34 90.6201 419.81 90.6201 420.75C90.6201 421.21 90.7951 421.575 91.1451 421.845C91.4951 422.105 91.9851 422.235 92.6151 422.235ZM103.098 415.05C104.088 415.05 104.873 415.34 105.453 415.92C106.043 416.49 106.338 417.325 106.338 418.425V423H105.273V418.53C105.273 417.71 105.068 417.085 104.658 416.655C104.248 416.225 103.663 416.01 102.903 416.01C102.053 416.01 101.378 416.265 100.878 416.775C100.388 417.275 100.143 417.97 100.143 418.86V423H99.0778V415.11H100.098V416.565C100.388 416.085 100.788 415.715 101.298 415.455C101.818 415.185 102.418 415.05 103.098 415.05ZM112.483 423.075C111.723 423.075 111.038 422.905 110.428 422.565C109.818 422.215 109.338 421.735 108.988 421.125C108.638 420.515 108.463 419.825 108.463 419.055C108.463 418.285 108.638 417.595 108.988 416.985C109.338 416.375 109.818 415.9 110.428 415.56C111.038 415.22 111.723 415.05 112.483 415.05C113.243 415.05 113.928 415.22 114.538 415.56C115.148 415.9 115.623 416.375 115.963 416.985C116.313 417.595 116.488 418.285 116.488 419.055C116.488 419.825 116.313 420.515 115.963 421.125C115.623 421.735 115.148 422.215 114.538 422.565C113.928 422.905 113.243 423.075 112.483 423.075ZM112.483 422.13C113.043 422.13 113.543 422.005 113.983 421.755C114.433 421.495 114.783 421.13 115.033 420.66C115.283 420.19 115.408 419.655 115.408 419.055C115.408 418.455 115.283 417.92 115.033 417.45C114.783 416.98 114.433 416.62 113.983 416.37C113.543 416.11 113.043 415.98 112.483 415.98C111.923 415.98 111.418 416.11 110.968 416.37C110.528 416.62 110.178 416.98 109.918 417.45C109.668 417.92 109.543 418.455 109.543 419.055C109.543 419.655 109.668 420.19 109.918 420.66C110.178 421.13 110.528 421.495 110.968 421.755C111.418 422.005 111.923 422.13 112.483 422.13ZM120.778 423.075C120.138 423.075 119.523 422.985 118.933 422.805C118.353 422.615 117.898 422.38 117.568 422.1L118.048 421.26C118.378 421.52 118.793 421.735 119.293 421.905C119.793 422.065 120.313 422.145 120.853 422.145C121.573 422.145 122.103 422.035 122.443 421.815C122.793 421.585 122.968 421.265 122.968 420.855C122.968 420.565 122.873 420.34 122.683 420.18C122.493 420.01 122.253 419.885 121.963 419.805C121.673 419.715 121.288 419.63 120.808 419.55C120.168 419.43 119.653 419.31 119.263 419.19C118.873 419.06 118.538 418.845 118.258 418.545C117.988 418.245 117.853 417.83 117.853 417.3C117.853 416.64 118.128 416.1 118.678 415.68C119.228 415.26 119.993 415.05 120.973 415.05C121.483 415.05 121.993 415.12 122.503 415.26C123.013 415.39 123.433 415.565 123.763 415.785L123.298 416.64C122.648 416.19 121.873 415.965 120.973 415.965C120.293 415.965 119.778 416.085 119.428 416.325C119.088 416.565 118.918 416.88 118.918 417.27C118.918 417.57 119.013 417.81 119.203 417.99C119.403 418.17 119.648 418.305 119.938 418.395C120.228 418.475 120.628 418.56 121.138 418.65C121.768 418.77 122.273 418.89 122.653 419.01C123.033 419.13 123.358 419.335 123.628 419.625C123.898 419.915 124.033 420.315 124.033 420.825C124.033 421.515 123.743 422.065 123.163 422.475C122.593 422.875 121.798 423.075 120.778 423.075ZM132.687 415.05C133.717 415.05 134.507 415.31 135.057 415.83C135.607 416.34 135.882 417.1 135.882 418.11V423H134.862V421.77C134.622 422.18 134.267 422.5 133.797 422.73C133.337 422.96 132.787 423.075 132.147 423.075C131.267 423.075 130.567 422.865 130.047 422.445C129.527 422.025 129.267 421.47 129.267 420.78C129.267 420.11 129.507 419.57 129.987 419.16C130.477 418.75 131.252 418.545 132.312 418.545H134.817V418.065C134.817 417.385 134.627 416.87 134.247 416.52C133.867 416.16 133.312 415.98 132.582 415.98C132.082 415.98 131.602 416.065 131.142 416.235C130.682 416.395 130.287 416.62 129.957 416.91L129.477 416.115C129.877 415.775 130.357 415.515 130.917 415.335C131.477 415.145 132.067 415.05 132.687 415.05ZM132.312 422.235C132.912 422.235 133.427 422.1 133.857 421.83C134.287 421.55 134.607 421.15 134.817 420.63V419.34H132.342C130.992 419.34 130.317 419.81 130.317 420.75C130.317 421.21 130.492 421.575 130.842 421.845C131.192 422.105 131.682 422.235 132.312 422.235ZM152.541 415.05C153.531 415.05 154.306 415.335 154.866 415.905C155.436 416.475 155.721 417.315 155.721 418.425V423H154.656V418.53C154.656 417.71 154.456 417.085 154.056 416.655C153.666 416.225 153.111 416.01 152.391 416.01C151.571 416.01 150.926 416.265 150.456 416.775C149.986 417.275 149.751 417.97 149.751 418.86V423H148.686V418.53C148.686 417.71 148.486 417.085 148.086 416.655C147.696 416.225 147.136 416.01 146.406 416.01C145.596 416.01 144.951 416.265 144.471 416.775C144.001 417.275 143.766 417.97 143.766 418.86V423H142.701V415.11H143.721V416.55C144.001 416.07 144.391 415.7 144.891 415.44C145.391 415.18 145.966 415.05 146.616 415.05C147.276 415.05 147.846 415.19 148.326 415.47C148.816 415.75 149.181 416.165 149.421 416.715C149.711 416.195 150.126 415.79 150.666 415.5C151.216 415.2 151.841 415.05 152.541 415.05ZM165.508 419.385H158.908C158.968 420.205 159.283 420.87 159.853 421.38C160.423 421.88 161.143 422.13 162.013 422.13C162.503 422.13 162.953 422.045 163.363 421.875C163.773 421.695 164.128 421.435 164.428 421.095L165.028 421.785C164.678 422.205 164.238 422.525 163.708 422.745C163.188 422.965 162.613 423.075 161.983 423.075C161.173 423.075 160.453 422.905 159.823 422.565C159.203 422.215 158.718 421.735 158.368 421.125C158.018 420.515 157.843 419.825 157.843 419.055C157.843 418.285 158.008 417.595 158.338 416.985C158.678 416.375 159.138 415.9 159.718 415.56C160.308 415.22 160.968 415.05 161.698 415.05C162.428 415.05 163.083 415.22 163.663 415.56C164.243 415.9 164.698 416.375 165.028 416.985C165.358 417.585 165.523 418.275 165.523 419.055L165.508 419.385ZM161.698 415.965C160.938 415.965 160.298 416.21 159.778 416.7C159.268 417.18 158.978 417.81 158.908 418.59H164.503C164.433 417.81 164.138 417.18 163.618 416.7C163.108 416.21 162.468 415.965 161.698 415.965ZM166.521 425.985C166.191 425.985 165.881 425.94 165.591 425.85C165.291 425.77 165.046 425.645 164.856 425.475L165.231 424.665C165.541 424.935 165.951 425.07 166.461 425.07C166.881 425.07 167.201 424.945 167.421 424.695C167.651 424.445 167.766 424.075 167.766 423.585V415.11H168.831V423.585C168.831 424.325 168.631 424.91 168.231 425.34C167.831 425.77 167.261 425.985 166.521 425.985ZM168.306 413.37C168.086 413.37 167.901 413.295 167.751 413.145C167.601 412.995 167.526 412.815 167.526 412.605C167.526 412.405 167.601 412.23 167.751 412.08C167.901 411.93 168.086 411.855 168.306 411.855C168.526 411.855 168.711 411.93 168.861 412.08C169.011 412.22 169.086 412.39 169.086 412.59C169.086 412.81 169.011 412.995 168.861 413.145C168.711 413.295 168.526 413.37 168.306 413.37ZM175.032 423.075C174.272 423.075 173.587 422.905 172.977 422.565C172.367 422.215 171.887 421.735 171.537 421.125C171.187 420.515 171.012 419.825 171.012 419.055C171.012 418.285 171.187 417.595 171.537 416.985C171.887 416.375 172.367 415.9 172.977 415.56C173.587 415.22 174.272 415.05 175.032 415.05C175.792 415.05 176.477 415.22 177.087 415.56C177.697 415.9 178.172 416.375 178.512 416.985C178.862 417.595 179.037 418.285 179.037 419.055C179.037 419.825 178.862 420.515 178.512 421.125C178.172 421.735 177.697 422.215 177.087 422.565C176.477 422.905 175.792 423.075 175.032 423.075ZM175.032 422.13C175.592 422.13 176.092 422.005 176.532 421.755C176.982 421.495 177.332 421.13 177.582 420.66C177.832 420.19 177.957 419.655 177.957 419.055C177.957 418.455 177.832 417.92 177.582 417.45C177.332 416.98 176.982 416.62 176.532 416.37C176.092 416.11 175.592 415.98 175.032 415.98C174.472 415.98 173.967 416.11 173.517 416.37C173.077 416.62 172.727 416.98 172.467 417.45C172.217 417.92 172.092 418.455 172.092 419.055C172.092 419.655 172.217 420.19 172.467 420.66C172.727 421.13 173.077 421.495 173.517 421.755C173.967 422.005 174.472 422.13 175.032 422.13ZM182.232 416.655C182.482 416.125 182.852 415.725 183.342 415.455C183.842 415.185 184.457 415.05 185.187 415.05V416.085L184.932 416.07C184.102 416.07 183.452 416.325 182.982 416.835C182.512 417.345 182.277 418.06 182.277 418.98V423H181.212V415.11H182.232V416.655ZM189.86 415.05C190.89 415.05 191.68 415.31 192.23 415.83C192.78 416.34 193.055 417.1 193.055 418.11V423H192.035V421.77C191.795 422.18 191.44 422.5 190.97 422.73C190.51 422.96 189.96 423.075 189.32 423.075C188.44 423.075 187.74 422.865 187.22 422.445C186.7 422.025 186.44 421.47 186.44 420.78C186.44 420.11 186.68 419.57 187.16 419.16C187.65 418.75 188.425 418.545 189.485 418.545H191.99V418.065C191.99 417.385 191.8 416.87 191.42 416.52C191.04 416.16 190.485 415.98 189.755 415.98C189.255 415.98 188.775 416.065 188.315 416.235C187.855 416.395 187.46 416.62 187.13 416.91L186.65 416.115C187.05 415.775 187.53 415.515 188.09 415.335C188.65 415.145 189.24 415.05 189.86 415.05ZM189.485 422.235C190.085 422.235 190.6 422.1 191.03 421.83C191.46 421.55 191.78 421.15 191.99 420.63V419.34H189.515C188.165 419.34 187.49 419.81 187.49 420.75C187.49 421.21 187.665 421.575 188.015 421.845C188.365 422.105 188.855 422.235 189.485 422.235ZM196.968 416.655C197.218 416.125 197.588 415.725 198.078 415.455C198.578 415.185 199.193 415.05 199.923 415.05V416.085L199.668 416.07C198.838 416.07 198.188 416.325 197.718 416.835C197.248 417.345 197.013 418.06 197.013 418.98V423H195.948V415.11H196.968V416.655ZM212.764 419.385H206.164C206.224 420.205 206.539 420.87 207.109 421.38C207.679 421.88 208.399 422.13 209.269 422.13C209.759 422.13 210.209 422.045 210.619 421.875C211.029 421.695 211.384 421.435 211.684 421.095L212.284 421.785C211.934 422.205 211.494 422.525 210.964 422.745C210.444 422.965 209.869 423.075 209.239 423.075C208.429 423.075 207.709 422.905 207.079 422.565C206.459 422.215 205.974 421.735 205.624 421.125C205.274 420.515 205.099 419.825 205.099 419.055C205.099 418.285 205.264 417.595 205.594 416.985C205.934 416.375 206.394 415.9 206.974 415.56C207.564 415.22 208.224 415.05 208.954 415.05C209.684 415.05 210.339 415.22 210.919 415.56C211.499 415.9 211.954 416.375 212.284 416.985C212.614 417.585 212.779 418.275 212.779 419.055L212.764 419.385ZM208.954 415.965C208.194 415.965 207.554 416.21 207.034 416.7C206.524 417.18 206.234 417.81 206.164 418.59H211.759C211.689 417.81 211.394 417.18 210.874 416.7C210.364 416.21 209.724 415.965 208.954 415.965ZM214.947 411.87H216.012V423H214.947V411.87ZM225.016 423.075C224.376 423.075 223.761 422.985 223.171 422.805C222.591 422.615 222.136 422.38 221.806 422.1L222.286 421.26C222.616 421.52 223.031 421.735 223.531 421.905C224.031 422.065 224.551 422.145 225.091 422.145C225.811 422.145 226.341 422.035 226.681 421.815C227.031 421.585 227.206 421.265 227.206 420.855C227.206 420.565 227.111 420.34 226.921 420.18C226.731 420.01 226.491 419.885 226.201 419.805C225.911 419.715 225.526 419.63 225.046 419.55C224.406 419.43 223.891 419.31 223.501 419.19C223.111 419.06 222.776 418.845 222.496 418.545C222.226 418.245 222.091 417.83 222.091 417.3C222.091 416.64 222.366 416.1 222.916 415.68C223.466 415.26 224.231 415.05 225.211 415.05C225.721 415.05 226.231 415.12 226.741 415.26C227.251 415.39 227.671 415.565 228.001 415.785L227.536 416.64C226.886 416.19 226.111 415.965 225.211 415.965C224.531 415.965 224.016 416.085 223.666 416.325C223.326 416.565 223.156 416.88 223.156 417.27C223.156 417.57 223.251 417.81 223.441 417.99C223.641 418.17 223.886 418.305 224.176 418.395C224.466 418.475 224.866 418.56 225.376 418.65C226.006 418.77 226.511 418.89 226.891 419.01C227.271 419.13 227.596 419.335 227.866 419.625C228.136 419.915 228.271 420.315 228.271 420.825C228.271 421.515 227.981 422.065 227.401 422.475C226.831 422.875 226.036 423.075 225.016 423.075ZM237.11 419.385H230.51C230.57 420.205 230.885 420.87 231.455 421.38C232.025 421.88 232.745 422.13 233.615 422.13C234.105 422.13 234.555 422.045 234.965 421.875C235.375 421.695 235.73 421.435 236.03 421.095L236.63 421.785C236.28 422.205 235.84 422.525 235.31 422.745C234.79 422.965 234.215 423.075 233.585 423.075C232.775 423.075 232.055 422.905 231.425 422.565C230.805 422.215 230.32 421.735 229.97 421.125C229.62 420.515 229.445 419.825 229.445 419.055C229.445 418.285 229.61 417.595 229.94 416.985C230.28 416.375 230.74 415.9 231.32 415.56C231.91 415.22 232.57 415.05 233.3 415.05C234.03 415.05 234.685 415.22 235.265 415.56C235.845 415.9 236.3 416.375 236.63 416.985C236.96 417.585 237.125 418.275 237.125 419.055L237.11 419.385ZM233.3 415.965C232.54 415.965 231.9 416.21 231.38 416.7C230.87 417.18 230.58 417.81 230.51 418.59H236.105C236.035 417.81 235.74 417.18 235.22 416.7C234.71 416.21 234.07 415.965 233.3 415.965ZM240.313 416.655C240.563 416.125 240.933 415.725 241.423 415.455C241.923 415.185 242.538 415.05 243.268 415.05V416.085L243.013 416.07C242.183 416.07 241.533 416.325 241.063 416.835C240.593 417.345 240.358 418.06 240.358 418.98V423H239.293V415.11H240.313V416.655ZM252.163 415.11L248.653 423H247.558L244.063 415.11H245.173L248.128 421.83L251.113 415.11H252.163ZM253.663 415.11H254.728V423H253.663V415.11ZM254.203 413.385C253.983 413.385 253.798 413.31 253.648 413.16C253.498 413.01 253.423 412.83 253.423 412.62C253.423 412.42 253.498 412.245 253.648 412.095C253.798 411.945 253.983 411.87 254.203 411.87C254.423 411.87 254.608 411.945 254.758 412.095C254.908 412.235 254.983 412.405 254.983 412.605C254.983 412.825 254.908 413.01 254.758 413.16C254.608 413.31 254.423 413.385 254.203 413.385ZM260.961 423.075C260.181 423.075 259.481 422.905 258.861 422.565C258.251 422.225 257.771 421.75 257.421 421.14C257.071 420.52 256.896 419.825 256.896 419.055C256.896 418.285 257.071 417.595 257.421 416.985C257.771 416.375 258.251 415.9 258.861 415.56C259.481 415.22 260.181 415.05 260.961 415.05C261.641 415.05 262.246 415.185 262.776 415.455C263.316 415.715 263.741 416.1 264.051 416.61L263.256 417.15C262.996 416.76 262.666 416.47 262.266 416.28C261.866 416.08 261.431 415.98 260.961 415.98C260.391 415.98 259.876 416.11 259.416 416.37C258.966 416.62 258.611 416.98 258.351 417.45C258.101 417.92 257.976 418.455 257.976 419.055C257.976 419.665 258.101 420.205 258.351 420.675C258.611 421.135 258.966 421.495 259.416 421.755C259.876 422.005 260.391 422.13 260.961 422.13C261.431 422.13 261.866 422.035 262.266 421.845C262.666 421.655 262.996 421.365 263.256 420.975L264.051 421.515C263.741 422.025 263.316 422.415 262.776 422.685C262.236 422.945 261.631 423.075 260.961 423.075ZM266.143 415.11H267.208V423H266.143V415.11ZM266.683 413.385C266.463 413.385 266.278 413.31 266.128 413.16C265.978 413.01 265.903 412.83 265.903 412.62C265.903 412.42 265.978 412.245 266.128 412.095C266.278 411.945 266.463 411.87 266.683 411.87C266.903 411.87 267.088 411.945 267.238 412.095C267.388 412.235 267.463 412.405 267.463 412.605C267.463 412.825 267.388 413.01 267.238 413.16C267.088 413.31 266.903 413.385 266.683 413.385ZM273.397 423.075C272.637 423.075 271.952 422.905 271.342 422.565C270.732 422.215 270.252 421.735 269.902 421.125C269.552 420.515 269.377 419.825 269.377 419.055C269.377 418.285 269.552 417.595 269.902 416.985C270.252 416.375 270.732 415.9 271.342 415.56C271.952 415.22 272.637 415.05 273.397 415.05C274.157 415.05 274.842 415.22 275.452 415.56C276.062 415.9 276.537 416.375 276.877 416.985C277.227 417.595 277.402 418.285 277.402 419.055C277.402 419.825 277.227 420.515 276.877 421.125C276.537 421.735 276.062 422.215 275.452 422.565C274.842 422.905 274.157 423.075 273.397 423.075ZM273.397 422.13C273.957 422.13 274.457 422.005 274.897 421.755C275.347 421.495 275.697 421.13 275.947 420.66C276.197 420.19 276.322 419.655 276.322 419.055C276.322 418.455 276.197 417.92 275.947 417.45C275.697 416.98 275.347 416.62 274.897 416.37C274.457 416.11 273.957 415.98 273.397 415.98C272.837 415.98 272.332 416.11 271.882 416.37C271.442 416.62 271.092 416.98 270.832 417.45C270.582 417.92 270.457 418.455 270.457 419.055C270.457 419.655 270.582 420.19 270.832 420.66C271.092 421.13 271.442 421.495 271.882 421.755C272.332 422.005 272.837 422.13 273.397 422.13Z" fill="#828282"/>
<rect x="32.5" y="399.5" width="349" height="132" rx="9.5" stroke="#BDBDBD"/>
<g clip-path="url(#clip1_65_511)">
<path d="M113.5 332L119.231 343.314L132.046 345.129L122.773 353.936L124.962 366.371L113.5 360.5L102.038 366.371L104.227 353.936L94.9544 345.129L107.769 343.314L113.5 332Z" fill="#A8CC50"/>
<path d="M162.5 332L168.231 343.314L181.046 345.129L171.773 353.936L173.962 366.371L162.5 360.5L151.038 366.371L153.227 353.936L143.954 345.129L156.769 343.314L162.5 332Z" fill="#A8CC50"/>
<path d="M211 332L216.584 343.314L229.07 345.129L220.035 353.936L222.168 366.371L211 360.5L199.832 366.371L201.965 353.936L192.93 345.129L205.416 343.314L211 332Z" fill="#A8CC50"/>
<path d="M259 332L264.584 343.314L277.07 345.129L268.035 353.936L270.168 366.371L259 360.5L247.832 366.371L249.965 353.936L240.93 345.129L253.416 343.314L259 332Z" fill="#A8CC50"/>
<path d="M307.5 332L313.231 343.314L326.046 345.129L316.773 353.936L318.962 366.371L307.5 360.5L296.038 366.371L298.227 353.936L288.954 345.129L301.769 343.314L307.5 332Z" fill="#A8CC50"/>
</g>
<rect x="31" y="664" width="350" height="54" rx="10" fill="#2B2E83"/>
<path d="M175.024 697.18C177.094 697.18 178.858 696.442 180.028 695.074L178.516 693.634C177.598 694.642 176.464 695.128 175.15 695.128C172.54 695.128 170.65 693.292 170.65 690.7C170.65 688.108 172.54 686.272 175.15 686.272C176.464 686.272 177.598 686.758 178.516 687.748L180.028 686.326C178.858 684.958 177.094 684.22 175.042 684.22C171.172 684.22 168.292 686.938 168.292 690.7C168.292 694.462 171.172 697.18 175.024 697.18ZM185.638 687.28C184.09 687.28 182.596 687.676 181.57 688.468L182.452 690.106C183.172 689.512 184.288 689.152 185.368 689.152C186.97 689.152 187.762 689.926 187.762 691.24V691.384H185.278C182.362 691.384 181.282 692.644 181.282 694.246C181.282 695.92 182.668 697.126 184.864 697.126C186.304 697.126 187.348 696.658 187.888 695.83V697H190.012V691.366C190.012 688.594 188.41 687.28 185.638 687.28ZM185.332 695.488C184.18 695.488 183.496 694.966 183.496 694.156C183.496 693.454 183.91 692.878 185.44 692.878H187.762V693.994C187.384 694.984 186.43 695.488 185.332 695.488ZM192.9 697H195.15V683.644H192.9V697ZM199.237 685.804C200.083 685.804 200.677 685.192 200.677 684.4C200.677 683.662 200.065 683.104 199.237 683.104C198.409 683.104 197.797 683.698 197.797 684.454C197.797 685.21 198.409 685.804 199.237 685.804ZM198.103 697H200.353V687.388H198.103V697ZM207.212 685.336C207.68 685.336 208.112 685.498 208.454 685.732L209.084 684.04C208.58 683.68 207.824 683.518 207.05 683.518C204.818 683.518 203.612 684.832 203.612 686.848V687.46H202.028V689.26H203.612V697H205.862V689.26H208.436V687.46H205.79V686.884C205.79 685.858 206.276 685.336 207.212 685.336ZM212.526 685.804C213.372 685.804 213.966 685.192 213.966 684.4C213.966 683.662 213.354 683.104 212.526 683.104C211.698 683.104 211.086 683.698 211.086 684.454C211.086 685.21 211.698 685.804 212.526 685.804ZM211.392 697H213.642V687.388H211.392V697ZM221.005 697.126C222.877 697.126 224.371 696.316 225.109 694.876L223.381 693.868C222.805 694.786 221.941 695.2 220.987 695.2C219.331 695.2 218.071 694.066 218.071 692.194C218.071 690.34 219.331 689.188 220.987 689.188C221.941 689.188 222.805 689.602 223.381 690.52L225.109 689.512C224.371 688.054 222.877 687.28 221.005 687.28C217.963 687.28 215.803 689.314 215.803 692.194C215.803 695.074 217.963 697.126 221.005 697.126ZM230.726 687.28C229.178 687.28 227.684 687.676 226.658 688.468L227.54 690.106C228.26 689.512 229.376 689.152 230.456 689.152C232.058 689.152 232.85 689.926 232.85 691.24V691.384H230.366C227.45 691.384 226.37 692.644 226.37 694.246C226.37 695.92 227.756 697.126 229.952 697.126C231.392 697.126 232.436 696.658 232.976 695.83V697H235.1V691.366C235.1 688.594 233.498 687.28 230.726 687.28ZM230.42 695.488C229.268 695.488 228.584 694.966 228.584 694.156C228.584 693.454 228.998 692.878 230.528 692.878H232.85V693.994C232.472 694.984 231.518 695.488 230.42 695.488ZM240.13 688.792V687.388H237.988V697H240.238V692.338C240.238 690.376 241.318 689.368 243.028 689.368C243.19 689.368 243.352 689.386 243.55 689.422V687.28C241.948 687.28 240.778 687.784 240.13 688.792Z" fill="#FCFCFC"/>
<rect x="32" y="144" width="350" height="108" rx="10" fill="#EFEFEF"/>
<rect x="42" y="157" width="84" height="82" rx="10" fill="#7C828B"/>
<path d="M156.96 186.76H149.96L148.58 190H145.9L152.2 176H154.76L161.08 190H158.36L156.96 186.76ZM156.1 184.72L153.46 178.6L150.84 184.72H156.1ZM172.983 175.16V190H170.583V188.62C170.169 189.127 169.656 189.507 169.043 189.76C168.443 190.013 167.776 190.14 167.043 190.14C166.016 190.14 165.089 189.913 164.263 189.46C163.449 189.007 162.809 188.367 162.343 187.54C161.876 186.7 161.643 185.74 161.643 184.66C161.643 183.58 161.876 182.627 162.343 181.8C162.809 180.973 163.449 180.333 164.263 179.88C165.089 179.427 166.016 179.2 167.043 179.2C167.749 179.2 168.396 179.32 168.983 179.56C169.569 179.8 170.069 180.16 170.483 180.64V175.16H172.983ZM167.343 188C167.943 188 168.483 187.867 168.963 187.6C169.443 187.32 169.823 186.927 170.103 186.42C170.383 185.913 170.523 185.327 170.523 184.66C170.523 183.993 170.383 183.407 170.103 182.9C169.823 182.393 169.443 182.007 168.963 181.74C168.483 181.46 167.943 181.32 167.343 181.32C166.743 181.32 166.203 181.46 165.723 181.74C165.243 182.007 164.863 182.393 164.583 182.9C164.303 183.407 164.163 183.993 164.163 184.66C164.163 185.327 164.303 185.913 164.583 186.42C164.863 186.927 165.243 187.32 165.723 187.6C166.203 187.867 166.743 188 167.343 188ZM178.633 180.88C179.353 179.76 180.62 179.2 182.433 179.2V181.58C182.22 181.54 182.027 181.52 181.853 181.52C180.88 181.52 180.12 181.807 179.573 182.38C179.027 182.94 178.753 183.753 178.753 184.82V190H176.253V179.32H178.633V180.88ZM184.554 179.32H187.054V190H184.554V179.32ZM186.834 175.12H189.774L186.294 177.86H184.134L186.834 175.12ZM194.415 179.2C195.989 179.2 197.189 179.58 198.015 180.34C198.855 181.087 199.275 182.22 199.275 183.74V190H196.915V188.7C196.609 189.167 196.169 189.527 195.595 189.78C195.035 190.02 194.355 190.14 193.555 190.14C192.755 190.14 192.055 190.007 191.455 189.74C190.855 189.46 190.389 189.08 190.055 188.6C189.735 188.107 189.575 187.553 189.575 186.94C189.575 185.98 189.929 185.213 190.635 184.64C191.355 184.053 192.482 183.76 194.015 183.76H196.775V183.6C196.775 182.853 196.549 182.28 196.095 181.88C195.655 181.48 194.995 181.28 194.115 181.28C193.515 181.28 192.922 181.373 192.335 181.56C191.762 181.747 191.275 182.007 190.875 182.34L189.895 180.52C190.455 180.093 191.129 179.767 191.915 179.54C192.702 179.313 193.535 179.2 194.415 179.2ZM194.075 188.32C194.702 188.32 195.255 188.18 195.735 187.9C196.229 187.607 196.575 187.193 196.775 186.66V185.42H194.195C192.755 185.42 192.035 185.893 192.035 186.84C192.035 187.293 192.215 187.653 192.575 187.92C192.935 188.187 193.435 188.32 194.075 188.32ZM208.544 179.2C209.89 179.2 210.97 179.593 211.784 180.38C212.597 181.167 213.004 182.333 213.004 183.88V190H210.504V184.2C210.504 183.267 210.284 182.567 209.844 182.1C209.404 181.62 208.777 181.38 207.964 181.38C207.044 181.38 206.317 181.66 205.784 182.22C205.25 182.767 204.984 183.56 204.984 184.6V190H202.484V179.32H204.864V180.7C205.277 180.207 205.797 179.833 206.424 179.58C207.05 179.327 207.757 179.2 208.544 179.2ZM226.283 190.2C225.203 190.2 224.156 190.047 223.143 189.74C222.143 189.433 221.349 189.027 220.763 188.52L221.663 186.5C222.236 186.953 222.936 187.327 223.763 187.62C224.603 187.9 225.443 188.04 226.283 188.04C227.323 188.04 228.096 187.873 228.603 187.54C229.123 187.207 229.383 186.767 229.383 186.22C229.383 185.82 229.236 185.493 228.943 185.24C228.663 184.973 228.303 184.767 227.863 184.62C227.423 184.473 226.823 184.307 226.063 184.12C224.996 183.867 224.129 183.613 223.463 183.36C222.809 183.107 222.243 182.713 221.763 182.18C221.296 181.633 221.063 180.9 221.063 179.98C221.063 179.207 221.269 178.507 221.683 177.88C222.109 177.24 222.743 176.733 223.583 176.36C224.436 175.987 225.476 175.8 226.703 175.8C227.556 175.8 228.396 175.907 229.223 176.12C230.049 176.333 230.763 176.64 231.362 177.04L230.543 179.06C229.929 178.7 229.289 178.427 228.623 178.24C227.956 178.053 227.309 177.96 226.683 177.96C225.656 177.96 224.889 178.133 224.383 178.48C223.889 178.827 223.643 179.287 223.643 179.86C223.643 180.26 223.783 180.587 224.063 180.84C224.356 181.093 224.723 181.293 225.163 181.44C225.603 181.587 226.203 181.753 226.963 181.94C228.003 182.18 228.856 182.433 229.523 182.7C230.189 182.953 230.756 183.347 231.223 183.88C231.703 184.413 231.943 185.133 231.943 186.04C231.943 186.813 231.729 187.513 231.303 188.14C230.889 188.767 230.256 189.267 229.403 189.64C228.549 190.013 227.509 190.2 226.283 190.2ZM238.361 179.2C239.934 179.2 241.134 179.58 241.961 180.34C242.801 181.087 243.221 182.22 243.221 183.74V190H240.861V188.7C240.554 189.167 240.114 189.527 239.541 189.78C238.981 190.02 238.301 190.14 237.501 190.14C236.701 190.14 236.001 190.007 235.401 189.74C234.801 189.46 234.334 189.08 234.001 188.6C233.681 188.107 233.521 187.553 233.521 186.94C233.521 185.98 233.874 185.213 234.581 184.64C235.301 184.053 236.427 183.76 237.961 183.76H240.721V183.6C240.721 182.853 240.494 182.28 240.041 181.88C239.601 181.48 238.941 181.28 238.061 181.28C237.461 181.28 236.867 181.373 236.281 181.56C235.707 181.747 235.221 182.007 234.821 182.34L233.841 180.52C234.401 180.093 235.074 179.767 235.861 179.54C236.647 179.313 237.481 179.2 238.361 179.2ZM238.021 188.32C238.647 188.32 239.201 188.18 239.681 187.9C240.174 187.607 240.521 187.193 240.721 186.66V185.42H238.141C236.701 185.42 235.981 185.893 235.981 186.84C235.981 187.293 236.161 187.653 236.521 187.92C236.881 188.187 237.381 188.32 238.021 188.32ZM239.601 175.12H242.541L239.061 177.86H236.901L239.601 175.12ZM252.489 179.2C253.836 179.2 254.916 179.593 255.729 180.38C256.542 181.167 256.949 182.333 256.949 183.88V190H254.449V184.2C254.449 183.267 254.229 182.567 253.789 182.1C253.349 181.62 252.722 181.38 251.909 181.38C250.989 181.38 250.262 181.66 249.729 182.22C249.196 182.767 248.929 183.56 248.929 184.6V190H246.429V179.32H248.809V180.7C249.222 180.207 249.742 179.833 250.369 179.58C250.996 179.327 251.702 179.2 252.489 179.2ZM265.118 190.14C264.011 190.14 263.018 189.907 262.138 189.44C261.258 188.973 260.571 188.327 260.078 187.5C259.585 186.66 259.338 185.713 259.338 184.66C259.338 183.607 259.585 182.667 260.078 181.84C260.571 181.013 261.251 180.367 262.118 179.9C262.998 179.433 263.998 179.2 265.118 179.2C266.171 179.2 267.091 179.413 267.878 179.84C268.678 180.267 269.278 180.88 269.678 181.68L267.758 182.8C267.451 182.307 267.065 181.94 266.598 181.7C266.145 181.447 265.645 181.32 265.098 181.32C264.165 181.32 263.391 181.627 262.778 182.24C262.165 182.84 261.858 183.647 261.858 184.66C261.858 185.673 262.158 186.487 262.758 187.1C263.371 187.7 264.151 188 265.098 188C265.645 188 266.145 187.88 266.598 187.64C267.065 187.387 267.451 187.013 267.758 186.52L269.678 187.64C269.265 188.44 268.658 189.06 267.858 189.5C267.071 189.927 266.158 190.14 265.118 190.14ZM277.802 179.2C279.148 179.2 280.228 179.593 281.042 180.38C281.855 181.167 282.262 182.333 282.262 183.88V190H279.762V184.2C279.762 183.267 279.542 182.567 279.102 182.1C278.662 181.62 278.035 181.38 277.222 181.38C276.302 181.38 275.575 181.66 275.042 182.22C274.508 182.767 274.242 183.56 274.242 184.6V190H271.742V175.16H274.242V180.56C274.655 180.12 275.162 179.787 275.762 179.56C276.375 179.32 277.055 179.2 277.802 179.2ZM295.571 184.72C295.571 184.893 295.557 185.14 295.531 185.46H287.151C287.297 186.247 287.677 186.873 288.291 187.34C288.917 187.793 289.691 188.02 290.611 188.02C291.784 188.02 292.751 187.633 293.511 186.86L294.851 188.4C294.371 188.973 293.764 189.407 293.031 189.7C292.297 189.993 291.471 190.14 290.551 190.14C289.377 190.14 288.344 189.907 287.451 189.44C286.557 188.973 285.864 188.327 285.371 187.5C284.891 186.66 284.651 185.713 284.651 184.66C284.651 183.62 284.884 182.687 285.351 181.86C285.831 181.02 286.491 180.367 287.331 179.9C288.171 179.433 289.117 179.2 290.171 179.2C291.211 179.2 292.137 179.433 292.951 179.9C293.777 180.353 294.417 181 294.871 181.84C295.337 182.667 295.571 183.627 295.571 184.72ZM290.171 181.2C289.371 181.2 288.691 181.44 288.131 181.92C287.584 182.387 287.251 183.013 287.131 183.8H293.191C293.084 183.027 292.757 182.4 292.211 181.92C291.664 181.44 290.984 181.2 290.171 181.2ZM306.214 188V190H296.994V188.42L302.854 181.32H297.114V179.32H306.054V180.9L300.174 188H306.214Z" fill="#181818"/>
<path d="M153.106 219.136C151.916 219.136 150.839 218.875 149.876 218.354C148.924 217.821 148.176 217.096 147.632 216.178C147.088 215.249 146.816 214.206 146.816 213.05C146.816 211.894 147.088 210.857 147.632 209.939C148.176 209.01 148.93 208.284 149.893 207.763C150.856 207.23 151.933 206.964 153.123 206.964C154.052 206.964 154.902 207.123 155.673 207.44C156.444 207.746 157.101 208.205 157.645 208.817L156.54 209.888C155.645 208.947 154.528 208.477 153.191 208.477C152.307 208.477 151.508 208.675 150.794 209.072C150.08 209.469 149.519 210.018 149.111 210.721C148.714 211.412 148.516 212.189 148.516 213.05C148.516 213.911 148.714 214.693 149.111 215.396C149.519 216.087 150.08 216.631 150.794 217.028C151.508 217.425 152.307 217.623 153.191 217.623C154.517 217.623 155.633 217.147 156.54 216.195L157.645 217.266C157.101 217.878 156.438 218.343 155.656 218.66C154.885 218.977 154.035 219.136 153.106 219.136ZM167.593 214.546C167.593 214.671 167.582 214.835 167.559 215.039H160.249C160.351 215.832 160.697 216.473 161.286 216.96C161.887 217.436 162.629 217.674 163.513 217.674C164.59 217.674 165.457 217.311 166.114 216.586L167.015 217.64C166.607 218.116 166.097 218.479 165.485 218.728C164.885 218.977 164.21 219.102 163.462 219.102C162.51 219.102 161.666 218.909 160.929 218.524C160.193 218.127 159.62 217.578 159.212 216.875C158.816 216.172 158.617 215.379 158.617 214.495C158.617 213.622 158.81 212.835 159.195 212.132C159.592 211.429 160.13 210.885 160.81 210.5C161.502 210.103 162.278 209.905 163.139 209.905C164.001 209.905 164.766 210.103 165.434 210.5C166.114 210.885 166.641 211.429 167.015 212.132C167.401 212.835 167.593 213.639 167.593 214.546ZM163.139 211.282C162.357 211.282 161.7 211.52 161.167 211.996C160.646 212.472 160.34 213.095 160.249 213.866H166.029C165.939 213.107 165.627 212.489 165.094 212.013C164.573 211.526 163.921 211.282 163.139 211.282ZM169.86 206.386H171.492V219H169.86V206.386ZM183.006 209.99V219H181.459V217.64C181.13 218.105 180.694 218.467 180.15 218.728C179.617 218.977 179.033 219.102 178.399 219.102C177.197 219.102 176.251 218.773 175.56 218.116C174.868 217.447 174.523 216.467 174.523 215.175V209.99H176.155V214.988C176.155 215.861 176.364 216.524 176.784 216.977C177.203 217.419 177.804 217.64 178.586 217.64C179.447 217.64 180.127 217.379 180.626 216.858C181.124 216.337 181.374 215.6 181.374 214.648V209.99H183.006ZM186.112 206.386H187.744V219H186.112V206.386ZM194.141 209.905C195.388 209.905 196.34 210.211 196.997 210.823C197.666 211.435 198 212.347 198 213.56V219H196.453V217.81C196.181 218.229 195.79 218.552 195.28 218.779C194.782 218.994 194.187 219.102 193.495 219.102C192.487 219.102 191.676 218.858 191.064 218.371C190.464 217.884 190.163 217.243 190.163 216.45C190.163 215.657 190.452 215.022 191.03 214.546C191.608 214.059 192.526 213.815 193.784 213.815H196.368V213.492C196.368 212.789 196.164 212.251 195.756 211.877C195.348 211.503 194.748 211.316 193.954 211.316C193.422 211.316 192.9 211.407 192.39 211.588C191.88 211.758 191.45 211.99 191.098 212.285L190.418 211.061C190.883 210.687 191.438 210.404 192.084 210.211C192.73 210.007 193.416 209.905 194.141 209.905ZM193.767 217.844C194.391 217.844 194.929 217.708 195.382 217.436C195.836 217.153 196.164 216.756 196.368 216.246V214.988H193.852C192.47 214.988 191.778 215.453 191.778 216.382C191.778 216.835 191.954 217.192 192.305 217.453C192.657 217.714 193.144 217.844 193.767 217.844ZM202.585 211.503C202.868 210.982 203.287 210.585 203.843 210.313C204.398 210.041 205.072 209.905 205.866 209.905V211.486C205.775 211.475 205.65 211.469 205.492 211.469C204.608 211.469 203.911 211.735 203.401 212.268C202.902 212.789 202.653 213.537 202.653 214.512V219H201.021V209.99H202.585V211.503ZM208.434 212.234C208.117 212.234 207.845 212.126 207.618 211.911C207.391 211.684 207.278 211.401 207.278 211.061C207.278 210.732 207.391 210.46 207.618 210.245C207.845 210.018 208.117 209.905 208.434 209.905C208.751 209.905 209.018 210.013 209.233 210.228C209.448 210.443 209.556 210.721 209.556 211.061C209.556 211.401 209.443 211.684 209.216 211.911C209.001 212.126 208.74 212.234 208.434 212.234ZM208.434 219.102C208.117 219.102 207.845 218.994 207.618 218.779C207.391 218.552 207.278 218.269 207.278 217.929C207.278 217.6 207.391 217.328 207.618 217.113C207.845 216.886 208.117 216.773 208.434 216.773C208.751 216.773 209.018 216.881 209.233 217.096C209.448 217.311 209.556 217.589 209.556 217.929C209.556 218.269 209.443 218.552 209.216 218.779C209.001 218.994 208.74 219.102 208.434 219.102ZM220.591 219.136C219.65 219.136 218.812 218.898 218.075 218.422C217.35 217.935 216.777 217.232 216.358 216.314C215.939 215.396 215.729 214.308 215.729 213.05C215.729 211.792 215.939 210.704 216.358 209.786C216.777 208.868 217.35 208.171 218.075 207.695C218.812 207.208 219.65 206.964 220.591 206.964C221.52 206.964 222.348 207.208 223.073 207.695C223.81 208.171 224.388 208.868 224.807 209.786C225.226 210.704 225.436 211.792 225.436 213.05C225.436 214.308 225.226 215.396 224.807 216.314C224.388 217.232 223.81 217.935 223.073 218.422C222.348 218.898 221.52 219.136 220.591 219.136ZM220.591 217.623C221.543 217.623 222.302 217.232 222.869 216.45C223.447 215.668 223.736 214.535 223.736 213.05C223.736 211.565 223.447 210.432 222.869 209.65C222.302 208.868 221.543 208.477 220.591 208.477C219.628 208.477 218.857 208.868 218.279 209.65C217.712 210.432 217.429 211.565 217.429 213.05C217.429 214.535 217.712 215.668 218.279 216.45C218.857 217.232 219.628 217.623 220.591 217.623ZM230.927 206.964C232.525 206.964 233.755 207.48 234.616 208.511C235.489 209.542 235.925 211.004 235.925 212.897C235.925 214.223 235.687 215.356 235.211 216.297C234.746 217.226 234.089 217.935 233.239 218.422C232.4 218.898 231.42 219.136 230.298 219.136C229.72 219.136 229.176 219.079 228.666 218.966C228.156 218.841 227.714 218.666 227.34 218.439L227.986 217.113C228.564 217.487 229.329 217.674 230.281 217.674C231.516 217.674 232.48 217.294 233.171 216.535C233.874 215.764 234.225 214.648 234.225 213.186V212.761C233.885 213.271 233.415 213.662 232.814 213.934C232.213 214.195 231.539 214.325 230.791 214.325C230.009 214.325 229.306 214.178 228.683 213.883C228.071 213.588 227.589 213.169 227.238 212.625C226.898 212.07 226.728 211.435 226.728 210.721C226.728 209.973 226.909 209.316 227.272 208.749C227.646 208.182 228.15 207.746 228.785 207.44C229.42 207.123 230.134 206.964 230.927 206.964ZM231.08 212.948C231.613 212.948 232.089 212.846 232.508 212.642C232.927 212.438 233.25 212.16 233.477 211.809C233.715 211.458 233.834 211.067 233.834 210.636C233.834 210.217 233.721 209.837 233.494 209.497C233.279 209.146 232.956 208.868 232.525 208.664C232.106 208.449 231.596 208.341 230.995 208.341C230.213 208.341 229.578 208.551 229.091 208.97C228.615 209.389 228.377 209.95 228.377 210.653C228.377 211.356 228.621 211.917 229.108 212.336C229.595 212.744 230.253 212.948 231.08 212.948ZM241.419 206.964C243.017 206.964 244.247 207.48 245.108 208.511C245.981 209.542 246.417 211.004 246.417 212.897C246.417 214.223 246.179 215.356 245.703 216.297C245.238 217.226 244.581 217.935 243.731 218.422C242.892 218.898 241.912 219.136 240.79 219.136C240.212 219.136 239.668 219.079 239.158 218.966C238.648 218.841 238.206 218.666 237.832 218.439L238.478 217.113C239.056 217.487 239.821 217.674 240.773 217.674C242.008 217.674 242.972 217.294 243.663 216.535C244.366 215.764 244.717 214.648 244.717 213.186V212.761C244.377 213.271 243.907 213.662 243.306 213.934C242.705 214.195 242.031 214.325 241.283 214.325C240.501 214.325 239.798 214.178 239.175 213.883C238.563 213.588 238.081 213.169 237.73 212.625C237.39 212.07 237.22 211.435 237.22 210.721C237.22 209.973 237.401 209.316 237.764 208.749C238.138 208.182 238.642 207.746 239.277 207.44C239.912 207.123 240.626 206.964 241.419 206.964ZM241.572 212.948C242.105 212.948 242.581 212.846 243 212.642C243.419 212.438 243.742 212.16 243.969 211.809C244.207 211.458 244.326 211.067 244.326 210.636C244.326 210.217 244.213 209.837 243.986 209.497C243.771 209.146 243.448 208.868 243.017 208.664C242.598 208.449 242.088 208.341 241.487 208.341C240.705 208.341 240.07 208.551 239.583 208.97C239.107 209.389 238.869 209.95 238.869 210.653C238.869 211.356 239.113 211.917 239.6 212.336C240.087 212.744 240.745 212.948 241.572 212.948ZM251.911 206.964C253.509 206.964 254.739 207.48 255.6 208.511C256.473 209.542 256.909 211.004 256.909 212.897C256.909 214.223 256.671 215.356 256.195 216.297C255.731 217.226 255.073 217.935 254.223 218.422C253.385 218.898 252.404 219.136 251.282 219.136C250.704 219.136 250.16 219.079 249.65 218.966C249.14 218.841 248.698 218.666 248.324 218.439L248.97 217.113C249.548 217.487 250.313 217.674 251.265 217.674C252.501 217.674 253.464 217.294 254.155 216.535C254.858 215.764 255.209 214.648 255.209 213.186V212.761C254.869 213.271 254.399 213.662 253.798 213.934C253.198 214.195 252.523 214.325 251.775 214.325C250.993 214.325 250.291 214.178 249.667 213.883C249.055 213.588 248.574 213.169 248.222 212.625C247.882 212.07 247.712 211.435 247.712 210.721C247.712 209.973 247.894 209.316 248.256 208.749C248.63 208.182 249.135 207.746 249.769 207.44C250.404 207.123 251.118 206.964 251.911 206.964ZM252.064 212.948C252.597 212.948 253.073 212.846 253.492 212.642C253.912 212.438 254.235 212.16 254.461 211.809C254.699 211.458 254.818 211.067 254.818 210.636C254.818 210.217 254.705 209.837 254.478 209.497C254.263 209.146 253.94 208.868 253.509 208.664C253.09 208.449 252.58 208.341 251.979 208.341C251.197 208.341 250.563 208.551 250.075 208.97C249.599 209.389 249.361 209.95 249.361 210.653C249.361 211.356 249.605 211.917 250.092 212.336C250.58 212.744 251.237 212.948 252.064 212.948ZM262.404 206.964C264.002 206.964 265.231 207.48 266.093 208.511C266.965 209.542 267.402 211.004 267.402 212.897C267.402 214.223 267.164 215.356 266.688 216.297C266.223 217.226 265.566 217.935 264.716 218.422C263.877 218.898 262.897 219.136 261.775 219.136C261.197 219.136 260.653 219.079 260.143 218.966C259.633 218.841 259.191 218.666 258.817 218.439L259.463 217.113C260.041 217.487 260.806 217.674 261.758 217.674C262.993 217.674 263.956 217.294 264.648 216.535C265.35 215.764 265.702 214.648 265.702 213.186V212.761C265.362 213.271 264.891 213.662 264.291 213.934C263.69 214.195 263.016 214.325 262.268 214.325C261.486 214.325 260.783 214.178 260.16 213.883C259.548 213.588 259.066 213.169 258.715 212.625C258.375 212.07 258.205 211.435 258.205 210.721C258.205 209.973 258.386 209.316 258.749 208.749C259.123 208.182 259.627 207.746 260.262 207.44C260.896 207.123 261.61 206.964 262.404 206.964ZM262.557 212.948C263.089 212.948 263.565 212.846 263.985 212.642C264.404 212.438 264.727 212.16 264.954 211.809C265.192 211.458 265.311 211.067 265.311 210.636C265.311 210.217 265.197 209.837 264.971 209.497C264.755 209.146 264.432 208.868 264.002 208.664C263.582 208.449 263.072 208.341 262.472 208.341C261.69 208.341 261.055 208.551 260.568 208.97C260.092 209.389 259.854 209.95 259.854 210.653C259.854 211.356 260.097 211.917 260.585 212.336C261.072 212.744 261.729 212.948 262.557 212.948ZM272.896 206.964C274.494 206.964 275.723 207.48 276.585 208.511C277.457 209.542 277.894 211.004 277.894 212.897C277.894 214.223 277.656 215.356 277.18 216.297C276.715 217.226 276.058 217.935 275.208 218.422C274.369 218.898 273.389 219.136 272.267 219.136C271.689 219.136 271.145 219.079 270.635 218.966C270.125 218.841 269.683 218.666 269.309 218.439L269.955 217.113C270.533 217.487 271.298 217.674 272.25 217.674C273.485 217.674 274.448 217.294 275.14 216.535C275.842 215.764 276.194 214.648 276.194 213.186V212.761C275.854 213.271 275.383 213.662 274.783 213.934C274.182 214.195 273.508 214.325 272.76 214.325C271.978 214.325 271.275 214.178 270.652 213.883C270.04 213.588 269.558 213.169 269.207 212.625C268.867 212.07 268.697 211.435 268.697 210.721C268.697 209.973 268.878 209.316 269.241 208.749C269.615 208.182 270.119 207.746 270.754 207.44C271.388 207.123 272.102 206.964 272.896 206.964ZM273.049 212.948C273.581 212.948 274.057 212.846 274.477 212.642C274.896 212.438 275.219 212.16 275.446 211.809C275.684 211.458 275.803 211.067 275.803 210.636C275.803 210.217 275.689 209.837 275.463 209.497C275.247 209.146 274.924 208.868 274.494 208.664C274.074 208.449 273.564 208.341 272.964 208.341C272.182 208.341 271.547 208.551 271.06 208.97C270.584 209.389 270.346 209.95 270.346 210.653C270.346 211.356 270.589 211.917 271.077 212.336C271.564 212.744 272.221 212.948 273.049 212.948ZM283.388 206.964C284.986 206.964 286.216 207.48 287.077 208.511C287.95 209.542 288.386 211.004 288.386 212.897C288.386 214.223 288.148 215.356 287.672 216.297C287.207 217.226 286.55 217.935 285.7 218.422C284.861 218.898 283.881 219.136 282.759 219.136C282.181 219.136 281.637 219.079 281.127 218.966C280.617 218.841 280.175 218.666 279.801 218.439L280.447 217.113C281.025 217.487 281.79 217.674 282.742 217.674C283.977 217.674 284.941 217.294 285.632 216.535C286.335 215.764 286.686 214.648 286.686 213.186V212.761C286.346 213.271 285.876 213.662 285.275 213.934C284.674 214.195 284 214.325 283.252 214.325C282.47 214.325 281.767 214.178 281.144 213.883C280.532 213.588 280.05 213.169 279.699 212.625C279.359 212.07 279.189 211.435 279.189 210.721C279.189 209.973 279.37 209.316 279.733 208.749C280.107 208.182 280.611 207.746 281.246 207.44C281.881 207.123 282.595 206.964 283.388 206.964ZM283.541 212.948C284.074 212.948 284.55 212.846 284.969 212.642C285.388 212.438 285.711 212.16 285.938 211.809C286.176 211.458 286.295 211.067 286.295 210.636C286.295 210.217 286.182 209.837 285.955 209.497C285.74 209.146 285.417 208.868 284.986 208.664C284.567 208.449 284.057 208.341 283.456 208.341C282.674 208.341 282.039 208.551 281.552 208.97C281.076 209.389 280.838 209.95 280.838 210.653C280.838 211.356 281.082 211.917 281.569 212.336C282.056 212.744 282.714 212.948 283.541 212.948ZM293.88 206.964C295.478 206.964 296.708 207.48 297.569 208.511C298.442 209.542 298.878 211.004 298.878 212.897C298.878 214.223 298.64 215.356 298.164 216.297C297.699 217.226 297.042 217.935 296.192 218.422C295.353 218.898 294.373 219.136 293.251 219.136C292.673 219.136 292.129 219.079 291.619 218.966C291.109 218.841 290.667 218.666 290.293 218.439L290.939 217.113C291.517 217.487 292.282 217.674 293.234 217.674C294.469 217.674 295.433 217.294 296.124 216.535C296.827 215.764 297.178 214.648 297.178 213.186V212.761C296.838 213.271 296.368 213.662 295.767 213.934C295.166 214.195 294.492 214.325 293.744 214.325C292.962 214.325 292.259 214.178 291.636 213.883C291.024 213.588 290.542 213.169 290.191 212.625C289.851 212.07 289.681 211.435 289.681 210.721C289.681 209.973 289.862 209.316 290.225 208.749C290.599 208.182 291.103 207.746 291.738 207.44C292.373 207.123 293.087 206.964 293.88 206.964ZM294.033 212.948C294.566 212.948 295.042 212.846 295.461 212.642C295.88 212.438 296.203 212.16 296.43 211.809C296.668 211.458 296.787 211.067 296.787 210.636C296.787 210.217 296.674 209.837 296.447 209.497C296.232 209.146 295.909 208.868 295.478 208.664C295.059 208.449 294.549 208.341 293.948 208.341C293.166 208.341 292.531 208.551 292.044 208.97C291.568 209.389 291.33 209.95 291.33 210.653C291.33 211.356 291.574 211.917 292.061 212.336C292.548 212.744 293.206 212.948 294.033 212.948Z" fill="#181818"/>
<path fill-rule="evenodd" clip-rule="evenodd" d="M349.989 20.2643C352.644 20.2644 355.197 21.2242 357.122 22.9452C357.266 23.0781 357.498 23.0764 357.641 22.9415L359.026 21.6264C359.098 21.5579 359.138 21.4652 359.138 21.3687C359.137 21.2723 359.096 21.18 359.022 21.1124C353.972 16.5589 346.005 16.5589 340.955 21.1124C340.882 21.1799 340.841 21.2722 340.84 21.3687C340.839 21.4651 340.879 21.5579 340.952 21.6264L342.337 22.9415C342.48 23.0766 342.711 23.0783 342.856 22.9452C344.78 21.2241 347.334 20.2643 349.989 20.2643ZM352.648 27.6815C352.722 27.6132 352.762 27.5192 352.76 27.4217C352.758 27.3242 352.713 27.2318 352.636 27.1664C351.108 25.9503 348.87 25.9503 347.342 27.1664C347.265 27.2318 347.22 27.3241 347.218 27.4216C347.215 27.5191 347.256 27.6132 347.33 27.6815L349.723 29.9536C349.794 30.0204 349.889 30.058 349.989 30.058C350.089 30.058 350.184 30.0204 350.255 29.9536L352.648 27.6815ZM353.936 25.974C352.854 25.0528 351.448 24.5427 349.989 24.5428C348.531 24.5434 347.126 25.0534 346.045 25.974C345.899 26.1047 345.669 26.1019 345.526 25.9676L344.143 24.6525C344.07 24.5836 344.03 24.4901 344.031 24.3928C344.032 24.2955 344.074 24.2027 344.148 24.1351C347.441 21.2535 352.54 21.2535 355.833 24.1351C355.907 24.2027 355.949 24.2955 355.95 24.3927C355.952 24.49 355.911 24.5835 355.838 24.6525L354.455 25.9676C354.312 26.1019 354.082 26.1047 353.936 25.974Z" fill="#181818"/>
<path d="M48.487 30.5417C51.175 30.5417 52.7717 28.4397 52.7717 24.8728C52.7717 21.3718 51.0725 19.4529 48.5456 19.4529C46.2458 19.4529 44.6198 20.9983 44.6198 23.1589C44.6198 25.1877 46.0847 26.6672 48.0988 26.6672C49.3366 26.6672 50.3401 26.0959 50.8381 25.0925H50.9626C50.9406 27.5754 50.0544 28.9963 48.509 28.9963C47.6008 28.9963 46.8757 28.4983 46.6487 27.6926H44.7663C45.0739 29.4138 46.5534 30.5417 48.487 30.5417ZM48.5529 25.2097C47.3225 25.2097 46.4729 24.3455 46.4729 23.1003C46.4729 21.9065 47.3664 20.991 48.5603 20.991C49.7541 20.991 50.6477 21.9211 50.6477 23.137C50.6477 24.3381 49.7761 25.2097 48.5529 25.2097ZM55.9228 25.0559C56.6186 25.0559 57.0947 24.5652 57.0947 23.9207C57.0947 23.2688 56.6186 22.7854 55.9228 22.7854C55.2343 22.7854 54.7509 23.2688 54.7509 23.9207C54.7509 24.5652 55.2343 25.0559 55.9228 25.0559ZM55.9228 30.4319C56.6186 30.4319 57.0947 29.9412 57.0947 29.2893C57.0947 28.6448 56.6186 28.1541 55.9228 28.1541C55.2343 28.1541 54.7509 28.6448 54.7509 29.2893C54.7509 29.9412 55.2343 30.4319 55.9228 30.4319ZM64.0104 30.2854H65.8195V28.2566H67.2478V26.6965H65.8195V19.7166H63.1535C61.718 21.8992 60.2165 24.3308 58.8469 26.7112V28.2566H64.0104V30.2854ZM60.5974 26.6306C61.6301 24.8362 62.8532 22.8806 63.9372 21.2253H64.0397V26.7405H60.5974V26.6306ZM71.3364 30.2854H73.226V19.7166H71.3437L68.5825 21.6575V23.4373L71.2119 21.5769H71.3364V30.2854Z" fill="#181818"/>
</g>
<defs>
<clipPath id="clip0_65_511">
<rect width="414" height="805" rx="20" fill="white"/>
</clipPath>
<clipPath id="clip1_65_511">
<rect width="233" height="38" fill="white" transform="translate(94 332)"/>
</clipPath>
</defs>
</svg>
