<svg width="414" height="855" viewBox="0 0 414 855" fill="none" xmlns="http://www.w3.org/2000/svg">
<rect width="414" height="855" rx="20" fill="#FEFEFE"/>
<rect y="1" width="410" height="45" fill="#FEFEFE"/>
<path fill-rule="evenodd" clip-rule="evenodd" d="M333.68 15.8472H332.487C331.828 15.8472 331.294 16.2883 331.294 16.8324V25.3709C331.294 25.9151 331.828 26.3562 332.487 26.3562H333.68C334.339 26.3562 334.874 25.9151 334.874 25.3709V16.8324C334.874 16.2883 334.339 15.8472 333.68 15.8472ZM327.918 18.146H329.111C329.77 18.146 330.305 18.5871 330.305 19.1312V25.371C330.305 25.9151 329.77 26.3562 329.111 26.3562H327.918C327.259 26.3562 326.725 25.9151 326.725 25.371V19.1312C326.725 18.5871 327.259 18.146 327.918 18.146ZM323.542 20.4447H322.349C321.69 20.4447 321.156 20.8858 321.156 21.43V25.3708C321.156 25.9149 321.69 26.356 322.349 26.356H323.542C324.201 26.356 324.736 25.9149 324.736 25.3708V21.43C324.736 20.8858 324.201 20.4447 323.542 20.4447ZM317.974 22.4151H316.78C316.121 22.4151 315.587 22.8562 315.587 23.4004V25.3708C315.587 25.9149 316.121 26.356 316.78 26.356H317.974C318.633 26.356 319.167 25.9149 319.167 25.3708V23.4004C319.167 22.8562 318.633 22.4151 317.974 22.4151Z" fill="#181818"/>
<path opacity="0.4" d="M392.551 19.1313V23.0722C393.512 22.7385 394.136 21.962 394.136 21.1018C394.136 20.2416 393.512 19.4651 392.551 19.1313Z" fill="#181818"/>
<rect opacity="0.35" x="365.604" y="16.019" width="25.2535" height="10.1658" rx="2.16667" stroke="#181818"/>
<rect x="367.491" y="17.4893" width="21.4801" height="7.22494" rx="1.33333" fill="#181818"/>
<path d="M162.386 83.228C161.286 83.932 160.076 84.218 158.778 84.218C155.236 84.218 152.662 81.688 152.662 78.3C152.662 74.868 155.236 72.382 158.8 72.382C160.538 72.382 161.99 72.932 163.266 74.164L164.63 72.8C163.222 71.238 161.154 70.424 158.712 70.424C153.938 70.424 150.462 73.746 150.462 78.3C150.462 82.854 153.938 86.176 158.668 86.176C160.824 86.176 162.958 85.516 164.498 84.218V78.212H162.386V83.228ZM172.648 74.23C170.778 74.23 169.04 74.758 167.83 75.726L168.71 77.31C169.612 76.54 171.02 76.056 172.406 76.056C174.496 76.056 175.53 77.09 175.53 78.872V79.29H172.186C168.71 79.29 167.5 80.83 167.5 82.7C167.5 84.724 169.172 86.132 171.812 86.132C173.638 86.132 174.936 85.516 175.64 84.46V86H177.642V78.96C177.642 75.77 175.838 74.23 172.648 74.23ZM172.164 84.504C170.558 84.504 169.59 83.778 169.59 82.612C169.59 81.622 170.184 80.808 172.274 80.808H175.53V82.436C175.002 83.778 173.748 84.504 172.164 84.504ZM187.777 74.23C185.929 74.23 184.433 74.912 183.575 76.1V74.34H181.551V86H183.663V79.994C183.663 77.464 185.115 76.122 187.359 76.122C189.361 76.122 190.505 77.244 190.505 79.532V86H192.617V79.29C192.617 75.858 190.615 74.23 187.777 74.23ZM200.771 74.23C198.901 74.23 197.163 74.758 195.953 75.726L196.833 77.31C197.735 76.54 199.143 76.056 200.529 76.056C202.619 76.056 203.653 77.09 203.653 78.872V79.29H200.309C196.833 79.29 195.623 80.83 195.623 82.7C195.623 84.724 197.295 86.132 199.935 86.132C201.761 86.132 203.059 85.516 203.763 84.46V86H205.765V78.96C205.765 75.77 203.961 74.23 200.771 74.23ZM200.287 84.504C198.681 84.504 197.713 83.778 197.713 82.612C197.713 81.622 198.307 80.808 200.397 80.808H203.653V82.436C203.125 83.778 201.871 84.504 200.287 84.504ZM215.9 74.23C214.052 74.23 212.556 74.912 211.698 76.1V74.34H209.674V86H211.786V79.994C211.786 77.464 213.238 76.122 215.482 76.122C217.484 76.122 218.628 77.244 218.628 79.532V86H220.74V79.29C220.74 75.858 218.738 74.23 215.9 74.23ZM229.795 86.132C231.885 86.132 233.623 85.252 234.547 83.624L232.941 82.612C232.193 83.756 231.049 84.284 229.773 84.284C227.485 84.284 225.769 82.7 225.769 80.17C225.769 77.684 227.485 76.078 229.773 76.078C231.049 76.078 232.193 76.606 232.941 77.75L234.547 76.716C233.623 75.088 231.885 74.23 229.795 74.23C226.209 74.23 223.635 76.694 223.635 80.17C223.635 83.646 226.209 86.132 229.795 86.132ZM238.337 72.096C239.173 72.096 239.767 71.48 239.767 70.688C239.767 69.94 239.151 69.346 238.337 69.346C237.523 69.346 236.907 69.962 236.907 70.732C236.907 71.502 237.523 72.096 238.337 72.096ZM237.281 86H239.393V74.34H237.281V86ZM247.672 74.23C245.802 74.23 244.064 74.758 242.854 75.726L243.734 77.31C244.636 76.54 246.044 76.056 247.43 76.056C249.52 76.056 250.554 77.09 250.554 78.872V79.29H247.21C243.734 79.29 242.524 80.83 242.524 82.7C242.524 84.724 244.196 86.132 246.836 86.132C248.662 86.132 249.96 85.516 250.664 84.46V86H252.666V78.96C252.666 75.77 250.862 74.23 247.672 74.23ZM247.188 84.504C245.582 84.504 244.614 83.778 244.614 82.612C244.614 81.622 245.208 80.808 247.298 80.808H250.554V82.436C250.026 83.778 248.772 84.504 247.188 84.504ZM259.918 86.132C263.02 86.132 264.956 84.79 264.956 82.678C264.956 78.146 257.564 80.39 257.564 77.64C257.564 76.716 258.466 76.034 260.314 76.034C261.458 76.034 262.624 76.276 263.68 76.958L264.582 75.286C263.57 74.626 261.854 74.23 260.336 74.23C257.344 74.23 255.474 75.638 255.474 77.728C255.474 82.37 262.844 80.104 262.844 82.722C262.844 83.712 262.03 84.306 260.072 84.306C258.554 84.306 256.97 83.8 255.98 83.096L255.1 84.768C256.068 85.538 257.982 86.132 259.918 86.132Z" fill="#EE8D19"/>
<circle cx="49" cy="78" r="24" fill="#FEFEFE"/>
<path d="M61.8332 79H36.1665" stroke="#EE8D19" stroke-width="4" stroke-linecap="round" stroke-linejoin="round"/>
<path d="M44.3332 85.4168L36.1665 79.0002L44.3332 72.5835" stroke="#EE8D19" stroke-width="4" stroke-linecap="round" stroke-linejoin="round"/>
<g filter="url(#filter0_d_2_1011)">
<rect x="17" y="136" width="380" height="44" rx="8" fill="#FEFEFE"/>
<path d="M50.605 163.09C53.29 163.09 54.52 161.77 54.52 160.225C54.52 156.4 48.055 158.14 48.055 155.26C48.055 154.21 48.91 153.355 50.83 153.355C51.76 153.355 52.81 153.64 53.71 154.225L54.085 153.34C53.245 152.755 52.015 152.41 50.83 152.41C48.16 152.41 46.96 153.745 46.96 155.29C46.96 159.175 53.425 157.405 53.425 160.285C53.425 161.32 52.57 162.145 50.605 162.145C49.225 162.145 47.89 161.605 47.14 160.87L46.705 161.725C47.485 162.535 49.03 163.09 50.605 163.09ZM63.5985 159.055C63.5985 156.685 61.9935 155.05 59.7735 155.05C57.5535 155.05 55.9185 156.715 55.9185 159.055C55.9185 161.395 57.5985 163.075 60.0585 163.075C61.3035 163.075 62.3985 162.625 63.1035 161.785L62.5035 161.095C61.9035 161.785 61.0485 162.13 60.0885 162.13C58.3635 162.13 57.1035 161.035 56.9835 159.385H63.5835C63.5835 159.265 63.5985 159.145 63.5985 159.055ZM59.7735 155.965C61.3185 155.965 62.4435 157.045 62.5785 158.59H56.9835C57.1185 157.045 58.2435 155.965 59.7735 155.965ZM65.7663 163H66.8313V151.87H65.7663V163ZM76.6796 159.055C76.6796 156.685 75.0746 155.05 72.8546 155.05C70.6346 155.05 68.9996 156.715 68.9996 159.055C68.9996 161.395 70.6796 163.075 73.1396 163.075C74.3846 163.075 75.4796 162.625 76.1846 161.785L75.5846 161.095C74.9846 161.785 74.1296 162.13 73.1696 162.13C71.4446 162.13 70.1846 161.035 70.0646 159.385H76.6646C76.6646 159.265 76.6796 159.145 76.6796 159.055ZM72.8546 155.965C74.3996 155.965 75.5246 157.045 75.6596 158.59H70.0646C70.1996 157.045 71.3246 155.965 72.8546 155.965ZM82.1173 163.075C83.4523 163.075 84.5773 162.535 85.2073 161.515L84.4123 160.975C83.8723 161.77 83.0323 162.13 82.1173 162.13C80.3923 162.13 79.1323 160.915 79.1323 159.055C79.1323 157.21 80.3923 155.98 82.1173 155.98C83.0323 155.98 83.8723 156.355 84.4123 157.15L85.2073 156.61C84.5773 155.575 83.4523 155.05 82.1173 155.05C79.7623 155.05 78.0523 156.7 78.0523 159.055C78.0523 161.41 79.7623 163.075 82.1173 163.075ZM90.4376 163.075C91.7726 163.075 92.8976 162.535 93.5276 161.515L92.7326 160.975C92.1926 161.77 91.3526 162.13 90.4376 162.13C88.7126 162.13 87.4526 160.915 87.4526 159.055C87.4526 157.21 88.7126 155.98 90.4376 155.98C91.3526 155.98 92.1926 156.355 92.7326 157.15L93.5276 156.61C92.8976 155.575 91.7726 155.05 90.4376 155.05C88.0826 155.05 86.3726 156.7 86.3726 159.055C86.3726 161.41 88.0826 163.075 90.4376 163.075ZM96.1598 153.385C96.6098 153.385 96.9398 153.04 96.9398 152.605C96.9398 152.2 96.5948 151.87 96.1598 151.87C95.7248 151.87 95.3798 152.215 95.3798 152.62C95.3798 153.04 95.7248 153.385 96.1598 153.385ZM95.6198 163H96.6848V155.11H95.6198V163ZM102.873 163.075C105.183 163.075 106.878 161.395 106.878 159.055C106.878 156.715 105.183 155.05 102.873 155.05C100.563 155.05 98.8531 156.715 98.8531 159.055C98.8531 161.395 100.563 163.075 102.873 163.075ZM102.873 162.13C101.193 162.13 99.9331 160.9 99.9331 159.055C99.9331 157.21 101.193 155.98 102.873 155.98C104.553 155.98 105.798 157.21 105.798 159.055C105.798 160.9 104.553 162.13 102.873 162.13ZM113.072 155.05C111.707 155.05 110.642 155.605 110.072 156.565V155.11H109.052V163H110.117V158.86C110.117 157.06 111.182 156.01 112.877 156.01C114.377 156.01 115.247 156.865 115.247 158.53V163H116.312V158.425C116.312 156.16 114.992 155.05 113.072 155.05ZM121.964 155.05C120.719 155.05 119.549 155.44 118.754 156.115L119.234 156.91C119.879 156.34 120.839 155.98 121.859 155.98C123.329 155.98 124.094 156.715 124.094 158.065V158.545H121.589C119.324 158.545 118.544 159.565 118.544 160.78C118.544 162.145 119.639 163.075 121.424 163.075C122.729 163.075 123.659 162.58 124.139 161.77V163H125.159V158.11C125.159 156.07 124.004 155.05 121.964 155.05ZM121.589 162.235C120.329 162.235 119.594 161.665 119.594 160.75C119.594 159.94 120.089 159.34 121.619 159.34H124.094V160.63C123.674 161.665 122.789 162.235 121.589 162.235ZM129.071 156.655V155.11H128.051V163H129.116V158.98C129.116 157.12 130.121 156.07 131.771 156.07C131.846 156.07 131.936 156.085 132.026 156.085V155.05C130.571 155.05 129.566 155.605 129.071 156.655ZM148.213 152.5L143.698 160.285L139.138 152.5H138.223V163H139.288V154.645L143.413 161.665H143.938L148.063 154.6V163H149.128V152.5H148.213ZM159.209 159.055C159.209 156.685 157.604 155.05 155.384 155.05C153.164 155.05 151.529 156.715 151.529 159.055C151.529 161.395 153.209 163.075 155.669 163.075C156.914 163.075 158.009 162.625 158.714 161.785L158.114 161.095C157.514 161.785 156.659 162.13 155.699 162.13C153.974 162.13 152.714 161.035 152.594 159.385H159.194C159.194 159.265 159.209 159.145 159.209 159.055ZM155.384 155.965C156.929 155.965 158.054 157.045 158.189 158.59H152.594C152.729 157.045 153.854 155.965 155.384 155.965ZM163.492 163.075C165.547 163.075 166.747 162.19 166.747 160.825C166.747 157.795 161.632 159.4 161.632 157.27C161.632 156.52 162.262 155.965 163.687 155.965C164.497 155.965 165.322 156.16 166.012 156.64L166.477 155.785C165.817 155.335 164.707 155.05 163.687 155.05C161.677 155.05 160.567 156.01 160.567 157.3C160.567 160.42 165.682 158.8 165.682 160.855C165.682 161.635 165.067 162.145 163.567 162.145C162.457 162.145 161.392 161.755 160.762 161.26L160.282 162.1C160.927 162.655 162.187 163.075 163.492 163.075Z" fill="#7C828B"/>
<path d="M356 155L362 161L368 155" stroke="#181818" stroke-width="2" stroke-linecap="round" stroke-linejoin="round"/>
</g>
<rect x="24" y="205" width="362" height="97.9583" rx="10" fill="#FFF1DD"/>
<path d="M45.315 234.15C48.57 234.15 50.97 231.87 50.97 228.75C50.97 225.63 48.57 223.35 45.315 223.35C42.06 223.35 39.66 225.645 39.66 228.75C39.66 231.855 42.06 234.15 45.315 234.15ZM45.315 232.44C43.2 232.44 41.625 230.895 41.625 228.75C41.625 226.605 43.2 225.06 45.315 225.06C47.43 225.06 49.005 226.605 49.005 228.75C49.005 230.895 47.43 232.44 45.315 232.44ZM54.642 227.16V225.99H52.857V234H54.732V230.115C54.732 228.48 55.632 227.64 57.057 227.64C57.192 227.64 57.327 227.655 57.492 227.685V225.9C56.157 225.9 55.182 226.32 54.642 227.16ZM64.9793 222.87V226.98C64.3493 226.245 63.4343 225.9 62.3993 225.9C60.0743 225.9 58.3493 227.505 58.3493 229.995C58.3493 232.485 60.0743 234.105 62.3993 234.105C63.4943 234.105 64.4243 233.73 65.0543 232.965V234H66.8543V222.87H64.9793ZM62.6243 232.5C61.2743 232.5 60.2393 231.525 60.2393 229.995C60.2393 228.465 61.2743 227.49 62.6243 227.49C63.9743 227.49 65.0093 228.465 65.0093 229.995C65.0093 231.525 63.9743 232.5 62.6243 232.5ZM76.8371 230.04C76.8371 227.535 75.1271 225.9 72.7871 225.9C70.4021 225.9 68.6471 227.61 68.6471 229.995C68.6471 232.38 70.3871 234.105 73.0721 234.105C74.4521 234.105 75.5771 233.655 76.2971 232.8L75.2921 231.645C74.7221 232.23 74.0171 232.515 73.1171 232.515C71.7221 232.515 70.7471 231.765 70.5221 230.595H76.8071C76.8221 230.415 76.8371 230.19 76.8371 230.04ZM72.7871 227.4C74.0171 227.4 74.9021 228.195 75.0521 229.35H70.5071C70.6871 228.18 71.5721 227.4 72.7871 227.4ZM83.1832 225.9C82.0132 225.9 81.0382 226.29 80.4232 227.025V225.99H78.6382V234H80.5132V229.95C80.5132 228.345 81.4132 227.535 82.7482 227.535C83.9482 227.535 84.6532 228.225 84.6532 229.65V234H86.5282V229.41C86.5282 226.995 85.1032 225.9 83.1832 225.9ZM99.9523 227.415H102.142L102.127 226.05H100.117L100.432 223.5H99.0673L98.7523 226.05H96.2323L96.5473 223.5H95.1823L94.8673 226.05H92.6773V227.415H94.7023L94.3573 230.085H92.1673V231.45H94.1923L93.8773 234H95.2423L95.5573 231.45H98.0923L97.7773 234H99.1423L99.4573 231.45H101.647V230.085H99.6223L99.9523 227.415ZM95.7223 230.085L96.0673 227.415H98.5873L98.2573 230.085H95.7223ZM107.526 234.15C110.031 234.15 111.921 232.2 111.921 228.75C111.921 225.3 110.031 223.35 107.526 223.35C105.036 223.35 103.146 225.3 103.146 228.75C103.146 232.2 105.036 234.15 107.526 234.15ZM107.526 232.455C106.101 232.455 105.111 231.285 105.111 228.75C105.111 226.215 106.101 225.045 107.526 225.045C108.966 225.045 109.956 226.215 109.956 228.75C109.956 231.285 108.966 232.455 107.526 232.455ZM117.619 234.15C120.124 234.15 122.014 232.2 122.014 228.75C122.014 225.3 120.124 223.35 117.619 223.35C115.129 223.35 113.239 225.3 113.239 228.75C113.239 232.2 115.129 234.15 117.619 234.15ZM117.619 232.455C116.194 232.455 115.204 231.285 115.204 228.75C115.204 226.215 116.194 225.045 117.619 225.045C119.059 225.045 120.049 226.215 120.049 228.75C120.049 231.285 119.059 232.455 117.619 232.455ZM122.719 223.5V225.135H124.939V234H126.889V223.5H122.719Z" fill="#181818"/>
<path d="M50.88 257.998C50.88 255.218 48.46 254.518 46.24 253.978V249.938C47.3 250.058 48.42 250.398 49.48 251.018L50.3 248.998C49.22 248.298 47.72 247.858 46.24 247.778V245.558H44.6V247.818C41.48 248.118 40 249.898 40 251.938C40 254.718 42.38 255.438 44.6 255.978V259.978C43.08 259.838 41.58 259.258 40.6 258.458L39.7 260.478C40.74 261.378 42.64 262.018 44.6 262.138V264.358H46.24V262.118C49.38 261.798 50.88 260.038 50.88 257.998ZM42.58 251.818C42.58 250.938 43.18 250.218 44.6 249.998V253.558C43.44 253.218 42.58 252.778 42.58 251.818ZM46.24 259.938V256.398C47.44 256.738 48.32 257.198 48.32 258.178C48.32 259.038 47.7 259.718 46.24 259.938ZM51.5428 247.958V250.138H54.5028V261.958H57.1028V247.958H51.5428ZM65.72 262.158C69.06 262.158 71.58 259.558 71.58 254.958C71.58 250.358 69.06 247.758 65.72 247.758C62.4 247.758 59.88 250.358 59.88 254.958C59.88 259.558 62.4 262.158 65.72 262.158ZM65.72 259.898C63.82 259.898 62.5 258.338 62.5 254.958C62.5 251.578 63.82 250.018 65.72 250.018C67.64 250.018 68.96 251.578 68.96 254.958C68.96 258.338 67.64 259.898 65.72 259.898ZM74.6827 258.778C73.7627 258.778 73.0627 259.438 73.0627 260.438C73.0627 261.158 73.4427 261.678 74.0027 261.918L73.2027 264.978H74.8227L75.8427 262.158C76.2027 261.238 76.3027 260.878 76.3027 260.438C76.3027 259.458 75.6227 258.778 74.6827 258.778ZM82.3655 253.378H81.0255L81.3255 250.138H87.3455V247.958H79.1255L78.4055 255.578H81.7855C84.6855 255.578 85.5455 256.418 85.5455 257.758C85.5455 259.078 84.4455 259.898 82.5855 259.898C81.0055 259.898 79.4855 259.358 78.4655 258.518L77.3655 260.538C78.6455 261.558 80.6455 262.158 82.6255 262.158C86.3855 262.158 88.1655 260.118 88.1655 257.658C88.1655 255.178 86.5055 253.378 82.3655 253.378ZM95.5052 262.158C98.8452 262.158 101.365 259.558 101.365 254.958C101.365 250.358 98.8452 247.758 95.5052 247.758C92.1852 247.758 89.6652 250.358 89.6652 254.958C89.6652 259.558 92.1852 262.158 95.5052 262.158ZM95.5052 259.898C93.6052 259.898 92.2852 258.338 92.2852 254.958C92.2852 251.578 93.6052 250.018 95.5052 250.018C97.4252 250.018 98.7452 251.578 98.7452 254.958C98.7452 258.338 97.4252 259.898 95.5052 259.898Z" fill="#161616"/>
<path d="M47.37 282.258C47.37 280.278 45.6 279.828 43.89 279.408V275.058C44.805 275.088 45.81 275.373 46.65 275.943L46.935 275.328C46.155 274.758 45.015 274.413 43.89 274.383V272.658H43.335V274.398C41.055 274.533 40.05 275.778 40.05 277.173C40.05 279.108 41.7 279.603 43.335 280.008V284.358C42.015 284.298 40.785 283.743 40.11 283.038L39.765 283.608C40.485 284.403 41.865 284.973 43.335 285.033V286.758H43.89V285.033C46.275 284.928 47.37 283.683 47.37 282.258ZM40.815 277.158C40.815 276.093 41.595 275.193 43.335 275.073V279.273C41.985 278.928 40.815 278.493 40.815 277.158ZM43.89 284.358V280.143C45.315 280.503 46.605 280.908 46.605 282.303C46.605 283.383 45.765 284.268 43.89 284.358ZM48.1291 274.458V275.148H50.6941V284.958H51.4591V274.458H48.1291ZM53.4172 274.458V275.148H55.9822V284.958H56.7472V274.458H53.4172ZM60.0703 283.743C59.7103 283.743 59.4403 284.013 59.4403 284.373C59.4403 284.688 59.6353 284.913 59.9353 284.988L59.4403 287.103H59.9803L60.5653 285.063C60.6553 284.748 60.7003 284.598 60.7003 284.373C60.7003 284.043 60.4453 283.743 60.0703 283.743ZM66.3471 285.033C68.7621 285.033 70.4571 282.993 70.4571 279.708C70.4571 276.423 68.7621 274.383 66.3471 274.383C63.9321 274.383 62.2371 276.423 62.2371 279.708C62.2371 282.993 63.9321 285.033 66.3471 285.033ZM66.3471 284.328C64.3671 284.328 63.0021 282.633 63.0021 279.708C63.0021 276.783 64.3671 275.088 66.3471 275.088C68.3271 275.088 69.6921 276.783 69.6921 279.708C69.6921 282.633 68.3271 284.328 66.3471 284.328ZM76.2202 285.033C78.6352 285.033 80.3302 282.993 80.3302 279.708C80.3302 276.423 78.6352 274.383 76.2202 274.383C73.8052 274.383 72.1102 276.423 72.1102 279.708C72.1102 282.993 73.8052 285.033 76.2202 285.033ZM76.2202 284.328C74.2402 284.328 72.8752 282.633 72.8752 279.708C72.8752 276.783 74.2402 275.088 76.2202 275.088C78.2002 275.088 79.5652 276.783 79.5652 279.708C79.5652 282.633 78.2002 284.328 76.2202 284.328Z" fill="#161616"/>
<rect x="24" y="312.958" width="362" height="97.9583" rx="10" fill="#FFF1DD"/>
<path d="M45.315 342.108C48.57 342.108 50.97 339.828 50.97 336.708C50.97 333.588 48.57 331.308 45.315 331.308C42.06 331.308 39.66 333.603 39.66 336.708C39.66 339.813 42.06 342.108 45.315 342.108ZM45.315 340.398C43.2 340.398 41.625 338.853 41.625 336.708C41.625 334.563 43.2 333.018 45.315 333.018C47.43 333.018 49.005 334.563 49.005 336.708C49.005 338.853 47.43 340.398 45.315 340.398ZM54.642 335.118V333.948H52.857V341.958H54.732V338.073C54.732 336.438 55.632 335.598 57.057 335.598C57.192 335.598 57.327 335.613 57.492 335.643V333.858C56.157 333.858 55.182 334.278 54.642 335.118ZM64.9793 330.828V334.938C64.3493 334.203 63.4343 333.858 62.3993 333.858C60.0743 333.858 58.3493 335.463 58.3493 337.953C58.3493 340.443 60.0743 342.063 62.3993 342.063C63.4943 342.063 64.4243 341.688 65.0543 340.923V341.958H66.8543V330.828H64.9793ZM62.6243 340.458C61.2743 340.458 60.2393 339.483 60.2393 337.953C60.2393 336.423 61.2743 335.448 62.6243 335.448C63.9743 335.448 65.0093 336.423 65.0093 337.953C65.0093 339.483 63.9743 340.458 62.6243 340.458ZM76.8371 337.998C76.8371 335.493 75.1271 333.858 72.7871 333.858C70.4021 333.858 68.6471 335.568 68.6471 337.953C68.6471 340.338 70.3871 342.063 73.0721 342.063C74.4521 342.063 75.5771 341.613 76.2971 340.758L75.2921 339.603C74.7221 340.188 74.0171 340.473 73.1171 340.473C71.7221 340.473 70.7471 339.723 70.5221 338.553H76.8071C76.8221 338.373 76.8371 338.148 76.8371 337.998ZM72.7871 335.358C74.0171 335.358 74.9021 336.153 75.0521 337.308H70.5071C70.6871 336.138 71.5721 335.358 72.7871 335.358ZM83.1832 333.858C82.0132 333.858 81.0382 334.248 80.4232 334.983V333.948H78.6382V341.958H80.5132V337.908C80.5132 336.303 81.4132 335.493 82.7482 335.493C83.9482 335.493 84.6532 336.183 84.6532 337.608V341.958H86.5282V337.368C86.5282 334.953 85.1032 333.858 83.1832 333.858ZM99.9523 335.373H102.142L102.127 334.008H100.117L100.432 331.458H99.0673L98.7523 334.008H96.2323L96.5473 331.458H95.1823L94.8673 334.008H92.6773V335.373H94.7023L94.3573 338.043H92.1673V339.408H94.1923L93.8773 341.958H95.2423L95.5573 339.408H98.0923L97.7773 341.958H99.1423L99.4573 339.408H101.647V338.043H99.6223L99.9523 335.373ZM95.7223 338.043L96.0673 335.373H98.5873L98.2573 338.043H95.7223ZM107.526 342.108C110.031 342.108 111.921 340.158 111.921 336.708C111.921 333.258 110.031 331.308 107.526 331.308C105.036 331.308 103.146 333.258 103.146 336.708C103.146 340.158 105.036 342.108 107.526 342.108ZM107.526 340.413C106.101 340.413 105.111 339.243 105.111 336.708C105.111 334.173 106.101 333.003 107.526 333.003C108.966 333.003 109.956 334.173 109.956 336.708C109.956 339.243 108.966 340.413 107.526 340.413ZM117.619 342.108C120.124 342.108 122.014 340.158 122.014 336.708C122.014 333.258 120.124 331.308 117.619 331.308C115.129 331.308 113.239 333.258 113.239 336.708C113.239 340.158 115.129 342.108 117.619 342.108ZM117.619 340.413C116.194 340.413 115.204 339.243 115.204 336.708C115.204 334.173 116.194 333.003 117.619 333.003C119.059 333.003 120.049 334.173 120.049 336.708C120.049 339.243 119.059 340.413 117.619 340.413ZM125.914 340.308L128.719 337.638C130.174 336.273 130.459 335.343 130.459 334.323C130.459 332.463 128.989 331.308 126.709 331.308C124.984 331.308 123.529 331.953 122.719 333.048L124.084 334.098C124.669 333.348 125.524 333.003 126.544 333.003C127.834 333.003 128.494 333.558 128.494 334.518C128.494 335.103 128.314 335.718 127.294 336.693L123.124 340.653V341.958H130.864V340.308H125.914Z" fill="#181818"/>
<path d="M50.88 365.957C50.88 363.177 48.46 362.477 46.24 361.937V357.897C47.3 358.017 48.42 358.357 49.48 358.977L50.3 356.957C49.22 356.257 47.72 355.817 46.24 355.737V353.517H44.6V355.777C41.48 356.077 40 357.857 40 359.897C40 362.677 42.38 363.397 44.6 363.937V367.937C43.08 367.797 41.58 367.217 40.6 366.417L39.7 368.437C40.74 369.337 42.64 369.977 44.6 370.097V372.317H46.24V370.077C49.38 369.757 50.88 367.997 50.88 365.957ZM42.58 359.777C42.58 358.897 43.18 358.177 44.6 357.957V361.517C43.44 361.177 42.58 360.737 42.58 359.777ZM46.24 367.897V364.357C47.44 364.697 48.32 365.157 48.32 366.137C48.32 366.997 47.7 367.677 46.24 367.897ZM51.5428 355.917V358.097H54.5028V369.917H57.1028V355.917H51.5428ZM65.72 370.117C69.06 370.117 71.58 367.517 71.58 362.917C71.58 358.317 69.06 355.717 65.72 355.717C62.4 355.717 59.88 358.317 59.88 362.917C59.88 367.517 62.4 370.117 65.72 370.117ZM65.72 367.857C63.82 367.857 62.5 366.297 62.5 362.917C62.5 359.537 63.82 357.977 65.72 357.977C67.64 357.977 68.96 359.537 68.96 362.917C68.96 366.297 67.64 367.857 65.72 367.857ZM74.6827 366.737C73.7627 366.737 73.0627 367.397 73.0627 368.397C73.0627 369.117 73.4427 369.637 74.0027 369.877L73.2027 372.937H74.8227L75.8427 370.117C76.2027 369.197 76.3027 368.837 76.3027 368.397C76.3027 367.417 75.6227 366.737 74.6827 366.737ZM83.5911 370.117C86.9311 370.117 89.4511 367.517 89.4511 362.917C89.4511 358.317 86.9311 355.717 83.5911 355.717C80.2711 355.717 77.7511 358.317 77.7511 362.917C77.7511 367.517 80.2711 370.117 83.5911 370.117ZM83.5911 367.857C81.6911 367.857 80.3711 366.297 80.3711 362.917C80.3711 359.537 81.6911 357.977 83.5911 357.977C85.5111 357.977 86.8311 359.537 86.8311 362.917C86.8311 366.297 85.5111 367.857 83.5911 367.857ZM97.0481 370.117C100.388 370.117 102.908 367.517 102.908 362.917C102.908 358.317 100.388 355.717 97.0481 355.717C93.7281 355.717 91.2081 358.317 91.2081 362.917C91.2081 367.517 93.7281 370.117 97.0481 370.117ZM97.0481 367.857C95.1481 367.857 93.8281 366.297 93.8281 362.917C93.8281 359.537 95.1481 357.977 97.0481 357.977C98.9681 357.977 100.288 359.537 100.288 362.917C100.288 366.297 98.9681 367.857 97.0481 367.857Z" fill="#161616"/>
<path d="M47.37 390.217C47.37 388.237 45.6 387.787 43.89 387.367V383.017C44.805 383.047 45.81 383.332 46.65 383.902L46.935 383.287C46.155 382.717 45.015 382.372 43.89 382.342V380.617H43.335V382.357C41.055 382.492 40.05 383.737 40.05 385.132C40.05 387.067 41.7 387.562 43.335 387.967V392.317C42.015 392.257 40.785 391.702 40.11 390.997L39.765 391.567C40.485 392.362 41.865 392.932 43.335 392.992V394.717H43.89V392.992C46.275 392.887 47.37 391.642 47.37 390.217ZM40.815 385.117C40.815 384.052 41.595 383.152 43.335 383.032V387.232C41.985 386.887 40.815 386.452 40.815 385.117ZM43.89 392.317V388.102C45.315 388.462 46.605 388.867 46.605 390.262C46.605 391.342 45.765 392.227 43.89 392.317ZM48.1291 382.417V383.107H50.6941V392.917H51.4591V382.417H48.1291ZM58.2172 392.992C60.6322 392.992 62.3272 390.952 62.3272 387.667C62.3272 384.382 60.6322 382.342 58.2172 382.342C55.8022 382.342 54.1072 384.382 54.1072 387.667C54.1072 390.952 55.8022 392.992 58.2172 392.992ZM58.2172 392.287C56.2372 392.287 54.8722 390.592 54.8722 387.667C54.8722 384.742 56.2372 383.047 58.2172 383.047C60.1972 383.047 61.5622 384.742 61.5622 387.667C61.5622 390.592 60.1972 392.287 58.2172 392.287ZM64.4941 391.702C64.1341 391.702 63.8641 391.972 63.8641 392.332C63.8641 392.647 64.0591 392.872 64.3591 392.947L63.8641 395.062H64.4041L64.9891 393.022C65.0791 392.707 65.1241 392.557 65.1241 392.332C65.1241 392.002 64.8691 391.702 64.4941 391.702ZM69.3871 386.812H67.8871L68.2921 383.107H73.2121V382.417H67.6471L67.0921 387.502H69.2221C72.0721 387.502 72.9871 388.417 72.9871 389.917C72.9871 391.312 71.9971 392.287 70.0621 392.287C68.6521 392.287 67.4071 391.732 66.7771 390.997L66.3871 391.582C67.1221 392.422 68.5471 392.992 70.0771 392.992C72.5371 392.992 73.7521 391.642 73.7521 389.887C73.7521 388.027 72.5821 386.812 69.3871 386.812ZM79.2963 392.992C81.7113 392.992 83.4063 390.952 83.4063 387.667C83.4063 384.382 81.7113 382.342 79.2963 382.342C76.8813 382.342 75.1863 384.382 75.1863 387.667C75.1863 390.952 76.8813 392.992 79.2963 392.992ZM79.2963 392.287C77.3163 392.287 75.9513 390.592 75.9513 387.667C75.9513 384.742 77.3163 383.047 79.2963 383.047C81.2763 383.047 82.6413 384.742 82.6413 387.667C82.6413 390.592 81.2763 392.287 79.2963 392.287Z" fill="#161616"/>
<rect x="24" y="420.917" width="362" height="96" rx="10" fill="#FFF1DD"/>
<path d="M45.315 450.067C48.57 450.067 50.97 447.787 50.97 444.667C50.97 441.547 48.57 439.267 45.315 439.267C42.06 439.267 39.66 441.562 39.66 444.667C39.66 447.772 42.06 450.067 45.315 450.067ZM45.315 448.357C43.2 448.357 41.625 446.812 41.625 444.667C41.625 442.522 43.2 440.977 45.315 440.977C47.43 440.977 49.005 442.522 49.005 444.667C49.005 446.812 47.43 448.357 45.315 448.357ZM54.642 443.077V441.907H52.857V449.917H54.732V446.032C54.732 444.397 55.632 443.557 57.057 443.557C57.192 443.557 57.327 443.572 57.492 443.602V441.817C56.157 441.817 55.182 442.237 54.642 443.077ZM64.9793 438.787V442.897C64.3493 442.162 63.4343 441.817 62.3993 441.817C60.0743 441.817 58.3493 443.422 58.3493 445.912C58.3493 448.402 60.0743 450.022 62.3993 450.022C63.4943 450.022 64.4243 449.647 65.0543 448.882V449.917H66.8543V438.787H64.9793ZM62.6243 448.417C61.2743 448.417 60.2393 447.442 60.2393 445.912C60.2393 444.382 61.2743 443.407 62.6243 443.407C63.9743 443.407 65.0093 444.382 65.0093 445.912C65.0093 447.442 63.9743 448.417 62.6243 448.417ZM76.8371 445.957C76.8371 443.452 75.1271 441.817 72.7871 441.817C70.4021 441.817 68.6471 443.527 68.6471 445.912C68.6471 448.297 70.3871 450.022 73.0721 450.022C74.4521 450.022 75.5771 449.572 76.2971 448.717L75.2921 447.562C74.7221 448.147 74.0171 448.432 73.1171 448.432C71.7221 448.432 70.7471 447.682 70.5221 446.512H76.8071C76.8221 446.332 76.8371 446.107 76.8371 445.957ZM72.7871 443.317C74.0171 443.317 74.9021 444.112 75.0521 445.267H70.5071C70.6871 444.097 71.5721 443.317 72.7871 443.317ZM83.1832 441.817C82.0132 441.817 81.0382 442.207 80.4232 442.942V441.907H78.6382V449.917H80.5132V445.867C80.5132 444.262 81.4132 443.452 82.7482 443.452C83.9482 443.452 84.6532 444.142 84.6532 445.567V449.917H86.5282V445.327C86.5282 442.912 85.1032 441.817 83.1832 441.817ZM99.9523 443.332H102.142L102.127 441.967H100.117L100.432 439.417H99.0673L98.7523 441.967H96.2323L96.5473 439.417H95.1823L94.8673 441.967H92.6773V443.332H94.7023L94.3573 446.002H92.1673V447.367H94.1923L93.8773 449.917H95.2423L95.5573 447.367H98.0923L97.7773 449.917H99.1423L99.4573 447.367H101.647V446.002H99.6223L99.9523 443.332ZM95.7223 446.002L96.0673 443.332H98.5873L98.2573 446.002H95.7223ZM107.526 450.067C110.031 450.067 111.921 448.117 111.921 444.667C111.921 441.217 110.031 439.267 107.526 439.267C105.036 439.267 103.146 441.217 103.146 444.667C103.146 448.117 105.036 450.067 107.526 450.067ZM107.526 448.372C106.101 448.372 105.111 447.202 105.111 444.667C105.111 442.132 106.101 440.962 107.526 440.962C108.966 440.962 109.956 442.132 109.956 444.667C109.956 447.202 108.966 448.372 107.526 448.372ZM117.619 450.067C120.124 450.067 122.014 448.117 122.014 444.667C122.014 441.217 120.124 439.267 117.619 439.267C115.129 439.267 113.239 441.217 113.239 444.667C113.239 448.117 115.129 450.067 117.619 450.067ZM117.619 448.372C116.194 448.372 115.204 447.202 115.204 444.667C115.204 442.132 116.194 440.962 117.619 440.962C119.059 440.962 120.049 442.132 120.049 444.667C120.049 447.202 119.059 448.372 117.619 448.372ZM127.655 443.752L130.205 440.722V439.417H123.05V441.052H127.82L125.435 443.887V445.222H126.395C127.985 445.222 128.675 445.837 128.675 446.782C128.675 447.757 127.85 448.372 126.455 448.372C125.27 448.372 124.13 447.967 123.38 447.337L122.54 448.852C123.515 449.617 125 450.067 126.485 450.067C129.305 450.067 130.64 448.537 130.64 446.767C130.64 445.192 129.635 444.007 127.655 443.752Z" fill="#181818"/>
<path d="M50.88 471.957C50.88 469.177 48.46 468.477 46.24 467.937V463.897C47.3 464.017 48.42 464.357 49.48 464.977L50.3 462.957C49.22 462.257 47.72 461.817 46.24 461.737V459.517H44.6V461.777C41.48 462.077 40 463.857 40 465.897C40 468.677 42.38 469.397 44.6 469.937V473.937C43.08 473.797 41.58 473.217 40.6 472.417L39.7 474.437C40.74 475.337 42.64 475.977 44.6 476.097V478.317H46.24V476.077C49.38 475.757 50.88 473.997 50.88 471.957ZM42.58 465.777C42.58 464.897 43.18 464.177 44.6 463.957V467.517C43.44 467.177 42.58 466.737 42.58 465.777ZM46.24 473.897V470.357C47.44 470.697 48.32 471.157 48.32 472.137C48.32 472.997 47.7 473.677 46.24 473.897ZM51.5428 461.917V464.097H54.5028V475.917H57.1028V461.917H51.5428ZM65.72 476.117C69.06 476.117 71.58 473.517 71.58 468.917C71.58 464.317 69.06 461.717 65.72 461.717C62.4 461.717 59.88 464.317 59.88 468.917C59.88 473.517 62.4 476.117 65.72 476.117ZM65.72 473.857C63.82 473.857 62.5 472.297 62.5 468.917C62.5 465.537 63.82 463.977 65.72 463.977C67.64 463.977 68.96 465.537 68.96 468.917C68.96 472.297 67.64 473.857 65.72 473.857ZM74.6827 472.737C73.7627 472.737 73.0627 473.397 73.0627 474.397C73.0627 475.117 73.4427 475.637 74.0027 475.877L73.2027 478.937H74.8227L75.8427 476.117C76.2027 475.197 76.3027 474.837 76.3027 474.397C76.3027 473.417 75.6227 472.737 74.6827 472.737ZM81.7208 473.717L85.4608 470.157C87.4008 468.337 87.7808 467.097 87.7808 465.737C87.7808 463.257 85.8208 461.717 82.7808 461.717C80.4808 461.717 78.5408 462.577 77.4608 464.037L79.2808 465.437C80.0608 464.437 81.2008 463.977 82.5608 463.977C84.2808 463.977 85.1608 464.717 85.1608 465.997C85.1608 466.777 84.9208 467.597 83.5608 468.897L78.0008 474.177V475.917H88.3208V473.717H81.7208ZM95.6028 476.117C98.9428 476.117 101.463 473.517 101.463 468.917C101.463 464.317 98.9428 461.717 95.6028 461.717C92.2828 461.717 89.7628 464.317 89.7628 468.917C89.7628 473.517 92.2828 476.117 95.6028 476.117ZM95.6028 473.857C93.7028 473.857 92.3828 472.297 92.3828 468.917C92.3828 465.537 93.7028 463.977 95.6028 463.977C97.5228 463.977 98.8428 465.537 98.8428 468.917C98.8428 472.297 97.5228 473.857 95.6028 473.857Z" fill="#161616"/>
<path d="M47.37 496.217C47.37 494.237 45.6 493.787 43.89 493.367V489.017C44.805 489.047 45.81 489.332 46.65 489.902L46.935 489.287C46.155 488.717 45.015 488.372 43.89 488.342V486.617H43.335V488.357C41.055 488.492 40.05 489.737 40.05 491.132C40.05 493.067 41.7 493.562 43.335 493.967V498.317C42.015 498.257 40.785 497.702 40.11 496.997L39.765 497.567C40.485 498.362 41.865 498.932 43.335 498.992V500.717H43.89V498.992C46.275 498.887 47.37 497.642 47.37 496.217ZM40.815 491.117C40.815 490.052 41.595 489.152 43.335 489.032V493.232C41.985 492.887 40.815 492.452 40.815 491.117ZM43.89 498.317V494.102C45.315 494.462 46.605 494.867 46.605 496.262C46.605 497.342 45.765 498.227 43.89 498.317ZM48.1291 488.417V489.107H50.6941V498.917H51.4591V488.417H48.1291ZM58.2172 498.992C60.6322 498.992 62.3272 496.952 62.3272 493.667C62.3272 490.382 60.6322 488.342 58.2172 488.342C55.8022 488.342 54.1072 490.382 54.1072 493.667C54.1072 496.952 55.8022 498.992 58.2172 498.992ZM58.2172 498.287C56.2372 498.287 54.8722 496.592 54.8722 493.667C54.8722 490.742 56.2372 489.047 58.2172 489.047C60.1972 489.047 61.5622 490.742 61.5622 493.667C61.5622 496.592 60.1972 498.287 58.2172 498.287ZM64.4941 497.702C64.1341 497.702 63.8641 497.972 63.8641 498.332C63.8641 498.647 64.0591 498.872 64.3591 498.947L63.8641 501.062H64.4041L64.9891 499.022C65.0791 498.707 65.1241 498.557 65.1241 498.332C65.1241 498.002 64.8691 497.702 64.4941 497.702ZM66.3459 488.417V491.117H67.0959V489.107H72.9909L68.5209 498.917H69.3609L73.8759 488.957V488.417H66.3459ZM79.1938 498.992C81.6088 498.992 83.3038 496.952 83.3038 493.667C83.3038 490.382 81.6088 488.342 79.1938 488.342C76.7788 488.342 75.0838 490.382 75.0838 493.667C75.0838 496.952 76.7788 498.992 79.1938 498.992ZM79.1938 498.287C77.2138 498.287 75.8488 496.592 75.8488 493.667C75.8488 490.742 77.2138 489.047 79.1938 489.047C81.1738 489.047 82.5388 490.742 82.5388 493.667C82.5388 496.592 81.1738 498.287 79.1938 498.287Z" fill="#161616"/>
<path d="M36.326 656.112C38.916 656.112 40.12 654.824 40.12 653.326C40.12 649.728 34.184 651.226 34.184 648.832C34.184 647.978 34.898 647.278 36.564 647.278C37.432 647.278 38.398 647.53 39.252 648.076L39.714 646.956C38.902 646.396 37.712 646.088 36.564 646.088C33.988 646.088 32.812 647.376 32.812 648.888C32.812 652.528 38.748 651.016 38.748 653.41C38.748 654.264 38.02 654.922 36.326 654.922C35.066 654.922 33.82 654.446 33.092 653.788L32.574 654.88C33.358 655.608 34.828 656.112 36.326 656.112ZM47.2413 648.58V652.416C47.2413 654.012 46.3453 654.88 44.9453 654.88C43.6713 654.88 42.9433 654.152 42.9433 652.696V648.58H41.5993V652.85C41.5993 655.034 42.8733 656.084 44.7913 656.084C45.8413 656.084 46.7653 655.65 47.3113 654.88V656H48.5853V648.58H47.2413ZM54.7779 648.51C53.7279 648.51 52.8039 648.902 52.1879 649.7V645.612H50.8439V656H52.1319V654.824C52.7339 655.664 53.6859 656.084 54.7779 656.084C56.9479 656.084 58.5299 654.558 58.5299 652.29C58.5299 650.022 56.9479 648.51 54.7779 648.51ZM54.6659 654.908C53.2519 654.908 52.1739 653.872 52.1739 652.29C52.1739 650.708 53.2519 649.686 54.6659 649.686C56.0939 649.686 57.1719 650.708 57.1719 652.29C57.1719 653.872 56.0939 654.908 54.6659 654.908ZM63.8389 654.6C63.5589 654.824 63.1809 654.95 62.7889 654.95C62.0469 654.95 61.6269 654.502 61.6269 653.704V649.686H63.7549V648.58H61.6269V646.956H60.2829V648.58H59.0229V649.686H60.2829V653.76C60.2829 655.258 61.1369 656.084 62.6349 656.084C63.2369 656.084 63.8529 655.916 64.2589 655.566L63.8389 654.6ZM68.5157 656.084C70.7417 656.084 72.3657 654.502 72.3657 652.29C72.3657 650.078 70.7417 648.51 68.5157 648.51C66.2897 648.51 64.6517 650.078 64.6517 652.29C64.6517 654.502 66.2897 656.084 68.5157 656.084ZM68.5157 654.908C67.0877 654.908 66.0097 653.872 66.0097 652.29C66.0097 650.708 67.0877 649.686 68.5157 649.686C69.9437 649.686 71.0077 650.708 71.0077 652.29C71.0077 653.872 69.9437 654.908 68.5157 654.908ZM77.6764 654.6C77.3964 654.824 77.0184 654.95 76.6264 654.95C75.8844 654.95 75.4644 654.502 75.4644 653.704V649.686H77.5924V648.58H75.4644V646.956H74.1204V648.58H72.8604V649.686H74.1204V653.76C74.1204 655.258 74.9744 656.084 76.4724 656.084C77.0744 656.084 77.6904 655.916 78.0964 655.566L77.6764 654.6ZM82.1233 648.51C80.9333 648.51 79.8273 648.846 79.0573 649.462L79.6173 650.47C80.1913 649.98 81.0873 649.672 81.9693 649.672C83.2993 649.672 83.9573 650.33 83.9573 651.464V651.73H81.8293C79.6173 651.73 78.8473 652.71 78.8473 653.9C78.8473 655.188 79.9113 656.084 81.5913 656.084C82.7533 656.084 83.5793 655.692 84.0273 655.02V656H85.3013V651.52C85.3013 649.49 84.1533 648.51 82.1233 648.51ZM81.8153 655.048C80.7933 655.048 80.1773 654.586 80.1773 653.844C80.1773 653.214 80.5553 652.696 81.8853 652.696H83.9573V653.732C83.6213 654.586 82.8233 655.048 81.8153 655.048ZM87.4885 656H88.8325V645.612H87.4885V656Z" fill="#181818"/>
<path d="M346.065 653.326C346.065 651.408 344.385 650.946 342.817 650.554V647.292C343.601 647.334 344.441 647.6 345.197 648.076L345.659 646.956C344.917 646.452 343.867 646.144 342.817 646.102V644.52H341.921V646.116C339.751 646.298 338.757 647.502 338.757 648.888C338.757 650.792 340.381 651.282 341.921 651.66V654.908C340.787 654.838 339.695 654.39 339.037 653.788L338.519 654.88C339.247 655.552 340.549 656.028 341.921 656.098V657.68H342.817V656.098C345.029 655.916 346.065 654.712 346.065 653.326ZM340.129 648.832C340.129 648.09 340.675 647.46 341.921 647.306V650.33C340.913 650.064 340.129 649.7 340.129 648.832ZM342.817 654.894V651.884C343.853 652.164 344.693 652.514 344.693 653.41C344.693 654.166 344.119 654.768 342.817 654.894ZM348.875 654.782L351.871 651.898C353.201 650.624 353.481 649.77 353.481 648.818C353.481 647.138 352.165 646.088 350.121 646.088C348.595 646.088 347.293 646.634 346.537 647.572L347.489 648.398C348.091 647.67 348.945 647.334 349.995 647.334C351.367 647.334 352.081 647.95 352.081 648.958C352.081 649.574 351.885 650.19 350.849 651.198L346.859 655.048V656H353.901V654.782H348.875ZM356.614 654.782L359.61 651.898C360.94 650.624 361.22 649.77 361.22 648.818C361.22 647.138 359.904 646.088 357.86 646.088C356.334 646.088 355.032 646.634 354.276 647.572L355.228 648.398C355.83 647.67 356.684 647.334 357.734 647.334C359.106 647.334 359.82 647.95 359.82 648.958C359.82 649.574 359.624 650.19 358.588 651.198L354.598 655.048V656H361.64V654.782H356.614ZM363.565 654.166C363.033 654.166 362.627 654.558 362.627 655.118C362.627 655.538 362.865 655.86 363.215 655.986L362.697 658.072H363.579L364.237 656.126C364.419 655.608 364.475 655.398 364.475 655.118C364.475 654.572 364.097 654.166 363.565 654.166ZM367.498 654.782L370.494 651.898C371.824 650.624 372.104 649.77 372.104 648.818C372.104 647.138 370.788 646.088 368.744 646.088C367.218 646.088 365.916 646.634 365.16 647.572L366.112 648.398C366.714 647.67 367.568 647.334 368.618 647.334C369.99 647.334 370.704 647.95 370.704 648.958C370.704 649.574 370.508 650.19 369.472 651.198L365.482 655.048V656H372.524V654.782H367.498ZM377.338 656.112C379.62 656.112 381.328 654.292 381.328 651.1C381.328 647.908 379.62 646.088 377.338 646.088C375.042 646.088 373.334 647.908 373.334 651.1C373.334 654.292 375.042 656.112 377.338 656.112ZM377.338 654.866C375.798 654.866 374.734 653.606 374.734 651.1C374.734 648.594 375.798 647.334 377.338 647.334C378.864 647.334 379.928 648.594 379.928 651.1C379.928 653.606 378.864 654.866 377.338 654.866Z" fill="#181818"/>
<path d="M33.47 697H37.6C40.75 697 42.892 695.012 42.892 692.1C42.892 689.188 40.75 687.2 37.6 687.2H33.47V697ZM34.87 695.782V688.418H37.516C39.938 688.418 41.492 689.902 41.492 692.1C41.492 694.298 39.938 695.782 37.516 695.782H34.87ZM51.2464 693.332C51.2464 691.05 49.7204 689.51 47.5784 689.51C45.4364 689.51 43.8544 691.092 43.8544 693.29C43.8544 695.502 45.4504 697.084 47.8444 697.084C49.0764 697.084 50.0984 696.664 50.7704 695.88L50.0284 695.012C49.4824 695.614 48.7544 695.908 47.8864 695.908C46.4164 695.908 45.3664 695.04 45.1984 693.738H51.2184C51.2324 693.612 51.2464 693.444 51.2464 693.332ZM47.5784 690.644C48.8804 690.644 49.8184 691.526 49.9584 692.772H45.1984C45.3384 691.512 46.2904 690.644 47.5784 690.644ZM52.8127 697H54.1567V686.612H52.8127V697ZM57.0948 688.152C57.6268 688.152 58.0048 687.76 58.0048 687.256C58.0048 686.78 57.6128 686.402 57.0948 686.402C56.5768 686.402 56.1848 686.794 56.1848 687.284C56.1848 687.774 56.5768 688.152 57.0948 688.152ZM56.4228 697H57.7668V689.58H56.4228V697ZM65.283 689.58L62.679 695.53L60.131 689.58H58.731L61.979 697H63.351L66.599 689.58H65.283ZM74.0542 693.332C74.0542 691.05 72.5282 689.51 70.3862 689.51C68.2442 689.51 66.6622 691.092 66.6622 693.29C66.6622 695.502 68.2582 697.084 70.6522 697.084C71.8842 697.084 72.9062 696.664 73.5782 695.88L72.8362 695.012C72.2902 695.614 71.5622 695.908 70.6942 695.908C69.2242 695.908 68.1742 695.04 68.0062 693.738H74.0262C74.0402 693.612 74.0542 693.444 74.0542 693.332ZM70.3862 690.644C71.6882 690.644 72.6262 691.526 72.7662 692.772H68.0062C68.1462 691.512 69.0982 690.644 70.3862 690.644ZM76.9085 690.826V689.58H75.6205V697H76.9645V693.304C76.9645 691.68 77.8605 690.798 79.3025 690.798C79.4005 690.798 79.4985 690.798 79.6105 690.812V689.51C78.3085 689.51 77.3845 689.958 76.9085 690.826ZM86.5178 689.58L83.9558 695.516L81.3658 689.58H79.9658L83.2418 696.986L83.0038 697.504C82.6398 698.358 82.2338 698.652 81.5898 698.652C81.0858 698.652 80.6238 698.456 80.2598 698.106L79.6858 699.114C80.1478 699.562 80.8758 699.8 81.5898 699.8C82.7238 699.8 83.5778 699.31 84.2358 697.742L87.8338 689.58H86.5178Z" fill="#181818"/>
<path d="M342.148 693.738H345.914V692.576H342.148V693.738ZM354.297 694.326C354.297 692.408 352.617 691.946 351.049 691.554V688.292C351.833 688.334 352.673 688.6 353.429 689.076L353.891 687.956C353.149 687.452 352.099 687.144 351.049 687.102V685.52H350.153V687.116C347.983 687.298 346.989 688.502 346.989 689.888C346.989 691.792 348.613 692.282 350.153 692.66V695.908C349.019 695.838 347.927 695.39 347.269 694.788L346.751 695.88C347.479 696.552 348.781 697.028 350.153 697.098V698.68H351.049V697.098C353.261 696.916 354.297 695.712 354.297 694.326ZM348.361 689.832C348.361 689.09 348.907 688.46 350.153 688.306V691.33C349.145 691.064 348.361 690.7 348.361 689.832ZM351.049 695.894V692.884C352.085 693.164 352.925 693.514 352.925 694.41C352.925 695.166 352.351 695.768 351.049 695.894ZM359.248 697.112C361.53 697.112 363.238 695.292 363.238 692.1C363.238 688.908 361.53 687.088 359.248 687.088C356.952 687.088 355.244 688.908 355.244 692.1C355.244 695.292 356.952 697.112 359.248 697.112ZM359.248 695.866C357.708 695.866 356.644 694.606 356.644 692.1C356.644 689.594 357.708 688.334 359.248 688.334C360.774 688.334 361.838 689.594 361.838 692.1C361.838 694.606 360.774 695.866 359.248 695.866ZM365.042 697.084C365.546 697.084 365.966 696.678 365.966 696.118C365.966 695.558 365.546 695.166 365.042 695.166C364.524 695.166 364.09 695.558 364.09 696.118C364.09 696.678 364.524 697.084 365.042 697.084ZM366.56 687.2V690.168H367.904V688.418H372.384L368.506 697H369.99L373.952 688.152V687.2H366.56ZM377.433 691.106H376.341L376.607 688.418H380.961V687.2H375.431L374.913 692.324H377.139C379.407 692.324 380.107 693.01 380.107 694.116C380.107 695.18 379.267 695.866 377.783 695.866C376.593 695.866 375.501 695.432 374.843 694.816L374.199 695.922C375.039 696.664 376.411 697.112 377.797 697.112C380.303 697.112 381.507 695.754 381.507 694.06C381.507 692.324 380.359 691.106 377.433 691.106Z" fill="#181818"/>
<path d="M37.53 736.112C40.12 736.112 41.674 734.614 41.674 731.772V726.2H40.316V731.716C40.316 733.886 39.308 734.866 37.544 734.866C35.78 734.866 34.786 733.886 34.786 731.716V726.2H33.386V731.772C33.386 734.614 34.954 736.112 37.53 736.112ZM46.1762 736.084C48.1502 736.084 49.3822 735.23 49.3822 733.886C49.3822 731.002 44.6782 732.43 44.6782 730.68C44.6782 730.092 45.2522 729.658 46.4282 729.658C47.1562 729.658 47.8982 729.812 48.5702 730.246L49.1442 729.182C48.5002 728.762 47.4082 728.51 46.4422 728.51C44.5382 728.51 43.3482 729.406 43.3482 730.736C43.3482 733.69 48.0382 732.248 48.0382 733.914C48.0382 734.544 47.5202 734.922 46.2742 734.922C45.3082 734.922 44.3002 734.6 43.6702 734.152L43.1102 735.216C43.7262 735.706 44.9442 736.084 46.1762 736.084ZM53.9399 736.084C56.1659 736.084 57.7899 734.502 57.7899 732.29C57.7899 730.078 56.1659 728.51 53.9399 728.51C51.7139 728.51 50.0759 730.078 50.0759 732.29C50.0759 734.502 51.7139 736.084 53.9399 736.084ZM53.9399 734.908C52.5119 734.908 51.4339 733.872 51.4339 732.29C51.4339 730.708 52.5119 729.686 53.9399 729.686C55.3679 729.686 56.4319 730.708 56.4319 732.29C56.4319 733.872 55.3679 734.908 53.9399 734.908ZM68.4644 725.612V729.7C67.8484 728.902 66.9244 728.51 65.8744 728.51C63.7044 728.51 62.1224 730.022 62.1224 732.29C62.1224 734.558 63.7044 736.084 65.8744 736.084C66.9664 736.084 67.9184 735.664 68.5204 734.824V736H69.8084V725.612H68.4644ZM65.9864 734.908C64.5584 734.908 63.4804 733.872 63.4804 732.29C63.4804 730.708 64.5584 729.686 65.9864 729.686C67.4004 729.686 68.4784 730.708 68.4784 732.29C68.4784 733.872 67.4004 734.908 65.9864 734.908ZM78.7573 732.332C78.7573 730.05 77.2313 728.51 75.0893 728.51C72.9473 728.51 71.3653 730.092 71.3653 732.29C71.3653 734.502 72.9613 736.084 75.3553 736.084C76.5873 736.084 77.6093 735.664 78.2813 734.88L77.5393 734.012C76.9933 734.614 76.2653 734.908 75.3973 734.908C73.9273 734.908 72.8773 734.04 72.7093 732.738H78.7293C78.7433 732.612 78.7573 732.444 78.7573 732.332ZM75.0893 729.644C76.3913 729.644 77.3293 730.526 77.4693 731.772H72.7093C72.8493 730.512 73.8013 729.644 75.0893 729.644ZM83.7834 736H85.1274V725.612H83.7834V736ZM90.0955 728.51C88.9055 728.51 87.7995 728.846 87.0295 729.462L87.5895 730.47C88.1635 729.98 89.0595 729.672 89.9415 729.672C91.2715 729.672 91.9295 730.33 91.9295 731.464V731.73H89.8015C87.5895 731.73 86.8195 732.71 86.8195 733.9C86.8195 735.188 87.8835 736.084 89.5635 736.084C90.7255 736.084 91.5515 735.692 91.9995 735.02V736H93.2735V731.52C93.2735 729.49 92.1255 728.51 90.0955 728.51ZM89.7875 735.048C88.7655 735.048 88.1495 734.586 88.1495 733.844C88.1495 733.214 88.5275 732.696 89.8575 732.696H91.9295V733.732C91.5935 734.586 90.7955 735.048 89.7875 735.048ZM102.854 728.51C101.762 728.51 100.81 728.93 100.208 729.756V728.58H98.9205V738.716H100.264V734.88C100.88 735.678 101.804 736.084 102.854 736.084C105.024 736.084 106.606 734.572 106.606 732.29C106.606 730.022 105.024 728.51 102.854 728.51ZM102.742 734.908C101.328 734.908 100.25 733.872 100.25 732.29C100.25 730.722 101.328 729.686 102.742 729.686C104.17 729.686 105.248 730.722 105.248 732.29C105.248 733.872 104.17 734.908 102.742 734.908ZM108.163 736H109.507V725.612H108.163V736ZM114.476 728.51C113.286 728.51 112.18 728.846 111.41 729.462L111.97 730.47C112.544 729.98 113.44 729.672 114.322 729.672C115.652 729.672 116.31 730.33 116.31 731.464V731.73H114.182C111.97 731.73 111.2 732.71 111.2 733.9C111.2 735.188 112.264 736.084 113.944 736.084C115.106 736.084 115.932 735.692 116.38 735.02V736H117.654V731.52C117.654 729.49 116.506 728.51 114.476 728.51ZM114.168 735.048C113.146 735.048 112.53 734.586 112.53 733.844C112.53 733.214 112.908 732.696 114.238 732.696H116.31V733.732C115.974 734.586 115.176 735.048 114.168 735.048ZM123.593 734.6C123.313 734.824 122.935 734.95 122.543 734.95C121.801 734.95 121.381 734.502 121.381 733.704V729.686H123.509V728.58H121.381V726.956H120.037V728.58H118.777V729.686H120.037V733.76C120.037 735.258 120.891 736.084 122.389 736.084C122.991 736.084 123.607 735.916 124.013 735.566L123.593 734.6ZM128.04 728.51C126.85 728.51 125.744 728.846 124.974 729.462L125.534 730.47C126.108 729.98 127.004 729.672 127.886 729.672C129.216 729.672 129.874 730.33 129.874 731.464V731.73H127.746C125.534 731.73 124.764 732.71 124.764 733.9C124.764 735.188 125.828 736.084 127.508 736.084C128.67 736.084 129.496 735.692 129.944 735.02V736H131.218V731.52C131.218 729.49 130.07 728.51 128.04 728.51ZM127.732 735.048C126.71 735.048 126.094 734.586 126.094 733.844C126.094 733.214 126.472 732.696 127.802 732.696H129.874V733.732C129.538 734.586 128.74 735.048 127.732 735.048ZM136.121 726.634C136.513 726.634 136.877 726.774 137.157 726.984L137.563 725.962C137.185 725.668 136.625 725.528 136.051 725.528C134.469 725.528 133.601 726.48 133.601 727.922V728.58H132.341V729.686H133.601V736H134.945V729.686H137.073V728.58H134.917V727.936C134.917 727.082 135.323 726.634 136.121 726.634ZM141.109 736.084C143.335 736.084 144.959 734.502 144.959 732.29C144.959 730.078 143.335 728.51 141.109 728.51C138.883 728.51 137.245 730.078 137.245 732.29C137.245 734.502 138.883 736.084 141.109 736.084ZM141.109 734.908C139.681 734.908 138.603 733.872 138.603 732.29C138.603 730.708 139.681 729.686 141.109 729.686C142.537 729.686 143.601 730.708 143.601 732.29C143.601 733.872 142.537 734.908 141.109 734.908ZM147.806 729.826V728.58H146.518V736H147.862V732.304C147.862 730.68 148.758 729.798 150.2 729.798C150.298 729.798 150.396 729.798 150.508 729.812V728.51C149.206 728.51 148.282 728.958 147.806 729.826ZM161.146 728.51C159.886 728.51 158.85 729.042 158.29 729.882C157.8 728.958 156.848 728.51 155.714 728.51C154.594 728.51 153.684 728.93 153.152 729.686V728.58H151.864V736H153.208V732.178C153.208 730.568 154.09 729.714 155.434 729.714C156.652 729.714 157.352 730.428 157.352 731.884V736H158.696V732.178C158.696 730.568 159.578 729.714 160.922 729.714C162.14 729.714 162.84 730.428 162.84 731.884V736H164.184V731.73C164.184 729.546 162.952 728.51 161.146 728.51ZM169.059 728.51C167.869 728.51 166.763 728.846 165.993 729.462L166.553 730.47C167.127 729.98 168.023 729.672 168.905 729.672C170.235 729.672 170.893 730.33 170.893 731.464V731.73H168.765C166.553 731.73 165.783 732.71 165.783 733.9C165.783 735.188 166.847 736.084 168.527 736.084C169.689 736.084 170.515 735.692 170.963 735.02V736H172.237V731.52C172.237 729.49 171.089 728.51 169.059 728.51ZM168.751 735.048C167.729 735.048 167.113 734.586 167.113 733.844C167.113 733.214 167.491 732.696 168.821 732.696H170.893V733.732C170.557 734.586 169.759 735.048 168.751 735.048Z" fill="#181818"/>
<path d="M342.148 732.738H345.914V731.576H342.148V732.738ZM354.297 733.326C354.297 731.408 352.617 730.946 351.049 730.554V727.292C351.833 727.334 352.673 727.6 353.429 728.076L353.891 726.956C353.149 726.452 352.099 726.144 351.049 726.102V724.52H350.153V726.116C347.983 726.298 346.989 727.502 346.989 728.888C346.989 730.792 348.613 731.282 350.153 731.66V734.908C349.019 734.838 347.927 734.39 347.269 733.788L346.751 734.88C347.479 735.552 348.781 736.028 350.153 736.098V737.68H351.049V736.098C353.261 735.916 354.297 734.712 354.297 733.326ZM348.361 728.832C348.361 728.09 348.907 727.46 350.153 727.306V730.33C349.145 730.064 348.361 729.7 348.361 728.832ZM351.049 734.894V731.884C352.085 732.164 352.925 732.514 352.925 733.41C352.925 734.166 352.351 734.768 351.049 734.894ZM359.248 736.112C361.53 736.112 363.238 734.292 363.238 731.1C363.238 727.908 361.53 726.088 359.248 726.088C356.952 726.088 355.244 727.908 355.244 731.1C355.244 734.292 356.952 736.112 359.248 736.112ZM359.248 734.866C357.708 734.866 356.644 733.606 356.644 731.1C356.644 728.594 357.708 727.334 359.248 727.334C360.774 727.334 361.838 728.594 361.838 731.1C361.838 733.606 360.774 734.866 359.248 734.866ZM365.042 736.084C365.546 736.084 365.966 735.678 365.966 735.118C365.966 734.558 365.546 734.166 365.042 734.166C364.524 734.166 364.09 734.558 364.09 735.118C364.09 735.678 364.524 736.084 365.042 736.084ZM366.56 726.2V729.168H367.904V727.418H372.384L368.506 736H369.99L373.952 727.152V726.2H366.56ZM377.433 730.106H376.341L376.607 727.418H380.961V726.2H375.431L374.913 731.324H377.139C379.407 731.324 380.107 732.01 380.107 733.116C380.107 734.18 379.267 734.866 377.783 734.866C376.593 734.866 375.501 734.432 374.843 733.816L374.199 734.922C375.039 735.664 376.411 736.112 377.797 736.112C380.303 736.112 381.507 734.754 381.507 733.06C381.507 731.324 380.359 730.106 377.433 730.106Z" fill="#181818"/>
<path d="M36.392 764.966H32.072V763.4H42.494V764.966H38.174V776H36.392V764.966ZM47.0041 776.108C46.0561 776.108 45.2041 775.898 44.4481 775.478C43.6921 775.058 43.0981 774.482 42.6661 773.75C42.2461 773.006 42.0361 772.166 42.0361 771.23C42.0361 770.294 42.2461 769.46 42.6661 768.728C43.0981 767.984 43.6921 767.408 44.4481 767C45.2041 766.58 46.0561 766.37 47.0041 766.37C47.9521 766.37 48.7981 766.58 49.5421 767C50.2981 767.408 50.8861 767.984 51.3061 768.728C51.7381 769.46 51.9541 770.294 51.9541 771.23C51.9541 772.166 51.7381 773.006 51.3061 773.75C50.8861 774.482 50.2981 775.058 49.5421 775.478C48.7981 775.898 47.9521 776.108 47.0041 776.108ZM47.0041 774.596C47.6161 774.596 48.1621 774.458 48.6421 774.182C49.1341 773.894 49.5181 773.498 49.7941 772.994C50.0701 772.478 50.2081 771.89 50.2081 771.23C50.2081 770.57 50.0701 769.988 49.7941 769.484C49.5181 768.968 49.1341 768.572 48.6421 768.296C48.1621 768.02 47.6161 767.882 47.0041 767.882C46.3921 767.882 45.8401 768.02 45.3481 768.296C44.8681 768.572 44.4841 768.968 44.1961 769.484C43.9201 769.988 43.7821 770.57 43.7821 771.23C43.7821 771.89 43.9201 772.478 44.1961 772.994C44.4841 773.498 44.8681 773.894 45.3481 774.182C45.8401 774.458 46.3921 774.596 47.0041 774.596ZM59.4079 775.442C59.1559 775.658 58.8439 775.826 58.4719 775.946C58.0999 776.054 57.7159 776.108 57.3199 776.108C56.3599 776.108 55.6159 775.85 55.0879 775.334C54.5599 774.818 54.2959 774.08 54.2959 773.12V767.882H52.6759V766.46H54.2959V764.372H56.0239V766.46H58.7599V767.882H56.0239V773.048C56.0239 773.564 56.1499 773.96 56.4019 774.236C56.6659 774.512 57.0379 774.65 57.5179 774.65C58.0459 774.65 58.4959 774.5 58.8679 774.2L59.4079 775.442ZM64.671 766.37C65.991 766.37 66.999 766.694 67.695 767.342C68.403 767.99 68.757 768.956 68.757 770.24V776H67.119V774.74C66.831 775.184 66.417 775.526 65.877 775.766C65.349 775.994 64.719 776.108 63.987 776.108C62.919 776.108 62.061 775.85 61.413 775.334C60.777 774.818 60.459 774.14 60.459 773.3C60.459 772.46 60.765 771.788 61.377 771.284C61.989 770.768 62.961 770.51 64.293 770.51H67.029V770.168C67.029 769.424 66.813 768.854 66.381 768.458C65.949 768.062 65.313 767.864 64.473 767.864C63.909 767.864 63.357 767.96 62.817 768.152C62.277 768.332 61.821 768.578 61.449 768.89L60.729 767.594C61.221 767.198 61.809 766.898 62.493 766.694C63.177 766.478 63.903 766.37 64.671 766.37ZM64.275 774.776C64.935 774.776 65.505 774.632 65.985 774.344C66.465 774.044 66.813 773.624 67.029 773.084V771.752H64.365C62.901 771.752 62.169 772.244 62.169 773.228C62.169 773.708 62.355 774.086 62.727 774.362C63.099 774.638 63.615 774.776 64.275 774.776ZM71.6548 762.644H73.3828V776H71.6548V762.644ZM81.3301 768.836C80.9941 768.836 80.7061 768.722 80.4661 768.494C80.2261 768.254 80.1061 767.954 80.1061 767.594C80.1061 767.246 80.2261 766.958 80.4661 766.73C80.7061 766.49 80.9941 766.37 81.3301 766.37C81.6661 766.37 81.9481 766.484 82.1761 766.712C82.4041 766.94 82.5181 767.234 82.5181 767.594C82.5181 767.954 82.3981 768.254 82.1581 768.494C81.9301 768.722 81.6541 768.836 81.3301 768.836ZM81.3301 776.108C80.9941 776.108 80.7061 775.994 80.4661 775.766C80.2261 775.526 80.1061 775.226 80.1061 774.866C80.1061 774.518 80.2261 774.23 80.4661 774.002C80.7061 773.762 80.9941 773.642 81.3301 773.642C81.6661 773.642 81.9481 773.756 82.1761 773.984C82.4041 774.212 82.5181 774.506 82.5181 774.866C82.5181 775.226 82.3981 775.526 82.1581 775.766C81.9301 775.994 81.6541 776.108 81.3301 776.108Z" fill="#181818"/>
<path d="M334.245 772.562C334.245 770.096 332.085 769.502 330.069 768.998V764.804C331.077 764.858 332.157 765.2 333.129 765.812L333.723 764.372C332.769 763.724 331.419 763.328 330.069 763.274V761.24H328.917V763.292C326.127 763.526 324.849 765.074 324.849 766.856C324.849 769.304 326.937 769.934 328.917 770.42V774.596C327.459 774.506 326.055 773.93 325.209 773.156L324.543 774.56C325.479 775.424 327.153 776.036 328.917 776.126V778.16H330.069V776.126C332.913 775.892 334.245 774.344 334.245 772.562ZM326.613 766.784C326.613 765.83 327.315 765.02 328.917 764.822V768.71C327.621 768.368 326.613 767.9 326.613 766.784ZM330.069 774.578V770.708C331.401 771.068 332.481 771.518 332.481 772.67C332.481 773.642 331.743 774.416 330.069 774.578ZM340.249 768.692L343.543 764.624V763.4H335.227V764.966H341.293L338.125 768.854V770.114H339.133C341.293 770.114 342.247 770.978 342.247 772.31C342.247 773.678 341.167 774.542 339.277 774.542C337.729 774.542 336.325 773.984 335.479 773.192L334.651 774.614C335.713 775.568 337.477 776.144 339.277 776.144C342.481 776.144 344.047 774.416 344.047 772.292C344.047 770.348 342.769 768.926 340.249 768.692ZM350.574 776.144C353.508 776.144 355.704 773.804 355.704 769.7C355.704 765.596 353.508 763.256 350.574 763.256C347.622 763.256 345.426 765.596 345.426 769.7C345.426 773.804 347.622 776.144 350.574 776.144ZM350.574 774.542C348.594 774.542 347.226 772.922 347.226 769.7C347.226 766.478 348.594 764.858 350.574 764.858C352.536 764.858 353.904 766.478 353.904 769.7C353.904 772.922 352.536 774.542 350.574 774.542ZM358.127 773.642C357.443 773.642 356.921 774.146 356.921 774.866C356.921 775.406 357.227 775.82 357.677 775.982L357.011 778.664H358.145L358.991 776.162C359.225 775.496 359.297 775.226 359.297 774.866C359.297 774.164 358.811 773.642 358.127 773.642ZM363.269 774.434L367.121 770.726C368.831 769.088 369.191 767.99 369.191 766.766C369.191 764.606 367.499 763.256 364.871 763.256C362.909 763.256 361.235 763.958 360.263 765.164L361.487 766.226C362.261 765.29 363.359 764.858 364.709 764.858C366.473 764.858 367.391 765.65 367.391 766.946C367.391 767.738 367.139 768.53 365.807 769.826L360.677 774.776V776H369.731V774.434H363.269ZM376.006 776.144C378.94 776.144 381.136 773.804 381.136 769.7C381.136 765.596 378.94 763.256 376.006 763.256C373.054 763.256 370.858 765.596 370.858 769.7C370.858 773.804 373.054 776.144 376.006 776.144ZM376.006 774.542C374.026 774.542 372.658 772.922 372.658 769.7C372.658 766.478 374.026 764.858 376.006 764.858C377.968 764.858 379.336 766.478 379.336 769.7C379.336 772.922 377.968 774.542 376.006 774.542Z" fill="#181818"/>
<rect x="30" y="60" width="44" height="44" rx="5" fill="#FFF1DD"/>
<path d="M55 88L49 82L55 76" stroke="#EE8D19" stroke-width="2" stroke-linecap="round" stroke-linejoin="round"/>
<path fill-rule="evenodd" clip-rule="evenodd" d="M349.989 17.7673C352.644 17.7674 355.197 18.6089 357.122 20.1178C357.266 20.2343 357.498 20.2329 357.641 20.1146L359.026 18.9615C359.098 18.9015 359.138 18.8202 359.138 18.7356C359.137 18.6511 359.096 18.5702 359.022 18.5109C353.972 14.5185 346.005 14.5185 340.955 18.5109C340.882 18.5701 340.841 18.651 340.84 18.7356C340.839 18.8202 340.879 18.9015 340.952 18.9615L342.337 20.1146C342.48 20.2331 342.711 20.2345 342.856 20.1178C344.78 18.6088 347.334 17.7673 349.989 17.7673ZM352.648 24.2705C352.722 24.2106 352.762 24.1282 352.76 24.0427C352.758 23.9572 352.713 23.8762 352.636 23.8188C351.108 22.7526 348.87 22.7526 347.342 23.8188C347.265 23.8761 347.22 23.9571 347.218 24.0426C347.215 24.1281 347.256 24.2105 347.33 24.2705L349.723 26.2626C349.794 26.3211 349.889 26.3541 349.989 26.3541C350.089 26.3541 350.184 26.3211 350.255 26.2626L352.648 24.2705ZM353.936 22.7734C352.854 21.9657 351.448 21.5185 349.989 21.5186C348.531 21.5191 347.126 21.9663 346.045 22.7734C345.899 22.888 345.669 22.8855 345.526 22.7678L344.143 21.6148C344.07 21.5544 344.03 21.4723 344.031 21.3871C344.032 21.3018 344.074 21.2204 344.148 21.1611C347.441 18.6346 352.54 18.6346 355.833 21.1611C355.907 21.2204 355.949 21.3017 355.95 21.387C355.952 21.4722 355.911 21.5543 355.838 21.6148L354.455 22.7678C354.312 22.8855 354.082 22.888 353.936 22.7734Z" fill="#181818"/>
<path d="M48.487 27.521C51.175 27.521 52.7717 25.4189 52.7717 21.8521C52.7717 18.3511 51.0725 16.4321 48.5456 16.4321C46.2458 16.4321 44.6198 17.9775 44.6198 20.1382C44.6198 22.167 46.0847 23.6465 48.0988 23.6465C49.3366 23.6465 50.3401 23.0752 50.8381 22.0718H50.9626C50.9406 24.5547 50.0544 25.9756 48.509 25.9756C47.6008 25.9756 46.8757 25.4775 46.6487 24.6719H44.7663C45.0739 26.3931 46.5534 27.521 48.487 27.521ZM48.5529 22.189C47.3225 22.189 46.4729 21.3247 46.4729 20.0796C46.4729 18.8857 47.3664 17.9702 48.5603 17.9702C49.7541 17.9702 50.6477 18.9004 50.6477 20.1162C50.6477 21.3174 49.7761 22.189 48.5529 22.189ZM55.9228 22.0352C56.6186 22.0352 57.0947 21.5444 57.0947 20.8999C57.0947 20.248 56.6186 19.7646 55.9228 19.7646C55.2343 19.7646 54.7509 20.248 54.7509 20.8999C54.7509 21.5444 55.2343 22.0352 55.9228 22.0352ZM55.9228 27.4111C56.6186 27.4111 57.0947 26.9204 57.0947 26.2686C57.0947 25.624 56.6186 25.1333 55.9228 25.1333C55.2343 25.1333 54.7509 25.624 54.7509 26.2686C54.7509 26.9204 55.2343 27.4111 55.9228 27.4111ZM64.0104 27.2646H65.8195V25.2358H67.2478V23.6758H65.8195V16.6958H63.1535C61.718 18.8784 60.2165 21.3101 58.8469 23.6904V25.2358H64.0104V27.2646ZM60.5974 23.6099C61.6301 21.8154 62.8532 19.8599 63.9372 18.2046H64.0397V23.7197H60.5974V23.6099ZM71.3364 27.2646H73.226V16.6958H71.3437L68.5825 18.6367V20.4165L71.2119 18.5562H71.3364V27.2646Z" fill="#181818"/>
<defs>
<filter id="filter0_d_2_1011" x="13" y="136" width="388" height="52" filterUnits="userSpaceOnUse" color-interpolation-filters="sRGB">
<feFlood flood-opacity="0" result="BackgroundImageFix"/>
<feColorMatrix in="SourceAlpha" type="matrix" values="0 0 0 0 0 0 0 0 0 0 0 0 0 0 0 0 0 0 127 0" result="hardAlpha"/>
<feOffset dy="4"/>
<feGaussianBlur stdDeviation="2"/>
<feColorMatrix type="matrix" values="0 0 0 0 0 0 0 0 0 0 0 0 0 0 0 0 0 0 0.05 0"/>
<feBlend mode="normal" in2="BackgroundImageFix" result="effect1_dropShadow_2_1011"/>
<feBlend mode="normal" in="SourceGraphic" in2="effect1_dropShadow_2_1011" result="shape"/>
</filter>
</defs>
</svg>
