<svg width="414" height="896" viewBox="0 0 414 896" fill="none" xmlns="http://www.w3.org/2000/svg">
<rect width="414" height="896" rx="20" fill="#FEFEFE"/>
<path d="M176.68 828.649C176.68 824.331 170.424 825.997 170.424 823.328C170.424 822.189 171.291 821.645 172.413 821.679C173.637 821.713 174.334 822.444 174.402 823.243H176.544C176.374 821.22 174.776 820.03 172.515 820.03C170.101 820.03 168.452 821.322 168.452 823.396C168.452 827.748 174.725 825.895 174.725 828.751C174.725 829.754 173.96 830.485 172.6 830.485C171.257 830.485 170.577 829.703 170.492 828.734H168.418C168.418 830.825 170.237 832.117 172.6 832.117C175.235 832.117 176.68 830.417 176.68 828.649ZM178.967 831.998H180.905V822.631H178.967V831.998ZM179.953 821.39C180.633 821.39 181.177 820.846 181.177 820.149C181.177 819.452 180.633 818.908 179.953 818.908C179.256 818.908 178.712 819.452 178.712 820.149C178.712 820.846 179.256 821.39 179.953 821.39ZM182.803 827.272C182.803 830.162 184.758 832.151 187.223 832.151C188.753 832.151 189.875 831.386 190.47 830.587V832.151C190.47 834.021 189.348 834.939 187.852 834.939C186.509 834.939 185.472 834.276 185.183 833.307H183.262C183.5 835.381 185.353 836.622 187.852 836.622C190.776 836.622 192.425 834.701 192.425 832.151V822.631H190.47V823.991C189.892 823.192 188.753 822.478 187.223 822.478C184.758 822.478 182.803 824.382 182.803 827.272ZM190.47 827.306C190.47 829.329 189.093 830.468 187.631 830.468C186.186 830.468 184.792 829.295 184.792 827.272C184.792 825.249 186.186 824.161 187.631 824.161C189.093 824.161 190.47 825.3 190.47 827.306ZM203.454 822.631H201.516V827.85C201.516 829.567 200.581 830.451 199.153 830.451C197.742 830.451 196.807 829.567 196.807 827.85V822.631H194.886V828.139C194.886 830.757 196.552 832.134 198.745 832.134C199.85 832.134 200.904 831.675 201.516 830.876V831.998H203.454V822.631ZM206.011 831.998H207.949V822.631H206.011V831.998ZM206.997 821.39C207.677 821.39 208.221 820.846 208.221 820.149C208.221 819.452 207.677 818.908 206.997 818.908C206.3 818.908 205.756 819.452 205.756 820.149C205.756 820.846 206.3 821.39 206.997 821.39ZM214.437 824.11C215.882 824.11 217.021 825.028 217.055 826.473H211.87C212.074 824.994 213.128 824.11 214.437 824.11ZM218.823 829.21H216.732C216.375 829.941 215.712 830.519 214.522 830.519C213.094 830.519 211.989 829.584 211.853 828.037H219.01C219.061 827.714 219.078 827.408 219.078 827.085C219.078 824.331 217.191 822.478 214.522 822.478C211.751 822.478 209.847 824.365 209.847 827.306C209.847 830.247 211.836 832.151 214.522 832.151C216.817 832.151 218.296 830.842 218.823 829.21ZM227.632 831.998H229.553V826.473C229.553 823.855 227.904 822.478 225.711 822.478C224.589 822.478 223.552 822.937 222.923 823.702V822.631H220.985V831.998H222.923V826.762C222.923 825.045 223.858 824.161 225.286 824.161C226.697 824.161 227.632 825.045 227.632 826.762V831.998ZM232.331 829.397C232.331 831.301 233.368 831.998 235.034 831.998H236.564V830.383H235.374C234.558 830.383 234.286 830.094 234.286 829.397V824.212H236.564V822.631H234.286V820.302H232.331V822.631H231.226V824.212H232.331V829.397ZM242.295 824.11C243.74 824.11 244.879 825.028 244.913 826.473H239.728C239.932 824.994 240.986 824.11 242.295 824.11ZM246.681 829.21H244.59C244.233 829.941 243.57 830.519 242.38 830.519C240.952 830.519 239.847 829.584 239.711 828.037H246.868C246.919 827.714 246.936 827.408 246.936 827.085C246.936 824.331 245.049 822.478 242.38 822.478C239.609 822.478 237.705 824.365 237.705 827.306C237.705 830.247 239.694 832.151 242.38 832.151C244.675 832.151 246.154 830.842 246.681 829.21Z" fill="#FEFEFE"/>
<rect x="22" y="805" width="350" height="54" rx="10" fill="#EE8D19"/>
<path d="M158.098 838.18C161.554 838.18 163.192 836.452 163.192 834.436C163.192 829.81 155.722 831.556 155.722 828.874C155.722 827.92 156.514 827.164 158.458 827.164C159.556 827.164 160.798 827.488 161.932 828.154L162.67 826.336C161.572 825.616 159.988 825.22 158.476 825.22C155.02 825.22 153.4 826.948 153.4 828.982C153.4 833.662 160.888 831.88 160.888 834.598C160.888 835.534 160.06 836.236 158.098 836.236C156.55 836.236 154.948 835.66 153.94 834.85L153.13 836.668C154.174 837.568 156.136 838.18 158.098 838.18ZM166.43 826.804C167.276 826.804 167.87 826.192 167.87 825.4C167.87 824.662 167.258 824.104 166.43 824.104C165.602 824.104 164.99 824.698 164.99 825.454C164.99 826.21 165.602 826.804 166.43 826.804ZM165.296 838H167.546V828.388H165.296V838ZM177.897 828.388V829.666C177.105 828.712 175.917 828.28 174.567 828.28C171.813 828.28 169.707 830.116 169.707 832.906C169.707 835.696 171.813 837.568 174.567 837.568C175.863 837.568 176.997 837.154 177.789 836.29V836.794C177.789 838.738 176.853 839.71 174.729 839.71C173.397 839.71 172.029 839.26 171.183 838.558L170.175 840.25C171.273 841.15 173.055 841.618 174.855 841.618C178.221 841.618 180.039 840.034 180.039 836.542V828.388H177.897ZM174.909 835.66C173.199 835.66 171.975 834.544 171.975 832.906C171.975 831.286 173.199 830.188 174.909 830.188C176.601 830.188 177.825 831.286 177.825 832.906C177.825 834.544 176.601 835.66 174.909 835.66ZM190.053 828.388V833.248C190.053 835.174 188.991 836.146 187.425 836.146C186.003 836.146 185.175 835.318 185.175 833.572V828.388H182.925V833.878C182.925 836.776 184.599 838.126 187.065 838.126C188.307 838.126 189.441 837.658 190.161 836.776V838H192.303V828.388H190.053ZM196.383 826.804C197.229 826.804 197.823 826.192 197.823 825.4C197.823 824.662 197.211 824.104 196.383 824.104C195.555 824.104 194.943 824.698 194.943 825.454C194.943 826.21 195.555 826.804 196.383 826.804ZM195.249 838H197.499V828.388H195.249V838ZM209.489 833.248C209.489 830.242 207.437 828.28 204.629 828.28C201.767 828.28 199.661 830.332 199.661 833.194C199.661 836.056 201.749 838.126 204.971 838.126C206.627 838.126 207.977 837.586 208.841 836.56L207.635 835.174C206.951 835.876 206.105 836.218 205.025 836.218C203.351 836.218 202.181 835.318 201.911 833.914H209.453C209.471 833.698 209.489 833.428 209.489 833.248ZM204.629 830.08C206.105 830.08 207.167 831.034 207.347 832.42H201.893C202.109 831.016 203.171 830.08 204.629 830.08ZM217.104 828.28C215.7 828.28 214.53 828.748 213.792 829.63V828.388H211.65V838H213.9V833.14C213.9 831.214 214.98 830.242 216.582 830.242C218.022 830.242 218.868 831.07 218.868 832.78V838H221.118V832.492C221.118 829.594 219.408 828.28 217.104 828.28ZM229.12 835.876C228.778 836.146 228.328 836.272 227.86 836.272C226.996 836.272 226.528 835.768 226.528 834.832V830.26H229.102V828.46H226.528V826.264H224.278V828.46H222.694V830.26H224.278V834.886C224.278 837.01 225.484 838.126 227.59 838.126C228.4 838.126 229.21 837.91 229.75 837.478L229.12 835.876ZM240.321 833.248C240.321 830.242 238.269 828.28 235.461 828.28C232.599 828.28 230.493 830.332 230.493 833.194C230.493 836.056 232.581 838.126 235.803 838.126C237.459 838.126 238.809 837.586 239.673 836.56L238.467 835.174C237.783 835.876 236.937 836.218 235.857 836.218C234.183 836.218 233.013 835.318 232.743 833.914H240.285C240.303 833.698 240.321 833.428 240.321 833.248ZM235.461 830.08C236.937 830.08 237.999 831.034 238.179 832.42H232.725C232.941 831.016 234.003 830.08 235.461 830.08Z" fill="#FEFEFE"/>
<path d="M135.159 72.514V70.6H124.291V86H126.491V79.774H134.213V77.882H126.491V72.514H135.159ZM142.577 86.132C146.075 86.132 148.627 83.646 148.627 80.17C148.627 76.694 146.075 74.23 142.577 74.23C139.079 74.23 136.505 76.694 136.505 80.17C136.505 83.646 139.079 86.132 142.577 86.132ZM142.577 84.284C140.333 84.284 138.639 82.656 138.639 80.17C138.639 77.684 140.333 76.078 142.577 76.078C144.821 76.078 146.493 77.684 146.493 80.17C146.493 82.656 144.821 84.284 142.577 84.284ZM153.572 76.298V74.34H151.548V86H153.66V80.192C153.66 77.64 155.068 76.254 157.334 76.254C157.488 76.254 157.642 76.254 157.818 76.276V74.23C155.772 74.23 154.32 74.934 153.572 76.298ZM175.007 74.23C173.027 74.23 171.399 75.066 170.519 76.386C169.749 74.934 168.253 74.23 166.471 74.23C164.711 74.23 163.281 74.89 162.445 76.078V74.34H160.421V86H162.533V79.994C162.533 77.464 163.919 76.122 166.031 76.122C167.945 76.122 169.045 77.244 169.045 79.532V86H171.157V79.994C171.157 77.464 172.543 76.122 174.655 76.122C176.569 76.122 177.669 77.244 177.669 79.532V86H179.781V79.29C179.781 75.858 177.845 74.23 175.007 74.23ZM187.913 74.23C186.043 74.23 184.305 74.758 183.095 75.726L183.975 77.31C184.877 76.54 186.285 76.056 187.671 76.056C189.761 76.056 190.795 77.09 190.795 78.872V79.29H187.451C183.975 79.29 182.765 80.83 182.765 82.7C182.765 84.724 184.437 86.132 187.077 86.132C188.903 86.132 190.201 85.516 190.905 84.46V86H192.907V78.96C192.907 75.77 191.103 74.23 187.913 74.23ZM187.429 84.504C185.823 84.504 184.855 83.778 184.855 82.612C184.855 81.622 185.449 80.808 187.539 80.808H190.795V82.436C190.267 83.778 189.013 84.504 187.429 84.504ZM211.612 69.676V76.1C210.644 74.846 209.192 74.23 207.542 74.23C204.132 74.23 201.646 76.606 201.646 80.17C201.646 83.734 204.132 86.132 207.542 86.132C209.258 86.132 210.754 85.472 211.7 84.152V86H213.724V69.676H211.612ZM207.718 84.284C205.474 84.284 203.78 82.656 203.78 80.17C203.78 77.684 205.474 76.078 207.718 76.078C209.94 76.078 211.634 77.684 211.634 80.17C211.634 82.656 209.94 84.284 207.718 84.284ZM228.258 80.236C228.258 76.65 225.86 74.23 222.494 74.23C219.128 74.23 216.642 76.716 216.642 80.17C216.642 83.646 219.15 86.132 222.912 86.132C224.848 86.132 226.454 85.472 227.51 84.24L226.344 82.876C225.486 83.822 224.342 84.284 222.978 84.284C220.668 84.284 219.018 82.92 218.754 80.874H228.214C228.236 80.676 228.258 80.412 228.258 80.236ZM222.494 76.012C224.54 76.012 226.014 77.398 226.234 79.356H218.754C218.974 77.376 220.47 76.012 222.494 76.012ZM243.413 70.6H237.407V86H239.607V81.336H243.413C247.417 81.336 249.837 79.312 249.837 75.968C249.837 72.624 247.417 70.6 243.413 70.6ZM243.347 79.422H239.607V72.514H243.347C246.163 72.514 247.637 73.768 247.637 75.968C247.637 78.168 246.163 79.422 243.347 79.422ZM256.899 74.23C255.029 74.23 253.291 74.758 252.081 75.726L252.961 77.31C253.863 76.54 255.271 76.056 256.657 76.056C258.747 76.056 259.781 77.09 259.781 78.872V79.29H256.437C252.961 79.29 251.751 80.83 251.751 82.7C251.751 84.724 253.423 86.132 256.063 86.132C257.889 86.132 259.187 85.516 259.891 84.46V86H261.893V78.96C261.893 75.77 260.089 74.23 256.899 74.23ZM256.415 84.504C254.809 84.504 253.841 83.778 253.841 82.612C253.841 81.622 254.435 80.808 256.525 80.808H259.781V82.436C259.253 83.778 257.999 84.504 256.415 84.504ZM275.018 74.34V76.144C274.028 74.868 272.444 74.23 270.706 74.23C267.34 74.23 264.788 76.496 264.788 79.862C264.788 83.228 267.34 85.516 270.706 85.516C272.378 85.516 273.896 84.922 274.908 83.712V84.636C274.908 87.276 273.654 88.552 270.904 88.552C269.188 88.552 267.494 87.958 266.416 87.034L265.404 88.662C266.68 89.806 268.836 90.4 270.97 90.4C274.93 90.4 277.02 88.53 277.02 84.416V74.34H275.018ZM270.948 83.668C268.594 83.668 266.922 82.106 266.922 79.862C266.922 77.596 268.594 76.078 270.948 76.078C273.28 76.078 274.952 77.596 274.952 79.862C274.952 82.106 273.28 83.668 270.948 83.668ZM286.05 86.132C289.548 86.132 292.1 83.646 292.1 80.17C292.1 76.694 289.548 74.23 286.05 74.23C282.552 74.23 279.978 76.694 279.978 80.17C279.978 83.646 282.552 86.132 286.05 86.132ZM286.05 84.284C283.806 84.284 282.112 82.656 282.112 80.17C282.112 77.684 283.806 76.078 286.05 76.078C288.294 76.078 289.966 77.684 289.966 80.17C289.966 82.656 288.294 84.284 286.05 84.284Z" fill="#EE8D19"/>
<rect y="1" width="413" height="45" fill="#FEFEFE"/>
<rect y="1" width="413" height="45" fill="#FEFEFE"/>
<path fill-rule="evenodd" clip-rule="evenodd" d="M333.68 21.4316H332.487C331.828 21.4316 331.294 22.0282 331.294 22.764V34.3114C331.294 35.0473 331.828 35.6438 332.487 35.6438H333.68C334.339 35.6438 334.874 35.0473 334.874 34.3114V22.764C334.874 22.0282 334.339 21.4316 333.68 21.4316ZM327.918 24.5406H329.111C329.77 24.5406 330.305 25.1371 330.305 25.873V34.3115C330.305 35.0473 329.77 35.6439 329.111 35.6439H327.918C327.259 35.6439 326.725 35.0473 326.725 34.3115V25.873C326.725 25.1371 327.259 24.5406 327.918 24.5406ZM323.542 27.6493H322.349C321.69 27.6493 321.156 28.2459 321.156 28.9817V34.3113C321.156 35.0472 321.69 35.6437 322.349 35.6437H323.542C324.201 35.6437 324.736 35.0472 324.736 34.3113V28.9817C324.736 28.2459 324.201 27.6493 323.542 27.6493ZM317.974 30.3141H316.78C316.121 30.3141 315.587 30.9106 315.587 31.6465V34.3113C315.587 35.0471 316.121 35.6437 316.78 35.6437H317.974C318.633 35.6437 319.167 35.0471 319.167 34.3113V31.6465C319.167 30.9106 318.633 30.3141 317.974 30.3141Z" fill="#181818"/>
<path opacity="0.4" d="M392.551 25.8729V31.2025C393.512 30.7511 394.136 29.7011 394.136 28.5377C394.136 27.3744 393.512 26.3243 392.551 25.8729Z" fill="#181818"/>
<rect opacity="0.35" x="365.604" y="21.4875" width="25.2535" height="14.1004" rx="2.16667" stroke="#181818"/>
<rect x="367.491" y="23.6523" width="21.4801" height="9.77086" rx="1.33333" fill="#181818"/>
<circle cx="49" cy="78" r="24" fill="#FEFEFE"/>
<path d="M61.8332 79H36.1665" stroke="#EE8D19" stroke-width="2" stroke-linecap="round" stroke-linejoin="round"/>
<path d="M44.3332 85.4167L36.1665 79L44.3332 72.5834" stroke="#EE8D19" stroke-width="2" stroke-linecap="round" stroke-linejoin="round"/>
<rect x="30" y="60" width="44" height="44" rx="5" fill="#FFF1DD"/>
<path d="M55 88L49 82L55 76" stroke="#EE8D19" stroke-width="2" stroke-linecap="round" stroke-linejoin="round"/>
<rect x="37.5" y="133.5" width="340" height="221" rx="9.5" fill="#FEFEFE"/>
<path d="M77.3571 170C77.3571 173.84 74.0578 177 69.9286 177C65.7993 177 62.5 173.84 62.5 170C62.5 166.16 65.7993 163 69.9286 163C74.0578 163 77.3571 166.16 77.3571 170Z" stroke="#181818"/>
<path d="M111.857 163H95.8569C94.7524 163 93.8569 163.895 93.8569 165V175C93.8569 176.105 94.7524 177 95.8569 177H111.857C112.962 177 113.857 176.105 113.857 175V165C113.857 163.895 112.962 163 111.857 163Z" stroke="black" stroke-width="2" stroke-linecap="round" stroke-linejoin="round"/>
<path d="M93.8569 168H113.857" stroke="black" stroke-width="2" stroke-linecap="round" stroke-linejoin="round"/>
<path d="M131.642 176.5H139.785V175.021H133.342V164.6H131.642V176.5ZM142.314 165.756C142.96 165.756 143.419 165.28 143.419 164.668C143.419 164.09 142.943 163.631 142.314 163.631C141.685 163.631 141.209 164.107 141.209 164.702C141.209 165.297 141.685 165.756 142.314 165.756ZM141.498 176.5H143.13V167.49H141.498V176.5ZM151.057 167.405C149.629 167.405 148.473 167.932 147.81 168.85V167.49H146.246V176.5H147.878V171.859C147.878 169.904 149 168.867 150.734 168.867C152.281 168.867 153.165 169.734 153.165 171.502V176.5H154.797V171.315C154.797 168.663 153.25 167.405 151.057 167.405ZM164.702 176.5H166.708L162.543 171.213L166.334 167.49H164.362L159.449 171.978V163.886H157.817V176.5H159.449V174.035L161.319 172.301L164.702 176.5ZM179.726 163.886V168.85C178.978 167.881 177.856 167.405 176.581 167.405C173.946 167.405 172.025 169.241 172.025 171.995C172.025 174.749 173.946 176.602 176.581 176.602C177.907 176.602 179.063 176.092 179.794 175.072V176.5H181.358V163.886H179.726ZM176.717 175.174C174.983 175.174 173.674 173.916 173.674 171.995C173.674 170.074 174.983 168.833 176.717 168.833C178.434 168.833 179.743 170.074 179.743 171.995C179.743 173.916 178.434 175.174 176.717 175.174ZM192.589 172.046C192.589 169.275 190.736 167.405 188.135 167.405C185.534 167.405 183.613 169.326 183.613 171.995C183.613 174.681 185.551 176.602 188.458 176.602C189.954 176.602 191.195 176.092 192.011 175.14L191.11 174.086C190.447 174.817 189.563 175.174 188.509 175.174C186.724 175.174 185.449 174.12 185.245 172.539H192.555C192.572 172.386 192.589 172.182 192.589 172.046ZM188.135 168.782C189.716 168.782 190.855 169.853 191.025 171.366H185.245C185.415 169.836 186.571 168.782 188.135 168.782ZM204.3 164.6H199.659V176.5H201.359V172.896H204.3C207.394 172.896 209.264 171.332 209.264 168.748C209.264 166.164 207.394 164.6 204.3 164.6ZM204.249 171.417H201.359V166.079H204.249C206.425 166.079 207.564 167.048 207.564 168.748C207.564 170.448 206.425 171.417 204.249 171.417ZM214.721 167.405C213.276 167.405 211.933 167.813 210.998 168.561L211.678 169.785C212.375 169.19 213.463 168.816 214.534 168.816C216.149 168.816 216.948 169.615 216.948 170.992V171.315H214.364C211.678 171.315 210.743 172.505 210.743 173.95C210.743 175.514 212.035 176.602 214.075 176.602C215.486 176.602 216.489 176.126 217.033 175.31V176.5H218.58V171.06C218.58 168.595 217.186 167.405 214.721 167.405ZM214.347 175.344C213.106 175.344 212.358 174.783 212.358 173.882C212.358 173.117 212.817 172.488 214.432 172.488H216.948V173.746C216.54 174.783 215.571 175.344 214.347 175.344ZM228.722 167.49V168.884C227.957 167.898 226.733 167.405 225.39 167.405C222.789 167.405 220.817 169.156 220.817 171.757C220.817 174.358 222.789 176.126 225.39 176.126C226.682 176.126 227.855 175.667 228.637 174.732V175.446C228.637 177.486 227.668 178.472 225.543 178.472C224.217 178.472 222.908 178.013 222.075 177.299L221.293 178.557C222.279 179.441 223.945 179.9 225.594 179.9C228.654 179.9 230.269 178.455 230.269 175.276V167.49H228.722ZM225.577 174.698C223.758 174.698 222.466 173.491 222.466 171.757C222.466 170.006 223.758 168.833 225.577 168.833C227.379 168.833 228.671 170.006 228.671 171.757C228.671 173.491 227.379 174.698 225.577 174.698ZM237.246 176.602C239.949 176.602 241.921 174.681 241.921 171.995C241.921 169.309 239.949 167.405 237.246 167.405C234.543 167.405 232.554 169.309 232.554 171.995C232.554 174.681 234.543 176.602 237.246 176.602ZM237.246 175.174C235.512 175.174 234.203 173.916 234.203 171.995C234.203 170.074 235.512 168.833 237.246 168.833C238.98 168.833 240.272 170.074 240.272 171.995C240.272 173.916 238.98 175.174 237.246 175.174Z" fill="#181818"/>
<line x1="62" y1="206.75" x2="353" y2="206.75" stroke="#A6A6A6" stroke-width="0.5"/>
<path d="M77.3571 244C77.3571 247.84 74.0578 251 69.9286 251C65.7993 251 62.5 247.84 62.5 244C62.5 240.16 65.7993 237 69.9286 237C74.0578 237 77.3571 240.16 77.3571 244Z" stroke="#181818"/>
<ellipse cx="69.9285" cy="244" rx="3.7" ry="3.5" fill="#181818"/>
<path d="M94.8569 254H112.857" stroke="black" stroke-width="2" stroke-linecap="round" stroke-linejoin="round"/>
<path d="M97.8569 250V243" stroke="black" stroke-width="2" stroke-linecap="round" stroke-linejoin="round"/>
<path d="M101.857 250V243" stroke="black" stroke-width="2" stroke-linecap="round" stroke-linejoin="round"/>
<path d="M105.857 250V243" stroke="black" stroke-width="2" stroke-linecap="round" stroke-linejoin="round"/>
<path d="M109.857 250V243" stroke="black" stroke-width="2" stroke-linecap="round" stroke-linejoin="round"/>
<path d="M103.857 234L111.857 239H95.8569L103.857 234Z" stroke="black" stroke-width="2" stroke-linecap="round" stroke-linejoin="round"/>
<path d="M134.005 250.5H135.688V240.079H139.768V238.6H129.925V240.079H134.005V250.5ZM142.73 243.003V241.49H141.166V250.5H142.798V246.012C142.798 244.04 143.886 242.969 145.637 242.969C145.756 242.969 145.875 242.969 146.011 242.986V241.405C144.43 241.405 143.308 241.949 142.73 243.003ZM151.286 241.405C149.841 241.405 148.498 241.813 147.563 242.561L148.243 243.785C148.94 243.19 150.028 242.816 151.099 242.816C152.714 242.816 153.513 243.615 153.513 244.992V245.315H150.929C148.243 245.315 147.308 246.505 147.308 247.95C147.308 249.514 148.6 250.602 150.64 250.602C152.051 250.602 153.054 250.126 153.598 249.31V250.5H155.145V245.06C155.145 242.595 153.751 241.405 151.286 241.405ZM150.912 249.344C149.671 249.344 148.923 248.783 148.923 247.882C148.923 247.117 149.382 246.488 150.997 246.488H153.513V247.746C153.105 248.783 152.136 249.344 150.912 249.344ZM162.977 241.405C161.549 241.405 160.393 241.932 159.73 242.85V241.49H158.166V250.5H159.798V245.859C159.798 243.904 160.92 242.867 162.654 242.867C164.201 242.867 165.085 243.734 165.085 245.502V250.5H166.717V245.315C166.717 242.663 165.17 241.405 162.977 241.405ZM172.321 250.602C174.718 250.602 176.214 249.565 176.214 247.933C176.214 244.431 170.502 246.165 170.502 244.04C170.502 243.326 171.199 242.799 172.627 242.799C173.511 242.799 174.412 242.986 175.228 243.513L175.925 242.221C175.143 241.711 173.817 241.405 172.644 241.405C170.332 241.405 168.887 242.493 168.887 244.108C168.887 247.695 174.582 245.944 174.582 247.967C174.582 248.732 173.953 249.191 172.44 249.191C171.267 249.191 170.043 248.8 169.278 248.256L168.598 249.548C169.346 250.143 170.825 250.602 172.321 250.602ZM181.552 239.127C182.028 239.127 182.47 239.297 182.81 239.552L183.303 238.311C182.844 237.954 182.164 237.784 181.467 237.784C179.546 237.784 178.492 238.94 178.492 240.691V241.49H176.962V242.833H178.492V250.5H180.124V242.833H182.708V241.49H180.09V240.708C180.09 239.671 180.583 239.127 181.552 239.127ZM192.257 246.046C192.257 243.275 190.404 241.405 187.803 241.405C185.202 241.405 183.281 243.326 183.281 245.995C183.281 248.681 185.219 250.602 188.126 250.602C189.622 250.602 190.863 250.092 191.679 249.14L190.778 248.086C190.115 248.817 189.231 249.174 188.177 249.174C186.392 249.174 185.117 248.12 184.913 246.539H192.223C192.24 246.386 192.257 246.182 192.257 246.046ZM187.803 242.782C189.384 242.782 190.523 243.853 190.693 245.366H184.913C185.083 243.836 186.239 242.782 187.803 242.782ZM196.087 243.003V241.49H194.523V250.5H196.155V246.012C196.155 244.04 197.243 242.969 198.994 242.969C199.113 242.969 199.232 242.969 199.368 242.986V241.405C197.787 241.405 196.665 241.949 196.087 243.003ZM209.44 246.046C209.44 243.275 207.587 241.405 204.986 241.405C202.385 241.405 200.464 243.326 200.464 245.995C200.464 248.681 202.402 250.602 205.309 250.602C206.805 250.602 208.046 250.092 208.862 249.14L207.961 248.086C207.298 248.817 206.414 249.174 205.36 249.174C203.575 249.174 202.3 248.12 202.096 246.539H209.406C209.423 246.386 209.44 246.182 209.44 246.046ZM204.986 242.782C206.567 242.782 207.706 243.853 207.876 245.366H202.096C202.266 243.836 203.422 242.782 204.986 242.782ZM216.517 241.405C215.089 241.405 213.933 241.932 213.27 242.85V241.49H211.706V250.5H213.338V245.859C213.338 243.904 214.46 242.867 216.194 242.867C217.741 242.867 218.625 243.734 218.625 245.502V250.5H220.257V245.315C220.257 242.663 218.71 241.405 216.517 241.405ZM227.254 250.602C228.869 250.602 230.212 249.922 230.926 248.664L229.685 247.882C229.107 248.766 228.223 249.174 227.237 249.174C225.469 249.174 224.143 247.95 224.143 245.995C224.143 244.074 225.469 242.833 227.237 242.833C228.223 242.833 229.107 243.241 229.685 244.125L230.926 243.326C230.212 242.068 228.869 241.405 227.254 241.405C224.483 241.405 222.494 243.309 222.494 245.995C222.494 248.681 224.483 250.602 227.254 250.602ZM233.855 239.756C234.501 239.756 234.96 239.28 234.96 238.668C234.96 238.09 234.484 237.631 233.855 237.631C233.226 237.631 232.75 238.107 232.75 238.702C232.75 239.297 233.226 239.756 233.855 239.756ZM233.039 250.5H234.671V241.49H233.039V250.5ZM241.068 241.405C239.623 241.405 238.28 241.813 237.345 242.561L238.025 243.785C238.722 243.19 239.81 242.816 240.881 242.816C242.496 242.816 243.295 243.615 243.295 244.992V245.315H240.711C238.025 245.315 237.09 246.505 237.09 247.95C237.09 249.514 238.382 250.602 240.422 250.602C241.833 250.602 242.836 250.126 243.38 249.31V250.5H244.927V245.06C244.927 242.595 243.533 241.405 241.068 241.405ZM240.694 249.344C239.453 249.344 238.705 248.783 238.705 247.882C238.705 247.117 239.164 246.488 240.779 246.488H243.295V247.746C242.887 248.783 241.918 249.344 240.694 249.344Z" fill="#181818"/>
<line x1="62" y1="280.75" x2="353" y2="280.75" stroke="#A6A6A6" stroke-width="0.5"/>
<path d="M77.3571 318C77.3571 321.84 74.0578 325 69.9286 325C65.7993 325 62.5 321.84 62.5 318C62.5 314.16 65.7993 311 69.9286 311C74.0578 311 77.3571 314.16 77.3571 318Z" stroke="#181818"/>
<path d="M111.857 312H95.8569C94.7524 312 93.8569 312.895 93.8569 314V322C93.8569 323.105 94.7524 324 95.8569 324H111.857C112.962 324 113.857 323.105 113.857 322V314C113.857 312.895 112.962 312 111.857 312Z" stroke="black" stroke-width="2" stroke-linecap="round" stroke-linejoin="round"/>
<path d="M103.857 320C104.962 320 105.857 319.105 105.857 318C105.857 316.895 104.962 316 103.857 316C102.752 316 101.857 316.895 101.857 318C101.857 319.105 102.752 320 103.857 320Z" stroke="black" stroke-width="2" stroke-linecap="round" stroke-linejoin="round"/>
<path d="M97.8569 318H97.8669M109.857 318H109.867" stroke="black" stroke-width="2" stroke-linecap="round" stroke-linejoin="round"/>
<path d="M133.342 323.021V319.179H139.309V317.734H133.342V314.079H140.04V312.6H131.642V324.5H140.278V323.021H133.342ZM146.091 313.127C146.567 313.127 147.009 313.297 147.349 313.552L147.842 312.311C147.383 311.954 146.703 311.784 146.006 311.784C144.085 311.784 143.031 312.94 143.031 314.691V315.49H141.501V316.833H143.031V324.5H144.663V316.833H147.247V315.49H144.629V314.708C144.629 313.671 145.122 313.127 146.091 313.127ZM156.796 320.046C156.796 317.275 154.943 315.405 152.342 315.405C149.741 315.405 147.82 317.326 147.82 319.995C147.82 322.681 149.758 324.602 152.665 324.602C154.161 324.602 155.402 324.092 156.218 323.14L155.317 322.086C154.654 322.817 153.77 323.174 152.716 323.174C150.931 323.174 149.656 322.12 149.452 320.539H156.762C156.779 320.386 156.796 320.182 156.796 320.046ZM152.342 316.782C153.923 316.782 155.062 317.853 155.232 319.366H149.452C149.622 317.836 150.778 316.782 152.342 316.782ZM162.989 324.602C164.604 324.602 165.947 323.922 166.661 322.664L165.42 321.882C164.842 322.766 163.958 323.174 162.972 323.174C161.204 323.174 159.878 321.95 159.878 319.995C159.878 318.074 161.204 316.833 162.972 316.833C163.958 316.833 164.842 317.241 165.42 318.125L166.661 317.326C165.947 316.068 164.604 315.405 162.989 315.405C160.218 315.405 158.229 317.309 158.229 319.995C158.229 322.681 160.218 324.602 162.989 324.602ZM173.446 322.8C173.106 323.072 172.647 323.225 172.171 323.225C171.27 323.225 170.76 322.681 170.76 321.712V316.833H173.344V315.49H170.76V313.518H169.128V315.49H167.598V316.833H169.128V321.78C169.128 323.599 170.165 324.602 171.984 324.602C172.715 324.602 173.463 324.398 173.956 323.973L173.446 322.8ZM176.745 313.756C177.391 313.756 177.85 313.28 177.85 312.668C177.85 312.09 177.374 311.631 176.745 311.631C176.116 311.631 175.64 312.107 175.64 312.702C175.64 313.297 176.116 313.756 176.745 313.756ZM175.929 324.5H177.561V315.49H175.929V324.5ZM187.052 315.49L183.89 322.715L180.796 315.49H179.096L183.04 324.5H184.706L188.65 315.49H187.052ZM193.783 324.602C196.486 324.602 198.458 322.681 198.458 319.995C198.458 317.309 196.486 315.405 193.783 315.405C191.08 315.405 189.091 317.309 189.091 319.995C189.091 322.681 191.08 324.602 193.783 324.602ZM193.783 323.174C192.049 323.174 190.74 321.916 190.74 319.995C190.74 318.074 192.049 316.833 193.783 316.833C195.517 316.833 196.809 318.074 196.809 319.995C196.809 321.916 195.517 323.174 193.783 323.174Z" fill="#181818"/>
<rect x="37.5" y="133.5" width="340" height="221" rx="9.5" stroke="#A6A6A6"/>
<path d="M34.326 567.112C36.916 567.112 38.12 565.824 38.12 564.326C38.12 560.728 32.184 562.226 32.184 559.832C32.184 558.978 32.898 558.278 34.564 558.278C35.432 558.278 36.398 558.53 37.252 559.076L37.714 557.956C36.902 557.396 35.712 557.088 34.564 557.088C31.988 557.088 30.812 558.376 30.812 559.888C30.812 563.528 36.748 562.016 36.748 564.41C36.748 565.264 36.02 565.922 34.326 565.922C33.066 565.922 31.82 565.446 31.092 564.788L30.574 565.88C31.358 566.608 32.828 567.112 34.326 567.112ZM45.2413 559.58V563.416C45.2413 565.012 44.3453 565.88 42.9453 565.88C41.6713 565.88 40.9433 565.152 40.9433 563.696V559.58H39.5993V563.85C39.5993 566.034 40.8733 567.084 42.7913 567.084C43.8413 567.084 44.7653 566.65 45.3113 565.88V567H46.5853V559.58H45.2413ZM52.7779 559.51C51.7279 559.51 50.8039 559.902 50.1879 560.7V556.612H48.8439V567H50.1319V565.824C50.7339 566.664 51.6859 567.084 52.7779 567.084C54.9479 567.084 56.5299 565.558 56.5299 563.29C56.5299 561.022 54.9479 559.51 52.7779 559.51ZM52.6659 565.908C51.2519 565.908 50.1739 564.872 50.1739 563.29C50.1739 561.708 51.2519 560.686 52.6659 560.686C54.0939 560.686 55.1719 561.708 55.1719 563.29C55.1719 564.872 54.0939 565.908 52.6659 565.908ZM61.8389 565.6C61.5589 565.824 61.1809 565.95 60.7889 565.95C60.0469 565.95 59.6269 565.502 59.6269 564.704V560.686H61.7549V559.58H59.6269V557.956H58.2829V559.58H57.0229V560.686H58.2829V564.76C58.2829 566.258 59.1369 567.084 60.6349 567.084C61.2369 567.084 61.8529 566.916 62.2589 566.566L61.8389 565.6ZM66.5157 567.084C68.7417 567.084 70.3657 565.502 70.3657 563.29C70.3657 561.078 68.7417 559.51 66.5157 559.51C64.2897 559.51 62.6517 561.078 62.6517 563.29C62.6517 565.502 64.2897 567.084 66.5157 567.084ZM66.5157 565.908C65.0877 565.908 64.0097 564.872 64.0097 563.29C64.0097 561.708 65.0877 560.686 66.5157 560.686C67.9437 560.686 69.0077 561.708 69.0077 563.29C69.0077 564.872 67.9437 565.908 66.5157 565.908ZM75.6764 565.6C75.3964 565.824 75.0184 565.95 74.6264 565.95C73.8844 565.95 73.4644 565.502 73.4644 564.704V560.686H75.5924V559.58H73.4644V557.956H72.1204V559.58H70.8604V560.686H72.1204V564.76C72.1204 566.258 72.9744 567.084 74.4724 567.084C75.0744 567.084 75.6904 566.916 76.0964 566.566L75.6764 565.6ZM80.1233 559.51C78.9333 559.51 77.8273 559.846 77.0573 560.462L77.6173 561.47C78.1913 560.98 79.0873 560.672 79.9693 560.672C81.2993 560.672 81.9573 561.33 81.9573 562.464V562.73H79.8293C77.6173 562.73 76.8473 563.71 76.8473 564.9C76.8473 566.188 77.9113 567.084 79.5913 567.084C80.7533 567.084 81.5793 566.692 82.0273 566.02V567H83.3013V562.52C83.3013 560.49 82.1533 559.51 80.1233 559.51ZM79.8153 566.048C78.7933 566.048 78.1773 565.586 78.1773 564.844C78.1773 564.214 78.5553 563.696 79.8853 563.696H81.9573V564.732C81.6213 565.586 80.8233 566.048 79.8153 566.048ZM85.4885 567H86.8325V556.612H85.4885V567Z" fill="#181818"/>
<path d="M346.184 564.326C346.184 562.408 344.504 561.946 342.936 561.554V558.292C343.72 558.334 344.56 558.6 345.316 559.076L345.778 557.956C345.036 557.452 343.986 557.144 342.936 557.102V555.52H342.04V557.116C339.87 557.298 338.876 558.502 338.876 559.888C338.876 561.792 340.5 562.282 342.04 562.66V565.908C340.906 565.838 339.814 565.39 339.156 564.788L338.638 565.88C339.366 566.552 340.668 567.028 342.04 567.098V568.68H342.936V567.098C345.148 566.916 346.184 565.712 346.184 564.326ZM340.248 559.832C340.248 559.09 340.794 558.46 342.04 558.306V561.33C341.032 561.064 340.248 560.7 340.248 559.832ZM342.936 565.894V562.884C343.972 563.164 344.812 563.514 344.812 564.41C344.812 565.166 344.238 565.768 342.936 565.894ZM346.435 557.2V558.418H348.647V567H350.033V557.2H346.435ZM355.629 561.316L358.191 558.152V557.2H351.723V558.418H356.441L353.977 561.442V562.422H354.761C356.441 562.422 357.183 563.094 357.183 564.13C357.183 565.194 356.343 565.866 354.873 565.866C353.669 565.866 352.577 565.432 351.919 564.816L351.275 565.922C352.101 566.664 353.473 567.112 354.873 567.112C357.365 567.112 358.583 565.768 358.583 564.116C358.583 562.604 357.589 561.498 355.629 561.316ZM360.512 567.084C361.016 567.084 361.436 566.678 361.436 566.118C361.436 565.558 361.016 565.166 360.512 565.166C359.994 565.166 359.56 565.558 359.56 566.118C359.56 566.678 359.994 567.084 360.512 567.084ZM366.3 567.112C368.582 567.112 370.29 565.292 370.29 562.1C370.29 558.908 368.582 557.088 366.3 557.088C364.004 557.088 362.296 558.908 362.296 562.1C362.296 565.292 364.004 567.112 366.3 567.112ZM366.3 565.866C364.76 565.866 363.696 564.606 363.696 562.1C363.696 559.594 364.76 558.334 366.3 558.334C367.826 558.334 368.89 559.594 368.89 562.1C368.89 564.606 367.826 565.866 366.3 565.866ZM375.338 567.112C377.62 567.112 379.328 565.292 379.328 562.1C379.328 558.908 377.62 557.088 375.338 557.088C373.042 557.088 371.334 558.908 371.334 562.1C371.334 565.292 373.042 567.112 375.338 567.112ZM375.338 565.866C373.798 565.866 372.734 564.606 372.734 562.1C372.734 559.594 373.798 558.334 375.338 558.334C376.864 558.334 377.928 559.594 377.928 562.1C377.928 564.606 376.864 565.866 375.338 565.866Z" fill="#181818"/>
<path d="M31.47 598.2H35.6C36.636 598.2 37.5553 598.405 38.358 598.816C39.1607 599.227 39.7813 599.805 40.22 600.552C40.668 601.289 40.892 602.139 40.892 603.1C40.892 604.061 40.668 604.915 40.22 605.662C39.7813 606.399 39.1607 606.973 38.358 607.384C37.5553 607.795 36.636 608 35.6 608H31.47V598.2ZM35.516 606.782C36.3093 606.782 37.0047 606.628 37.602 606.32C38.2087 606.012 38.6753 605.583 39.002 605.032C39.3287 604.472 39.492 603.828 39.492 603.1C39.492 602.372 39.3287 601.733 39.002 601.182C38.6753 600.622 38.2087 600.188 37.602 599.88C37.0047 599.572 36.3093 599.418 35.516 599.418H32.87V606.782H35.516ZM49.2464 604.332C49.2464 604.435 49.2371 604.57 49.2184 604.738H43.1984C43.2824 605.391 43.5671 605.919 44.0524 606.32C44.5471 606.712 45.1584 606.908 45.8864 606.908C46.7731 606.908 47.4871 606.609 48.0284 606.012L48.7704 606.88C48.4344 607.272 48.0144 607.571 47.5104 607.776C47.0157 607.981 46.4604 608.084 45.8444 608.084C45.0604 608.084 44.3651 607.925 43.7584 607.608C43.1517 607.281 42.6804 606.829 42.3444 606.25C42.0177 605.671 41.8544 605.018 41.8544 604.29C41.8544 603.571 42.0131 602.923 42.3304 602.344C42.6571 601.765 43.1004 601.317 43.6604 601C44.2297 600.673 44.8691 600.51 45.5784 600.51C46.2877 600.51 46.9177 600.673 47.4684 601C48.0284 601.317 48.4624 601.765 48.7704 602.344C49.0877 602.923 49.2464 603.585 49.2464 604.332ZM45.5784 601.644C44.9344 601.644 44.3931 601.84 43.9544 602.232C43.5251 602.624 43.2731 603.137 43.1984 603.772H47.9584C47.8837 603.147 47.6271 602.638 47.1884 602.246C46.7591 601.845 46.2224 601.644 45.5784 601.644ZM50.8127 597.612H52.1567V608H50.8127V597.612ZM54.4228 600.58H55.7668V608H54.4228V600.58ZM55.0948 599.152C54.8335 599.152 54.6142 599.068 54.4368 598.9C54.2688 598.732 54.1848 598.527 54.1848 598.284C54.1848 598.041 54.2688 597.836 54.4368 597.668C54.6142 597.491 54.8335 597.402 55.0948 597.402C55.3562 597.402 55.5708 597.486 55.7388 597.654C55.9162 597.813 56.0048 598.013 56.0048 598.256C56.0048 598.508 55.9162 598.723 55.7388 598.9C55.5708 599.068 55.3562 599.152 55.0948 599.152ZM64.599 600.58L61.351 608H59.979L56.731 600.58H58.131L60.679 606.53L63.283 600.58H64.599ZM72.0542 604.332C72.0542 604.435 72.0449 604.57 72.0262 604.738H66.0062C66.0902 605.391 66.3749 605.919 66.8602 606.32C67.3549 606.712 67.9662 606.908 68.6942 606.908C69.5809 606.908 70.2949 606.609 70.8362 606.012L71.5782 606.88C71.2422 607.272 70.8222 607.571 70.3182 607.776C69.8236 607.981 69.2682 608.084 68.6522 608.084C67.8682 608.084 67.1729 607.925 66.5662 607.608C65.9596 607.281 65.4882 606.829 65.1522 606.25C64.8256 605.671 64.6622 605.018 64.6622 604.29C64.6622 603.571 64.8209 602.923 65.1382 602.344C65.4649 601.765 65.9082 601.317 66.4682 601C67.0376 600.673 67.6769 600.51 68.3862 600.51C69.0956 600.51 69.7256 600.673 70.2762 601C70.8362 601.317 71.2702 601.765 71.5782 602.344C71.8956 602.923 72.0542 603.585 72.0542 604.332ZM68.3862 601.644C67.7422 601.644 67.2009 601.84 66.7622 602.232C66.3329 602.624 66.0809 603.137 66.0062 603.772H70.7662C70.6916 603.147 70.4349 602.638 69.9962 602.246C69.5669 601.845 69.0302 601.644 68.3862 601.644ZM74.9085 601.826C75.1418 601.397 75.4872 601.07 75.9445 600.846C76.4018 600.622 76.9572 600.51 77.6105 600.51V601.812C77.5358 601.803 77.4332 601.798 77.3025 601.798C76.5745 601.798 76.0005 602.017 75.5805 602.456C75.1698 602.885 74.9645 603.501 74.9645 604.304V608H73.6205V600.58H74.9085V601.826ZM85.8338 600.58L82.2358 608.742C81.9184 609.498 81.5451 610.03 81.1158 610.338C80.6958 610.646 80.1871 610.8 79.5898 610.8C79.2258 610.8 78.8711 610.739 78.5258 610.618C78.1898 610.506 77.9098 610.338 77.6858 610.114L78.2598 609.106C78.6424 609.47 79.0858 609.652 79.5898 609.652C79.9164 609.652 80.1871 609.563 80.4018 609.386C80.6258 609.218 80.8264 608.924 81.0038 608.504L81.2418 607.986L77.9658 600.58H79.3658L81.9558 606.516L84.5178 600.58H85.8338Z" fill="#181818"/>
<path d="M356.193 605.326C356.193 606.063 355.913 606.689 355.353 607.202C354.802 607.715 354 608.014 352.945 608.098V609.68H352.049V608.098C351.368 608.061 350.719 607.935 350.103 607.72C349.496 607.496 349.011 607.216 348.647 606.88L349.165 605.788C349.501 606.096 349.926 606.353 350.439 606.558C350.952 606.754 351.489 606.871 352.049 606.908V603.66C351.396 603.501 350.85 603.329 350.411 603.142C349.982 602.955 349.618 602.68 349.319 602.316C349.03 601.952 348.885 601.476 348.885 600.888C348.885 600.151 349.151 599.525 349.683 599.012C350.224 598.499 351.013 598.2 352.049 598.116V596.52H352.945V598.102C353.477 598.121 353.99 598.205 354.485 598.354C354.989 598.503 355.423 598.704 355.787 598.956L355.325 600.076C354.569 599.6 353.776 599.339 352.945 599.292V602.554C353.626 602.722 354.186 602.899 354.625 603.086C355.064 603.263 355.432 603.534 355.731 603.898C356.039 604.253 356.193 604.729 356.193 605.326ZM350.257 600.832C350.257 601.233 350.411 601.546 350.719 601.77C351.027 601.994 351.47 602.181 352.049 602.33V599.306C351.452 599.381 351.004 599.558 350.705 599.838C350.406 600.109 350.257 600.44 350.257 600.832ZM352.945 606.894C353.57 606.838 354.037 606.679 354.345 606.418C354.662 606.147 354.821 605.811 354.821 605.41C354.821 604.999 354.658 604.687 354.331 604.472C354.014 604.248 353.552 604.052 352.945 603.884V606.894ZM360.042 598.2V608H358.656V599.418H356.444V598.2H360.042ZM362.809 608.084C362.548 608.084 362.324 607.995 362.137 607.818C361.951 607.631 361.857 607.398 361.857 607.118C361.857 606.847 361.951 606.623 362.137 606.446C362.324 606.259 362.548 606.166 362.809 606.166C363.071 606.166 363.29 606.255 363.467 606.432C363.645 606.609 363.733 606.838 363.733 607.118C363.733 607.398 363.64 607.631 363.453 607.818C363.276 607.995 363.061 608.084 362.809 608.084ZM371.782 606.782V608H364.74V607.048L368.73 603.198C369.215 602.731 369.542 602.33 369.71 601.994C369.878 601.649 369.962 601.303 369.962 600.958C369.962 600.445 369.78 600.048 369.416 599.768C369.061 599.479 368.548 599.334 367.876 599.334C366.793 599.334 365.958 599.689 365.37 600.398L364.418 599.572C364.801 599.105 365.3 598.741 365.916 598.48C366.541 598.219 367.237 598.088 368.002 598.088C369.029 598.088 369.845 598.335 370.452 598.83C371.059 599.315 371.362 599.978 371.362 600.818C371.362 601.341 371.25 601.835 371.026 602.302C370.802 602.769 370.377 603.301 369.752 603.898L366.756 606.782H371.782ZM375.433 602.106C376.833 602.106 377.86 602.372 378.513 602.904C379.176 603.427 379.507 604.145 379.507 605.06C379.507 605.639 379.367 606.161 379.087 606.628C378.816 607.085 378.401 607.449 377.841 607.72C377.29 607.981 376.609 608.112 375.797 608.112C375.106 608.112 374.439 608.009 373.795 607.804C373.151 607.589 372.619 607.295 372.199 606.922L372.843 605.816C373.179 606.133 373.608 606.39 374.131 606.586C374.654 606.773 375.204 606.866 375.783 606.866C376.52 606.866 377.09 606.712 377.491 606.404C377.902 606.087 378.107 605.657 378.107 605.116C378.107 604.528 377.883 604.085 377.435 603.786C376.987 603.478 376.222 603.324 375.139 603.324H372.913L373.431 598.2H378.961V599.418H374.607L374.341 602.106H375.433Z" fill="#181818"/>
<path d="M31.47 639.2H32.87V649H31.47V639.2ZM44.59 641.51C45.5233 641.51 46.2607 641.781 46.802 642.322C47.3527 642.863 47.628 643.666 47.628 644.73V649H46.284V644.884C46.284 644.165 46.116 643.624 45.78 643.26C45.4533 642.896 44.982 642.714 44.366 642.714C43.6847 642.714 43.1433 642.929 42.742 643.358C42.3407 643.778 42.14 644.385 42.14 645.178V649H40.796V644.884C40.796 644.165 40.628 643.624 40.292 643.26C39.9653 642.896 39.494 642.714 38.878 642.714C38.1967 642.714 37.6553 642.929 37.254 643.358C36.8527 643.778 36.652 644.385 36.652 645.178V649H35.308V641.58H36.596V642.686C36.8667 642.303 37.2213 642.014 37.66 641.818C38.0987 641.613 38.598 641.51 39.158 641.51C39.7367 641.51 40.25 641.627 40.698 641.86C41.146 642.093 41.4913 642.434 41.734 642.882C42.014 642.453 42.4013 642.117 42.896 641.874C43.4 641.631 43.9647 641.51 44.59 641.51ZM53.735 641.51C54.4536 641.51 55.0976 641.669 55.667 641.986C56.2363 642.303 56.6796 642.747 56.997 643.316C57.3236 643.885 57.487 644.543 57.487 645.29C57.487 646.037 57.3236 646.699 56.997 647.278C56.6796 647.847 56.2363 648.291 55.667 648.608C55.0976 648.925 54.4536 649.084 53.735 649.084C53.203 649.084 52.713 648.981 52.265 648.776C51.8263 648.571 51.453 648.272 51.145 647.88V651.716H49.801V641.58H51.089V642.756C51.3876 642.345 51.7656 642.037 52.223 641.832C52.6803 641.617 53.1843 641.51 53.735 641.51ZM53.623 647.908C54.099 647.908 54.5236 647.801 54.897 647.586C55.2796 647.362 55.5783 647.054 55.793 646.662C56.017 646.261 56.129 645.803 56.129 645.29C56.129 644.777 56.017 644.324 55.793 643.932C55.5783 643.531 55.2796 643.223 54.897 643.008C54.5236 642.793 54.099 642.686 53.623 642.686C53.1563 642.686 52.7316 642.798 52.349 643.022C51.9756 643.237 51.677 643.54 51.453 643.932C51.2383 644.324 51.131 644.777 51.131 645.29C51.131 645.803 51.2383 646.261 51.453 646.662C51.6676 647.054 51.9663 647.362 52.349 647.586C52.7316 647.801 53.1563 647.908 53.623 647.908ZM65.9599 641.58V649H64.6859V647.88C64.4153 648.263 64.0559 648.561 63.6079 648.776C63.1693 648.981 62.6886 649.084 62.1659 649.084C61.1766 649.084 60.3973 648.813 59.8279 648.272C59.2586 647.721 58.9739 646.914 58.9739 645.85V641.58H60.3179V645.696C60.3179 646.415 60.4906 646.961 60.8359 647.334C61.1813 647.698 61.6759 647.88 62.3199 647.88C63.0293 647.88 63.5893 647.665 63.9999 647.236C64.4106 646.807 64.6159 646.2 64.6159 645.416V641.58H65.9599ZM74.9245 645.332C74.9245 645.435 74.9152 645.57 74.8965 645.738H68.8765C68.9605 646.391 69.2452 646.919 69.7305 647.32C70.2252 647.712 70.8365 647.908 71.5645 647.908C72.4512 647.908 73.1652 647.609 73.7065 647.012L74.4485 647.88C74.1125 648.272 73.6925 648.571 73.1885 648.776C72.6939 648.981 72.1385 649.084 71.5225 649.084C70.7385 649.084 70.0432 648.925 69.4365 648.608C68.8299 648.281 68.3585 647.829 68.0225 647.25C67.6959 646.671 67.5325 646.018 67.5325 645.29C67.5325 644.571 67.6912 643.923 68.0085 643.344C68.3352 642.765 68.7785 642.317 69.3385 642C69.9079 641.673 70.5472 641.51 71.2565 641.51C71.9659 641.51 72.5959 641.673 73.1465 642C73.7065 642.317 74.1405 642.765 74.4485 643.344C74.7659 643.923 74.9245 644.585 74.9245 645.332ZM71.2565 642.644C70.6125 642.644 70.0712 642.84 69.6325 643.232C69.2032 643.624 68.9512 644.137 68.8765 644.772H73.6365C73.5619 644.147 73.3052 643.638 72.8665 643.246C72.4372 642.845 71.9005 642.644 71.2565 642.644ZM78.6188 649.084C78.0121 649.084 77.4288 649.005 76.8688 648.846C76.3088 648.678 75.8701 648.468 75.5528 648.216L76.1128 647.152C76.4395 647.385 76.8361 647.572 77.3028 647.712C77.7695 647.852 78.2408 647.922 78.7168 647.922C79.8928 647.922 80.4808 647.586 80.4808 646.914C80.4808 646.69 80.4015 646.513 80.2428 646.382C80.0841 646.251 79.8835 646.158 79.6408 646.102C79.4075 646.037 79.0715 645.967 78.6328 645.892C78.0355 645.799 77.5455 645.691 77.1628 645.57C76.7895 645.449 76.4675 645.243 76.1968 644.954C75.9261 644.665 75.7908 644.259 75.7908 643.736C75.7908 643.064 76.0708 642.527 76.6308 642.126C77.1908 641.715 77.9421 641.51 78.8848 641.51C79.3795 641.51 79.8741 641.571 80.3688 641.692C80.8635 641.813 81.2695 641.977 81.5868 642.182L81.0128 643.246C80.4061 642.854 79.6921 642.658 78.8708 642.658C78.3015 642.658 77.8675 642.751 77.5688 642.938C77.2701 643.125 77.1208 643.372 77.1208 643.68C77.1208 643.923 77.2048 644.114 77.3728 644.254C77.5408 644.394 77.7461 644.497 77.9888 644.562C78.2408 644.627 78.5908 644.702 79.0388 644.786C79.6361 644.889 80.1168 645.001 80.4808 645.122C80.8541 645.234 81.1715 645.43 81.4328 645.71C81.6941 645.99 81.8248 646.382 81.8248 646.886C81.8248 647.558 81.5355 648.095 80.9568 648.496C80.3875 648.888 79.6081 649.084 78.6188 649.084ZM87.3765 648.566C87.1805 648.734 86.9378 648.865 86.6485 648.958C86.3591 649.042 86.0605 649.084 85.7525 649.084C85.0058 649.084 84.4271 648.883 84.0165 648.482C83.6058 648.081 83.4005 647.507 83.4005 646.76V642.686H82.1405V641.58H83.4005V639.956H84.7445V641.58H86.8725V642.686H84.7445V646.704C84.7445 647.105 84.8425 647.413 85.0385 647.628C85.2438 647.843 85.5331 647.95 85.9065 647.95C86.3171 647.95 86.6671 647.833 86.9565 647.6L87.3765 648.566ZM91.6333 649.084C90.8959 649.084 90.2333 648.921 89.6453 648.594C89.0573 648.267 88.5953 647.819 88.2593 647.25C87.9326 646.671 87.7693 646.018 87.7693 645.29C87.7693 644.562 87.9326 643.913 88.2593 643.344C88.5953 642.765 89.0573 642.317 89.6453 642C90.2333 641.673 90.8959 641.51 91.6333 641.51C92.3706 641.51 93.0286 641.673 93.6073 642C94.1953 642.317 94.6526 642.765 94.9793 643.344C95.3153 643.913 95.4833 644.562 95.4833 645.29C95.4833 646.018 95.3153 646.671 94.9793 647.25C94.6526 647.819 94.1953 648.267 93.6073 648.594C93.0286 648.921 92.3706 649.084 91.6333 649.084ZM91.6333 647.908C92.1093 647.908 92.5339 647.801 92.9073 647.586C93.2899 647.362 93.5886 647.054 93.8033 646.662C94.0179 646.261 94.1253 645.803 94.1253 645.29C94.1253 644.777 94.0179 644.324 93.8033 643.932C93.5886 643.531 93.2899 643.223 92.9073 643.008C92.5339 642.793 92.1093 642.686 91.6333 642.686C91.1573 642.686 90.7279 642.793 90.3453 643.008C89.9719 643.223 89.6733 643.531 89.4493 643.932C89.2346 644.324 89.1273 644.777 89.1273 645.29C89.1273 645.803 89.2346 646.261 89.4493 646.662C89.6733 647.054 89.9719 647.362 90.3453 647.586C90.7279 647.801 91.1573 647.908 91.6333 647.908Z" fill="#181818"/>
<path d="M352.064 646.326C352.064 644.408 350.384 643.946 348.816 643.554V640.292C349.6 640.334 350.44 640.6 351.196 641.076L351.658 639.956C350.916 639.452 349.866 639.144 348.816 639.102V637.52H347.92V639.116C345.75 639.298 344.756 640.502 344.756 641.888C344.756 643.792 346.38 644.282 347.92 644.66V647.908C346.786 647.838 345.694 647.39 345.036 646.788L344.518 647.88C345.246 648.552 346.548 649.028 347.92 649.098V650.68H348.816V649.098C351.028 648.916 352.064 647.712 352.064 646.326ZM346.128 641.832C346.128 641.09 346.674 640.46 347.92 640.306V643.33C346.912 643.064 346.128 642.7 346.128 641.832ZM348.816 647.894V644.884C349.852 645.164 350.692 645.514 350.692 646.41C350.692 647.166 350.118 647.768 348.816 647.894ZM357.015 649.112C359.297 649.112 361.005 647.292 361.005 644.1C361.005 640.908 359.297 639.088 357.015 639.088C354.719 639.088 353.011 640.908 353.011 644.1C353.011 647.292 354.719 649.112 357.015 649.112ZM357.015 647.866C355.475 647.866 354.411 646.606 354.411 644.1C354.411 641.594 355.475 640.334 357.015 640.334C358.541 640.334 359.605 641.594 359.605 644.1C359.605 646.606 358.541 647.866 357.015 647.866ZM362.809 649.084C363.313 649.084 363.733 648.678 363.733 648.118C363.733 647.558 363.313 647.166 362.809 647.166C362.291 647.166 361.857 647.558 361.857 648.118C361.857 648.678 362.291 649.084 362.809 649.084ZM366.756 647.782L369.752 644.898C371.082 643.624 371.362 642.77 371.362 641.818C371.362 640.138 370.046 639.088 368.002 639.088C366.476 639.088 365.174 639.634 364.418 640.572L365.37 641.398C365.972 640.67 366.826 640.334 367.876 640.334C369.248 640.334 369.962 640.95 369.962 641.958C369.962 642.574 369.766 643.19 368.73 644.198L364.74 648.048V649H371.782V647.782H366.756ZM375.433 643.106H374.341L374.607 640.418H378.961V639.2H373.431L372.913 644.324H375.139C377.407 644.324 378.107 645.01 378.107 646.116C378.107 647.18 377.267 647.866 375.783 647.866C374.593 647.866 373.501 647.432 372.843 646.816L372.199 647.922C373.039 648.664 374.411 649.112 375.797 649.112C378.303 649.112 379.507 647.754 379.507 646.06C379.507 644.324 378.359 643.106 375.433 643.106Z" fill="#181818"/>
<path d="M34.392 677.966H30.072V676.4H40.494V677.966H36.174V689H34.392V677.966ZM45.0041 689.108C44.0561 689.108 43.2041 688.898 42.4481 688.478C41.6921 688.058 41.0981 687.482 40.6661 686.75C40.2461 686.006 40.0361 685.166 40.0361 684.23C40.0361 683.294 40.2461 682.46 40.6661 681.728C41.0981 680.984 41.6921 680.408 42.4481 680C43.2041 679.58 44.0561 679.37 45.0041 679.37C45.9521 679.37 46.7981 679.58 47.5421 680C48.2981 680.408 48.8861 680.984 49.3061 681.728C49.7381 682.46 49.9541 683.294 49.9541 684.23C49.9541 685.166 49.7381 686.006 49.3061 686.75C48.8861 687.482 48.2981 688.058 47.5421 688.478C46.7981 688.898 45.9521 689.108 45.0041 689.108ZM45.0041 687.596C45.6161 687.596 46.1621 687.458 46.6421 687.182C47.1341 686.894 47.5181 686.498 47.7941 685.994C48.0701 685.478 48.2081 684.89 48.2081 684.23C48.2081 683.57 48.0701 682.988 47.7941 682.484C47.5181 681.968 47.1341 681.572 46.6421 681.296C46.1621 681.02 45.6161 680.882 45.0041 680.882C44.3921 680.882 43.8401 681.02 43.3481 681.296C42.8681 681.572 42.4841 681.968 42.1961 682.484C41.9201 682.988 41.7821 683.57 41.7821 684.23C41.7821 684.89 41.9201 685.478 42.1961 685.994C42.4841 686.498 42.8681 686.894 43.3481 687.182C43.8401 687.458 44.3921 687.596 45.0041 687.596ZM57.4079 688.442C57.1559 688.658 56.8439 688.826 56.4719 688.946C56.0999 689.054 55.7159 689.108 55.3199 689.108C54.3599 689.108 53.6159 688.85 53.0879 688.334C52.5599 687.818 52.2959 687.08 52.2959 686.12V680.882H50.6759V679.46H52.2959V677.372H54.0239V679.46H56.7599V680.882H54.0239V686.048C54.0239 686.564 54.1499 686.96 54.4019 687.236C54.6659 687.512 55.0379 687.65 55.5179 687.65C56.0459 687.65 56.4959 687.5 56.8679 687.2L57.4079 688.442ZM62.671 679.37C63.991 679.37 64.999 679.694 65.695 680.342C66.403 680.99 66.757 681.956 66.757 683.24V689H65.119V687.74C64.831 688.184 64.417 688.526 63.877 688.766C63.349 688.994 62.719 689.108 61.987 689.108C60.919 689.108 60.061 688.85 59.413 688.334C58.777 687.818 58.459 687.14 58.459 686.3C58.459 685.46 58.765 684.788 59.377 684.284C59.989 683.768 60.961 683.51 62.293 683.51H65.029V683.168C65.029 682.424 64.813 681.854 64.381 681.458C63.949 681.062 63.313 680.864 62.473 680.864C61.909 680.864 61.357 680.96 60.817 681.152C60.277 681.332 59.821 681.578 59.449 681.89L58.729 680.594C59.221 680.198 59.809 679.898 60.493 679.694C61.177 679.478 61.903 679.37 62.671 679.37ZM62.275 687.776C62.935 687.776 63.505 687.632 63.985 687.344C64.465 687.044 64.813 686.624 65.029 686.084V684.752H62.365C60.901 684.752 60.169 685.244 60.169 686.228C60.169 686.708 60.355 687.086 60.727 687.362C61.099 687.638 61.615 687.776 62.275 687.776ZM69.6548 675.644H71.3828V689H69.6548V675.644ZM79.3301 681.836C78.9941 681.836 78.7061 681.722 78.4661 681.494C78.2261 681.254 78.1061 680.954 78.1061 680.594C78.1061 680.246 78.2261 679.958 78.4661 679.73C78.7061 679.49 78.9941 679.37 79.3301 679.37C79.6661 679.37 79.9481 679.484 80.1761 679.712C80.4041 679.94 80.5181 680.234 80.5181 680.594C80.5181 680.954 80.3981 681.254 80.1581 681.494C79.9301 681.722 79.6541 681.836 79.3301 681.836ZM79.3301 689.108C78.9941 689.108 78.7061 688.994 78.4661 688.766C78.2261 688.526 78.1061 688.226 78.1061 687.866C78.1061 687.518 78.2261 687.23 78.4661 687.002C78.7061 686.762 78.9941 686.642 79.3301 686.642C79.6661 686.642 79.9481 686.756 80.1761 686.984C80.4041 687.212 80.5181 687.506 80.5181 687.866C80.5181 688.226 80.3981 688.526 80.1581 688.766C79.9301 688.994 79.6541 689.108 79.3301 689.108Z" fill="#181818"/>
<path d="M335.461 685.562C335.461 683.096 333.301 682.502 331.285 681.998V677.804C332.293 677.858 333.373 678.2 334.345 678.812L334.939 677.372C333.985 676.724 332.635 676.328 331.285 676.274V674.24H330.133V676.292C327.343 676.526 326.065 678.074 326.065 679.856C326.065 682.304 328.153 682.934 330.133 683.42V687.596C328.675 687.506 327.271 686.93 326.425 686.156L325.759 687.56C326.695 688.424 328.369 689.036 330.133 689.126V691.16H331.285V689.126C334.129 688.892 335.461 687.344 335.461 685.562ZM327.829 679.784C327.829 678.83 328.531 678.02 330.133 677.822V681.71C328.837 681.368 327.829 680.9 327.829 679.784ZM331.285 687.578V683.708C332.617 684.068 333.697 684.518 333.697 685.67C333.697 686.642 332.959 687.416 331.285 687.578ZM335.869 676.4V677.966H338.713V689H340.495V676.4H335.869ZM353.913 684.356H351.52V681.62H349.827V684.356H344.985L351.159 676.4H349.216L342.771 684.644V685.904H349.773V689H351.52V685.904H353.913V684.356ZM356.232 689.108C356.88 689.108 357.42 688.586 357.42 687.866C357.42 687.146 356.88 686.642 356.232 686.642C355.566 686.642 355.008 687.146 355.008 687.866C355.008 688.586 355.566 689.108 356.232 689.108ZM362.422 681.422H361.018L361.36 677.966H366.958V676.4H359.848L359.182 682.988H362.044C364.96 682.988 365.86 683.87 365.86 685.292C365.86 686.66 364.78 687.542 362.872 687.542C361.342 687.542 359.938 686.984 359.092 686.192L358.264 687.614C359.344 688.568 361.108 689.144 362.89 689.144C366.112 689.144 367.66 687.398 367.66 685.22C367.66 682.988 366.184 681.422 362.422 681.422ZM374.006 689.144C376.94 689.144 379.136 686.804 379.136 682.7C379.136 678.596 376.94 676.256 374.006 676.256C371.054 676.256 368.858 678.596 368.858 682.7C368.858 686.804 371.054 689.144 374.006 689.144ZM374.006 687.542C372.026 687.542 370.658 685.922 370.658 682.7C370.658 679.478 372.026 677.858 374.006 677.858C375.968 677.858 377.336 679.478 377.336 682.7C377.336 685.922 375.968 687.542 374.006 687.542Z" fill="#181818"/>
<path fill-rule="evenodd" clip-rule="evenodd" d="M349.989 24.0279C352.644 24.0281 355.197 25.1661 357.122 27.2068C357.266 27.3643 357.498 27.3623 357.641 27.2023L359.026 25.643C359.098 25.5618 359.138 25.4519 359.138 25.3375C359.137 25.2231 359.096 25.1137 359.022 25.0335C353.972 19.6343 346.005 19.6343 340.955 25.0335C340.882 25.1136 340.841 25.223 340.84 25.3374C340.839 25.4518 340.879 25.5618 340.952 25.643L342.337 27.2023C342.48 27.3626 342.711 27.3646 342.856 27.2068C344.78 25.166 347.334 24.0279 349.989 24.0279ZM352.648 32.8228C352.722 32.7418 352.762 32.6303 352.76 32.5147C352.758 32.3991 352.713 32.2895 352.636 32.212C351.108 30.77 348.87 30.77 347.342 32.212C347.265 32.2895 347.22 32.399 347.218 32.5146C347.215 32.6302 347.256 32.7417 347.33 32.8228L349.723 35.5169C349.794 35.5961 349.889 35.6406 349.989 35.6406C350.089 35.6406 350.184 35.5961 350.255 35.5169L352.648 32.8228ZM353.936 30.7981C352.854 29.7058 351.448 29.101 349.989 29.1011C348.531 29.1017 347.126 29.7065 346.045 30.7981C345.899 30.9531 345.669 30.9497 345.526 30.7905L344.143 29.2312C344.07 29.1495 344.03 29.0385 344.031 28.9232C344.032 28.8079 344.074 28.6978 344.148 28.6177C347.441 25.2009 352.54 25.2009 355.833 28.6177C355.907 28.6978 355.949 28.8078 355.95 28.9231C355.952 29.0384 355.911 29.1494 355.838 29.2312L354.455 30.7905C354.312 30.9497 354.082 30.9531 353.936 30.7981Z" fill="#181818"/>
<path d="M48.487 34.0811C51.175 34.0811 52.7717 31.979 52.7717 28.4121C52.7717 24.9111 51.0725 22.9922 48.5456 22.9922C46.2458 22.9922 44.6198 24.5376 44.6198 26.6982C44.6198 28.7271 46.0847 30.2065 48.0988 30.2065C49.3366 30.2065 50.3401 29.6353 50.8381 28.6318H50.9626C50.9406 31.1147 50.0544 32.5356 48.509 32.5356C47.6008 32.5356 46.8757 32.0376 46.6487 31.2319H44.7663C45.0739 32.9531 46.5534 34.0811 48.487 34.0811ZM48.5529 28.749C47.3225 28.749 46.4729 27.8848 46.4729 26.6396C46.4729 25.4458 47.3664 24.5303 48.5603 24.5303C49.7541 24.5303 50.6477 25.4604 50.6477 26.6763C50.6477 27.8774 49.7761 28.749 48.5529 28.749ZM55.9228 28.5952C56.6186 28.5952 57.0947 28.1045 57.0947 27.46C57.0947 26.8081 56.6186 26.3247 55.9228 26.3247C55.2343 26.3247 54.7509 26.8081 54.7509 27.46C54.7509 28.1045 55.2343 28.5952 55.9228 28.5952ZM55.9228 33.9712C56.6186 33.9712 57.0947 33.4805 57.0947 32.8286C57.0947 32.1841 56.6186 31.6934 55.9228 31.6934C55.2343 31.6934 54.7509 32.1841 54.7509 32.8286C54.7509 33.4805 55.2343 33.9712 55.9228 33.9712ZM64.0104 33.8247H65.8195V31.7959H67.2478V30.2358H65.8195V23.2559H63.1535C61.718 25.4385 60.2165 27.8701 58.8469 30.2505V31.7959H64.0104V33.8247ZM60.5974 30.1699C61.6301 28.3755 62.8532 26.4199 63.9372 24.7646H64.0397V30.2798H60.5974V30.1699ZM71.3364 33.8247H73.226V23.2559H71.3437L68.5825 25.1968V26.9766L71.2119 25.1162H71.3364V33.8247Z" fill="#181818"/>
</svg>
